<?xml version="1.0" encoding="utf-8"?>
<!-- Generator: Adobe Illustrator 19.2.1, SVG Export Plug-In . SVG Version: 6.00 Build 0)  -->
<svg version="1.1" id="Layer_1" xmlns="http://www.w3.org/2000/svg" xmlns:xlink="http://www.w3.org/1999/xlink" x="0px" y="0px"
	 viewBox="0 0 1000 1000" style="enable-background:new 0 0 1000 1000;" xml:space="preserve">
<style type="text/css">
	.st0{fill:#DCDCDC;}
</style>
<g>
	<path class="st0" d="M1181.6,54.5c-8.5,3.8-15.8,9.6-23.6,14.5c-52.3,33.6-104.6,67.4-156.8,101.2c-0.5,0.4-1,0.7-1.6,1
		c-1.7-2.8-1.1-4.4,1.8-6.3c36.7-23.8,73.4-47.9,110.1-71.9c19-12.4,37.9-24.9,57-37.2c4.3-2.7,8.7-5.3,13.1-7.9c0,0.9,0,1.9,0,2.8
		c-1.8,1.4-3.8,2.6-6.2,4.4c0.1,0,1.1,0.4,0.7,0c-0.1-0.1-0.1-0.2,0.2-0.4c1.8-1.1,3.1-2.9,5.4-3
		C1181.6,52.6,1181.6,53.5,1181.6,54.5z"/>
	<path class="st0" d="M1094.5-3.2c-8.7,7.5-17.3,15-26,22.3c-14.1,11.8-28.2,23.5-42.4,35.2c-16.6,13.7-33,27.4-49.6,41.2
		c-6.5,5.4-13,10.9-19.4,16.4c-0.9,0.7-1.6,1.5-2.6,2.1c-1.6,1-3.6,2-5,0c-1.3-1.8,0.8-2.8,1.8-3.8c7.1-6.2,14.2-12.3,21.3-18.4
		c7.4-6.2,14.8-12.4,22.1-18.5c9.7-8.2,19.6-16.4,29.3-24.6c7-6,13.9-12,20.9-18c9.7-8.2,19.7-16.2,29.2-24.7
		c3.3-2.9,7.6-5.1,9.8-9.2c1.6,0,3.1,0,4.7,0c-0.7,4.1-4.6,5.1-7.2,7.3c-6.2,5.5-12.6,10.6-18.8,15.9c-6.2,5.1-12.3,10.3-18.5,15.5
		c-2.3,1.2-3.7,3.6-5.9,4.8c-0.9,0.6-1.6,1.1-2,1.5c0.2-0.6,1.3-0.9,2.1-1.5c2.3-1.3,3.6-3.6,5.9-4.9c6.2-5.2,12.2-10.4,18.5-15.4
		c9.1-7.9,18.4-15.6,27.7-23.2C1091.9-3.2,1093.2-3.2,1094.5-3.2z"/>
	<path class="st0" d="M-67.6,1003.6c4.5-3.3,8.3-7.5,12.6-11.2c12.4-11,24.7-22,37-33.2c7.3-6.6,14.8-13.1,21.9-19.9
		c1.9-1.8,3.9-3.6,6-5.2c2.6-2.1,3,0.2,4.4,1.2c2.1,1.6,0.6,2.6-0.6,3.7c-14.4,13.2-28.8,26.2-43.2,39.5c-9,8.3-17.8,16.7-26.7,25.2
		C-60,1003.6-63.8,1003.6-67.6,1003.6z"/>
	<path class="st0" d="M1010.3-3.2c-11.5,11.4-22.9,22.9-34.7,34c-15.3,14.5-30.2,29.5-45.2,44.3c-3.9,3.9-7.9,7.6-12,11.3
		c-0.9,0.9-1.6,2.7-3.4,1c-1.6-1.5-1.3-2.9,0.2-4.4c5.6-5.5,10.8-11.5,16.8-16.6c5.8-4.7,10.7-10.1,15.9-15.3
		c17.1-17,34.2-34.1,51.2-51.1c0.9-0.9,1.8-2.2,2.6-3.2C1004.6-3.2,1007.4-3.2,1010.3-3.2z"/>
	<path class="st0" d="M105.6-3.2c5.1,8.1,11.6,15.1,17.5,22.7c15.2,19.4,30.6,38.6,45.9,57.9c4.4,5.5,8.9,11,13.2,16.6
		c0.9,1.2,3.1,2.6,0.9,4.3c-1.8,1.4-2.9-0.6-3.8-1.6c-6-7.2-11.8-14.5-17.7-21.8c-8.8-10.9-17.6-21.8-26.4-32.6
		c-8.5-10.6-17.1-21.1-25.6-31.7C106.1,6,102.6,1.4,99-3.1C101.1-3.2,103.3-3.2,105.6-3.2z"/>
	<path class="st0" d="M785,1003.6c-9.2-16.3-18.5-32.6-27.6-48.9c-6.8-12.1-13.5-24.2-20.5-36.8c3.9,0,6.1,1.2,7.9,4.4
		c15.2,27.2,30.7,54.3,46,81.5C788.8,1003.6,786.9,1003.6,785,1003.6z"/>
	<path class="st0" d="M1012.2,1003.6c-7.3-8.5-15.5-16.1-23.5-23.9C973.9,965,959,950.6,944.2,936c-0.9-0.9-3.5-1.8-2-3.4
		c1.4-1.6,3.7-1.2,5.4,0.6c4.5,4.5,9.2,9.1,13.7,13.6c11.3,11.3,22.6,22.4,33.8,33.8c7.8,7.9,16.4,14.8,23.6,23.1
		C1016.5,1003.6,1014.3,1003.6,1012.2,1003.6z"/>
	<path class="st0" d="M938.3,1003.6c-17.7-20.7-35.3-41.4-53.3-62.6c3.3-1.4,5.6-0.9,7.8,1.5c16.3,18.8,32.6,37.7,49,56.5
		c1.3,1.5,2.7,3,4.1,4.5C943.4,1003.6,940.8,1003.6,938.3,1003.6z"/>
	<path class="st0" d="M1157.9,1003.6c-15.4-12.5-31.3-24.4-47.1-36.4c-17.8-13.6-35.2-27.6-52.9-41.4c-10.3-8-20.8-15.8-31.1-23.8
		c-0.9-0.7-4.4-1.6-0.6-3.3c2.7,0.2,4.5,2,6.5,3.5c9.5,7.3,18.8,14.8,28.4,22c24.6,19.3,49.5,38.2,74.2,57.3
		c7.5,5.8,15,11.5,22.3,17.3c1.6,1.2,4,2.1,4,4.8C1160.4,1003.6,1159.1,1003.6,1157.9,1003.6z"/>
	<path class="st0" d="M1043.4,193.9c11.5-6.4,23.1-12.9,34.6-19.3c20.9-11.6,41.9-23.2,62.9-34.8c12.1-6.7,24.2-13.3,36.3-20.1
		c1.3-0.8,2.6-1.7,4.3-1.8c0,0.7,0,1.2,0,1.9c-2.5,4.1-7.1,5.1-10.8,7.3c-14.4,8.1-28.9,16.2-43.4,23.9
		c-9.7,5.5-19.5,10.5-28.9,16.3c-0.8,1-2.3,0.7-3.2,1.4c-2.6,1.4-5.2,2.5-7.6,4.2c-0.4,0.3-0.7,0.5-1,0.7c-3.1,1.8-6.8,2.7-9.4,5.5
		c-0.7,0.6-1.4,1-2.3,1.1c-2.4,0.7-4.5,1.7-6.3,3.5c-1.5,0.5-2.6,1.8-4.3,2.2c-2.4,0.8-4.5,1.7-6.3,3.6c-3.9,2.3-7.9,4.3-11.9,6.5
		C1043.9,197.5,1042.3,197.3,1043.4,193.9z"/>
	<path class="st0" d="M197.4-3.2c3.8,7.9,8.9,15,13.4,22.5c8.5,13.9,17,27.7,25.7,41.5c1.2,2,0.6,2.7-0.7,3.8
		c-1.9,1.7-2.5-0.2-3.1-1.2c-13.3-21.9-26.6-43.7-39.9-65.7c-0.2-0.3-0.1-0.6-0.2-0.9C194.2-3.2,195.8-3.2,197.4-3.2z"/>
	<path class="st0" d="M663,1003.6c-6-17.9-11.8-35.9-18.1-53.8c-1.1-3.3,0.3-4.5,2.4-5.4c3.1-1.4,2.7,2,3.1,3.3
		c5.9,18,11.5,36,17.1,54c0.2,0.6,0.1,1.2,0.2,1.9C666.1,1003.6,664.5,1003.6,663,1003.6z"/>
	<path class="st0" d="M1028.1,897.7c5,0.9,8.1,4.8,11.9,7.7c32.2,24.4,64.2,48.9,96.1,73.4c9.8,7.6,19.7,15.1,29.4,22.7
		c0.8,0.6,1.2,1.4,1.8,2.1c-0.9,0-1.9,0-2.8,0c-10-6.4-19.1-14.3-28.6-21.5c-25-19.1-50-38.2-74.9-57.5
		c-10.3-7.8-20.4-15.9-30.9-23.6C1029.2,900.2,1027.9,899.4,1028.1,897.7z"/>
	<path class="st0" d="M12.8,1003.6c9-9.5,17.9-18.9,27-28.3c1.7-1.8,3.7-3.3,4.9-5.6c0.8-1.3,2-2.5,3.2-3.4c2.2-1.6,4,0,5.4,1.4
		c1.3,1.3-0.6,2-1.3,2.7c-9.3,10-18.6,20-28,29.9c-0.9,1-1.8,2.2-2.7,3.2C18.5,1003.6,15.7,1003.6,12.8,1003.6z"/>
	<path class="st0" d="M-60,98.1c-11.3-7.8-22.6-15.3-33.8-23.2c-11.1-7.8-22-15.6-33.1-23.4c-17-12-34-23.9-51-35.9
		c-1-0.8-2.2-1.2-3.2-1.9c0-0.9,0-1.9,0-2.8c2.8-0.5,4.6,1.7,6.5,3c20.7,14.5,41.3,29.1,62.1,43.6C-98.4,67.8-84,77.7-69.8,87.8
		c3.5,2.6,7.4,4.6,10.5,7.6C-58,96.5-56.5,98.1-60,98.1z"/>
	<path class="st0" d="M1181.6,942.1c-17.4-11.4-34.8-22.7-52.1-34.2c-20.4-13.4-40.9-27.1-61.3-40.6c-0.9-0.6-3.2-1-0.1-1.9
		c5.1-0.5,8,3.5,11.9,5.8c2.1,2.3,4.6,3.8,7.4,4.9c4,2.4,7.9,4.8,11.5,7.7c8,5.9,16.5,11.2,24.7,16.7c12.1,7.6,23.9,15.7,35.9,23.7
		c5.9,4,12,7.6,17.8,11.5c1.6,1,3.1,2.2,4.4,3.6C1181.6,940.2,1181.6,941.2,1181.6,942.1z"/>
	<path class="st0" d="M1043.4,193.9c0.2,1.2-0.6,3.2,2.2,1.4c3.8-2.5,7.9-4.3,11.9-6.3c2-1.7,4.7-2.3,6.7-4c1.2-0.6,2.5-1.1,3.6-1.7
		c2-1.8,4.7-2.4,6.8-4c0.6-0.3,1.1-0.5,1.7-0.8c3.1-2.6,7.3-3.5,10.5-5.9l0,0c2.6-2,6.2-2.6,8.6-5.1c0.6-0.1,1.2-0.2,1.8-0.3
		c9.8-6.2,20.3-11.2,30.3-16.9c16.7-9,33.2-18.1,49.8-27.2c1.3-0.7,2.6-2.2,4.3-0.8c0,0.7,0,1.2,0,1.9c-9,3.7-17.2,8.9-25.7,13.4
		c-17.9,9.5-35.6,19.3-53.4,29c-18.7,10.1-37.5,20.3-56.2,30.4c-1.2,0.7-2.6,1.2-3.8,1.8c-1.7-0.5-3.6,2.6-4.7,0.4
		c-1.1-2.1,2.8-1.9,2.9-4C1041.5,194.9,1042.4,194.3,1043.4,193.9z"/>
	<path class="st0" d="M1061.4,924.2c23.3,17.8,46.6,35.5,69.8,53.3c10.2,7.9,20.5,15.7,30.8,23.6c0.9,0.8,2.2,1.3,2.6,2.6
		c-0.9,0-1.9,0-2.8,0c-22.3-17.3-44.7-34.6-67-52c-11.5-8.9-22.8-17.8-34.3-26.7C1060.2,924.2,1060.4,923.7,1061.4,924.2z"/>
	<path class="st0" d="M-181.2,6.2c12.5,7.9,24,16.9,36.1,25.4C-122,48-99,64.6-76,81.1c7.5,5.4,15,10.7,22.6,16
		c0.2,1.7-0.9,1.4-1.8,1.1c-0.7-0.1-1.3-0.2-2-0.3c-3.6-4.2-8.6-6.5-12.9-9.8C-84.3,78-98.4,67.9-112.5,57.8
		c-22-15.4-43.8-31.2-65.8-46.7c-1.1-0.9-2.2-1.8-2.9-3C-181.2,7.4-181.2,6.8-181.2,6.2z"/>
	<path class="st0" d="M1079.3,872c-3.4-2.9-7.1-5.2-11.4-6.6c0.7-3.3,2.2-1.6,3.6-0.7c10.7,6.9,21.4,13.8,32,20.6
		c25.2,16.3,50.2,32.6,75.4,48.8c0.8,0.5,1.7,0.9,2.6,1.2c0,0.7,0,1.2,0,1.9c-2.2,0.8-3.5-1-5-2c-17.8-11.2-35.2-23.1-53-34.4
		c-8.7-5.3-16.8-11.5-25.6-16.6c-3.6-2.5-7.3-5-10.9-7.5C1084.5,875.2,1081.9,873.6,1079.3,872z"/>
	<path class="st0" d="M247.5-3.2c1.6,5.6,4.8,10.5,7.4,15.6c4.3,8.7,8.7,17.3,13.1,26c0.7,1.4,3,2.8,0.9,4.3
		c-2.3,1.5-3.2-0.8-4.1-2.5c-5.5-10.5-10.9-21.1-16.4-31.6c-2.1-4-4.4-7.9-6.5-11.9C243.7-3.2,245.6-3.2,247.5-3.2z"/>
	<path class="st0" d="M120.7,1003.6c5.6-9.2,12.5-17.3,18.9-25.8c1-1.3,2.2-1.7,4.1-1c2.4,0.9,3,1.6,1.3,3.9
		c-5.7,7.6-11.3,15.3-16.8,23C125.7,1003.6,123.2,1003.6,120.7,1003.6z"/>
	<path class="st0" d="M839.9-3.2c-7.1,10.7-14.3,21.4-21.4,32c-0.9,1.4-2.1,2.3-3.9,2c-0.9-0.2-2.1-0.1-2.4-1.1
		c-0.2-0.5,0.6-1.3,1-1.9c7-10.3,14-20.6,21-31C836.1-3.2,838-3.2,839.9-3.2z"/>
	<path class="st0" d="M620.4,1003.6c-0.4-6.4-2.8-12.3-4.1-18.5c-0.9-4.5-2.3-9-3.3-13.5c-0.4-1.8-0.6-3.8,2-4.5
		c2.9-0.9,2.6,1.7,2.9,3c2.7,11.2,5.4,22.4,8,33.6C624.2,1003.6,622.3,1003.6,620.4,1003.6z"/>
	<path class="st0" d="M-181.2,8.1c15,9.7,29.1,20.4,43.5,30.8c8.6,6.1,17,12.4,25.6,18.5c0.2,0.9,0,1.3-1,0.9
		c-17-11.9-34.1-23.8-51-35.6c-5.7-4-11.4-7.9-17-11.8C-181.2,10-181.2,9.1-181.2,8.1z"/>
	<path class="st0" d="M-128.4,115.9c-1.5,1.8-2.8,0.8-4.3-0.1c-15-9-30-18-45-26.9c-1-0.6-2.1-1.5-3.4-1.2c0-0.9,0-1.9,0-2.8
		c2.3-0.9,3.9,0.8,5.6,1.7c4.5,2.6,8.7,5.6,13.4,7.8c1.9,0.7,3.6,1.7,5.1,2.9c1.2,1.5,2.9,2.4,4.8,2.9c7,3.7,13.5,8.2,20.3,12.2
		C-130.3,113.1-128.8,114-128.4,115.9z"/>
	<path class="st0" d="M321.3-3.2c1.2,5.7,3.6,11,5.9,16.4c1.3,3-0.5,3.2-2.3,4.4c-2.6,1.6-2.8-1-3.1-2c-2.2-6.2-4.2-12.4-6.2-18.6
		C317.6-3.2,319.4-3.2,321.3-3.2z"/>
	<path class="st0" d="M-128.4,115.9c-7.9-5.4-15.9-10.4-24.2-15c-1.5-1.1-3.5-1.7-4.9-3c-1.5-0.9-2.9-1.8-4.4-2.6
		c-5.6-3.3-11.1-6.8-16.8-10c-1-0.6-1.6-1.4-2.3-2.3c0-0.7,0-1.2,0-1.9c17.4,10.6,34.8,21.2,52.2,31.9
		C-128.2,113.3-123.8,114-128.4,115.9z"/>
	<path class="st0" d="M1123.8,900.5c17.9,11.5,35.8,23,53.7,34.5c1.3,0.9,2.6,1.6,4,2.4c0,0.7,0,1.2,0,1.9
		c-6.1-2.4-10.9-6.6-16.3-10c-14.2-9.2-28.2-18.6-42.3-27.9C1122.8,900.5,1122.9,900,1123.8,900.5z"/>
	<path class="st0" d="M1181.6,122.6c-9.3,4.2-18,9.4-27,14.2c-9,4.7-18,9.5-27,14.3c-0.9,0.6-1,0-0.9-0.8
		c18.3-10.1,36.5-20.3,54.8-30.5C1181.6,120.7,1181.6,121.7,1181.6,122.6z"/>
	<path class="st0" d="M177.5,1003.6c2.3-3.7,4.8-7.3,6.8-11.2c2-3.9,4.4-4.9,8.2-2.2c-2.7,4.4-5.6,8.8-8.4,13.3
		C181.9,1003.6,179.7,1003.6,177.5,1003.6z"/>
	<path class="st0" d="M-167.7,531.5c1.3,0.9,4.4-1.3,4.3,1.9c-0.1,2.2-1.6,3.6-4.4,3.9c-4.4,0.5-8.9,0.7-13.3,0.9c0-1.6,0-3.1,0-4.7
		c2.7-1.4,5.8-0.7,8.6-1.1C-171,531.5-169.2,532.4-167.7,531.5z"/>
	<path class="st0" d="M38.4-3.2c5.2,5.7,10.3,11.4,15.6,17c6.2,6.7,12.5,13.2,18.8,19.9c0.8,0.9,1.5,1.6,1.6,2.7
		c-0.2,0.1-0.4,0.2-0.6,0.3c-6-3-10.2-7.9-14.5-13c-1.3-3.2-4-5.2-6.6-7.3c-1.9-2-4.4-3.5-5.8-6.1c-2.5-4.4-6.3-7.5-10.1-10.6
		c-0.8-0.9-1.3-1.9-0.4-3C37.1-3.2,37.7-3.2,38.4-3.2z"/>
	<path class="st0" d="M47.9,10.1c1.9,1.8,3.7,3.7,5.6,5.5c0.5,0.5,0.7,1.1,0.7,1.8c-0.1,0.5-0.3,0.9-0.7,1.1
		C45.6,12.1,39.6,3.9,32.6-3.3c1.2,0,2.6,0,3.8,0c0.4,0.9,0.7,2,1,2.9C41.4,2.8,44.8,6.2,47.9,10.1z"/>
	<path class="st0" d="M1090.7-3.2c-6.3,7.1-14.4,12.3-21.3,18.6c-1.9,1.8-4.1,3.3-6.2,5c-0.9,0.5-1,0-0.9-0.9
		c8.8-7.6,17.6-15.2,26.4-22.8C1089.4-3.2,1090-3.2,1090.7-3.2z"/>
	<path class="st0" d="M555.1,1003.6c-0.5-3.1,0.9-5.5,4.1-5.4c3.6,0.1,2.1,3.4,2.6,5.4C559.4,1003.6,557.3,1003.6,555.1,1003.6z"/>
	<path class="st0" d="M362-3.2c0.4,1.2,0.6,2.5,1,3.6c0.8,2-0.3,2.8-2,3.4c-2.2,0.8-1.7-1.3-2.2-2.2c-0.8-1.5-1-3.2-1.6-4.8
		C358.8-3.2,360.4-3.2,362-3.2z"/>
	<path class="st0" d="M-181.2,82.9c6.2,4.4,13.4,7.3,19.2,12.3c-7-2.4-12.5-7.5-19.2-10.4C-181.2,84.1-181.2,83.4-181.2,82.9z"/>
	<path class="st0" d="M-181.2,585.4c0.8-0.1,1.6,0,2.3-0.2c1.5-0.5,2.8-0.6,3.2,1.4c0.3,1.7-0.3,3.1-2.3,3.4c-1,0.2-2.2,0.1-3.2,0.1
		C-181.2,588.5-181.2,586.9-181.2,585.4z"/>
	<path class="st0" d="M258.9,1003.6c1-1.7,1.4-3.7,4.2-3.9c3.1-0.2,4.7,0.4,3.4,3.9C263.9,1003.6,261.3,1003.6,258.9,1003.6z"/>
	<path class="st0" d="M1181.6,51.6c-2.6,1.4-4.8,3.8-7.9,4.4c2.4-2.2,4.8-4.4,7.9-5.3C1181.6,51,1181.6,51.3,1181.6,51.6z"/>
	<path class="st0" d="M553.9,364c0.6-11.8,6.2-22,10.6-32.6c9.2-22.3,18.4-44.7,27.7-66.9c6.6-15.8,13.7-31.4,20.2-47.3
		c1.8-4.4,4.7-1.7,6.4-1.4c2.8,0.6,0.3,2.6-0.2,3.9c-12,28.9-24.1,57.8-36.2,86.7c-7.2,17-14.5,34-21.6,51.1
		c-1.3,3.2-3.6,5.9-5.6,8.5C553.5,366,553.7,365,553.9,364z"/>
	<path class="st0" d="M425.4,935.4c1.4-9.7,2.7-19.4,4.2-29.1c1.7-11.6,3.5-23.3,5.4-34.9c1.7-10.6,3.4-21.1,5.2-31.6
		c0.8-4.7,2.4-9.5,2.2-14.2c-0.2-6.7,3.5-10.1,9.5-13.2c-1,6.8-2.1,13.2-3.1,19.5c-3,18-6.1,36.1-9.1,54
		c-2.6,15.4-5.1,30.8-7.7,46.2c-0.2,1.3-0.6,2.7-1.8,3.7C428.5,936,427,936.4,425.4,935.4z"/>
	<path class="st0" d="M168.9,688.5c-2.9,2-5.1,4.6-7,7.6c-5.5,8.2-14.8,11.4-22.7,16.2c-25.6,15.4-51.5,30.5-77.2,45.6
		c-1.3,0.8-2.9,2.9-4.7,0.3c-1.6-2.5-0.8-3.9,1.6-5.2c33.5-20.2,66.9-40.3,100.4-60.6c2.9-1.8,6-3.4,8.9-5.1
		C168.8,687.4,169.4,687.6,168.9,688.5z"/>
	<path class="st0" d="M542.8,826.8c0.1,1.2,0.1,2.6,0.2,3.8c0.8,1.5-0.3,3.3,0.8,4.7c-0.2,7.4,1.2,14.6,2.1,21.8
		c0.7,1.5-0.3,3.2,0.8,4.7c0.1,1.2,0.1,2.6,0.2,3.8c0.8,1.5-0.3,3.3,0.8,4.7c0.1,1.2,0.1,2.6,0.2,3.8c0.8,1.5-0.3,3.3,0.8,4.7
		c0.1,1.2,0.1,2.6,0.2,3.8c0.8,1.5-0.3,3.3,0.8,4.8c0.2,2.9-0.3,5.9,0.6,8.8c0.5,1.7-4.1,6.3-5.8,6.1c-1.3-0.2-0.9-1.3-1.3-2.1
		c-1.2-3.3-0.6-6.7-1.1-10c-0.8-1.5,0.3-3.3-0.8-4.7c-1.5-12-3.2-23.9-4.6-36c-1.1-9.6-1.6-19.2-3-28.7c-0.7-4.3-0.5-8.7-1.5-13
		c-0.4-1.6-2.3-5.4,2.3-5.6c0.6,0.2,1.1,0.5,1.3,1c0.5,1.6,0.6-0.2,0.9-0.1c1.7,0.5,3.6,0.6,3.9,2.8c0.8,1.5-0.3,3.3,0.8,4.7
		c-0.4,3.9,0.5,7.6,1.1,11.4C542.8,823.5,541.7,825.3,542.8,826.8z"/>
	<path class="st0" d="M519,905.3c0,2-0.3,4.1,0,6.1c0.4,3-1.2,4.7-3.7,4.8c-3.6,0.3-1.1-3-2.1-4.5c-0.9-3.8,0.5-7.7-0.8-11.4
		c-0.1-3.5-0.1-6.9-0.2-10.4c-0.9-3.8,0.5-7.7-0.8-11.4c-0.1-3.8-0.2-7.6-0.3-11.4c-0.8-3.4,0.5-7-0.7-10.4
		c-0.1-3.8-0.2-7.6-0.3-11.4c-0.8-3.4,0.5-7-0.7-10.4c-0.1-3.8-0.2-7.6-0.3-11.4c-0.9-3.5,0.4-7-0.7-10.5c-0.1-3.8-0.2-7.5-0.3-11.3
		c-0.2-1.6-0.9-3.2,0.4-4.6c2.8,1.1,7.7,0.1,6.6,5.7c0.9,5-0.5,10.1,0.8,15.1c0.1,4.7,0.2,9.5,0.2,14.2c0.9,4.7-0.4,9.6,0.7,14.3
		c0.1,5,0.2,10,0.3,15c0.8,4.7-0.5,9.6,0.7,14.2c0.1,4.7,0.1,9.5,0.2,14.1C519.2,895.2,517.9,900.3,519,905.3z"/>
	<path class="st0" d="M355.4,642.8c1.9-2.8,3.3-6.2,5.6-8.6c9.3-9.7,18.2-19.6,27.8-28.9c6.8-6.5,13-13.6,19.5-20.4
		c0.9-1,1.9-2.2,3.1-2.8c1.1-0.7,2.9-0.7,2.5,1.3c-0.8,3.3-0.9,6.9-3.4,9.7c-15.3,16.3-30.6,32.6-45.9,48.8
		c-1.2,1.3-2.6,2.4-4.4,2.2C358.8,642.8,356.7,644.4,355.4,642.8z"/>
	<path class="st0" d="M136,674.3c1.2,0.1,2.5,0.1,4.2,0.2c-1.7,2.4-4.2,3-6.2,4c-23.3,11.5-46.7,23-69.9,34.5
		c-6.4,3.2-12.8,6.6-19.1,10c-2.4,1.3-2.7-0.3-3.7-1.8c-1.1-1.8-0.8-2.6,1.1-3.6c28.7-14.1,57.3-28.3,86-42.5
		c0.3-0.1,0.6-0.2,0.9-0.3C131.4,674.2,133.8,675.5,136,674.3z"/>
	<path class="st0" d="M74.4,36.4c9.1,8,16.7,17.6,25.2,26.2c5.5,5.6,10.6,11.6,16,17.3c13,13.7,26,27.4,39,41.2
		c1.1,1.2,2.9,2.5,1,4.3c-2.2,2.1-2.9-0.7-3.9-1.6c-11.6-12.5-23-25.4-34.9-37.6c-6.2-6.4-12.3-13.1-18.5-19.5
		c-9.7-10.3-19.9-20.1-28.9-31c0-1.8,0.9-0.9,1.7-0.6c1,0.5,1.4,2.2,3,1.5L74.4,36.4z"/>
	<path class="st0" d="M185,830.6c-0.1,1.8-1.2,2.5-2.1,3.3c-10.5,10.9-21,21.7-31.5,32.6c-1,1.1-2,2.5-3,3.6
		c-2.3,2.6-6.2,2.3-7.9-0.7c-0.9-1.5,0.5-2,1.1-2.6c10.3-10.8,19.9-22.2,30.7-32.5c2-1.9,3.6-4.4,5.4-6.4c0.9-1,2-1.8,3.3-0.9
		C182.4,828.2,183.7,829.5,185,830.6z"/>
	<path class="st0" d="M78.9,435c-0.3,3-2.6,1.7-3.9,1.6c-7.4-0.9-14.8-1.9-22.1-2.9c-9.9-1.4-20-3-29.9-4.5
		c-9.2-1.3-18.5-2.5-27.6-3.7c-1.5-0.2-2.3-1-2.2-2.6c0.1-1.5,1.3-2.2,2.6-2.1c2.8,0.2,5.6,0.6,8.4,0.9c22.2,3.1,44.5,6.2,66.8,9.3
		c2,0.3,4.1,0.1,6.2,0.2c1,0.7,3.3,0.5,2.1,2.8L79,434c-4.9,0.5-9.7-1.7-13.9-1.4C69.1,433,74.3,432.8,78.9,435z"/>
	<path class="st0" d="M115.1,845.5c-1.4-0.4-2.4-1.5-3.1-2.6c-0.9-1.3,0.7-1.9,1.3-2.6c11.9-10.7,23.9-21.4,35.9-32.1
		c2.4-2.1,4.4-4.4,6.6-6.7c1.3-1.2,2.5-3.2,4.5-0.9c1.5,1.8,1.9,3.2-0.2,5c-7.9,7-15.6,14.1-23.4,21.2c-6.1,5.5-12.1,11-18.2,16.4
		C117.6,844.2,116.8,845.5,115.1,845.5z"/>
	<path class="st0" d="M579.8,812.5c3.6,9.2,4.8,18.9,7.3,28.4c2.3,8.6,3.9,17.3,6.2,25.9c0.8,2.9-0.1,4.4-2.4,5.1
		c-3,0.9-2.3-2-2.6-3.5c-4.4-18.1-8.9-36.1-13.3-54.1C575.6,811.5,578.5,814,579.8,812.5z"/>
	<path class="st0" d="M785.3,715.5c-23-17.4-46-34.9-69-52.3c3.1-4.4,5.8-2.3,8.7,0c18.3,14.3,36.5,28.6,54.9,42.8
		C783.1,708.3,784.2,711.8,785.3,715.5z"/>
	<path class="st0" d="M1040.5,195.5c0.8,0.1,1.8,0.3,0.9,1.2s-2.3,1.4-3.5,2.2c1.6,1.6,3-1.6,4.4,0.2
		c-19.9,10.8-39.7,21.6-59.5,32.4c-4,2.2-7.9,4.4-12,6.5c-1.9,0.9-3.8,1.6-6-0.9C990.2,223.1,1015.4,209.3,1040.5,195.5z"/>
	<path class="st0" d="M4.3,382.9c8.7,2,16.9,3.8,25.1,5.6c18.3,4.1,36.5,8,54.8,12.2c1,0.2,3.4-0.9,2.7,1.9c-0.5,2-2,2.2-3.7,1.8
		c-25.7-6.2-51.8-11.5-77.7-16.9c-1.6-0.3-3.1-0.8-3.1-2.8C2.6,383,3.6,382.9,4.3,382.9z"/>
	<path class="st0" d="M238.9,904.3c6.9-11.2,13.7-22.3,20.7-33.4c3.6-5.7,3.7-5.6,10.8-3.9c-4.4,7-8.5,13.9-12.9,20.7
		c-3.2,5.2-6.8,10.1-9.8,15.4c-1.4,2.5-3.1,3.3-5.8,3C241.2,905,238.8,906.6,238.9,904.3z"/>
	<path class="st0" d="M291.8,770.9c8-11.3,16.1-22.6,24.3-33.8c2.4-3.1,5.1-0.2,8.5-0.1c-8.6,11.8-16.8,23.2-25.1,34.5
		C296.9,772.2,294.2,773.5,291.8,770.9z"/>
	<path class="st0" d="M235,857.7c-9,12.1-17.7,23.9-26.5,35.8c-1.4,2-2.3,4.4-5.7,4.1c-2.4-0.3-3.5-0.9-1.9-3.1
		c8.8-12.1,17.8-24.1,26.6-36.1C229.6,855.6,232,855.8,235,857.7z"/>
	<path class="st0" d="M725.3,717c6.2,5.6,12.3,11.3,18.8,17.2c-4.1,2.6-5.3,0.3-6.7-1c-15.2-15.2-30.5-30.7-45.7-45.9
		c-3.8-3.8-7.9-7.1-11.7-10.9c-0.9-0.9-3.5-1.6-1.6-3.4c1.5-1.5,2.8,0.3,3.9,1.3c11,10.9,21.9,21.9,32.7,32.7c1.4,1.4,3,2.7,4.5,4.1
		C722.4,712.3,724.3,714.3,725.3,717z"/>
	<path class="st0" d="M438.8,430.5c-10.4-10.9-21.2-21.4-31-32.7c-1.9-2.2-4.1-4-6.1-6c-13.3-13.9-26.7-27.9-39.9-42
		c-2.4-2.6-4.4-5.6-8-8.6c6.1,0.6,6.5,6.1,10.2,7.7c4.8,2.6,8,6.9,11.6,10.9c1.7,1.9,3.2,3.9,5.1,5.6c9,9.3,17.8,18.8,26.8,28.2
		c4.4,5.5,9.7,10.1,14.8,15.1c2,1.4,3.1,3.4,4.7,5.2c2,3.2,5,5.5,7.6,8.1c1.4,1,2.4,2.9,4.3,3.4c1.7,0.6-0.5,2.2,0.8,2.9
		C440.5,429.4,440,430.1,438.8,430.5z"/>
	<path class="st0" d="M437.7,415c0.2,1.1,1.4,2.2,0,3.8c-8.4-10.3-16.8-20.4-25.1-30.7c-8.6-10.6-17.1-21.4-25.7-32
		c-5.2-6.5-10.5-13.1-15.7-19.7c-0.1-0.2,0.2-0.8,0.4-1.1c2.6-0.9,3.6,1.1,4.9,2.6c7.6,9.2,14.6,18.7,22.4,27.6
		c0.3,0.3,0.6,0.7,0.8,1c0.9,1.4,2,2.6,3,3.9c0.3,0.3,0.5,0.7,0.8,0.9c0.7,1.2,1.6,2.3,2.7,3.1c0.5,0.4,0.9,0.9,1.1,1.4
		c0.6,1.3,1.5,2.4,2.6,3.2c0.5,0.4,0.9,0.9,1.1,1.4c0.6,1.3,1.5,2.5,2.6,3.3c0.5,0.4,0.9,0.9,1.1,1.4c0.6,1.3,1.4,2.5,2.6,3.3
		c0.5,0.4,0.9,0.9,1.1,1.4c0.6,1.3,1.4,2.4,2.6,3.2c0.5,0.4,0.9,0.9,1.1,1.4c0.7,1.7,2,2.9,3.2,4.3c0.3,0.3,0.5,0.7,0.8,0.9
		c0.8,1.2,1.7,2.3,2.8,3.1C432.3,406.9,436,410.2,437.7,415z"/>
	<path class="st0" d="M405.4,617.4c0.4,6.5-2.1,12.2-5.5,17.4c-2.6,4.1-5.7,7.9-8.5,11.7c-0.7,0.9-1.1,2.1-2.4,2
		c-2.2-0.1-5,1-6.2-0.8c-1.1-1.7,1.4-3.3,2.6-4.8c5.8-7.9,11.6-15.7,17.4-23.6C403.4,618.5,403.8,617.4,405.4,617.4z"/>
	<path class="st0" d="M615.6,702.8c-4.7-2.5-5.6-7.7-7.9-11.6c-8.2-13.9-15.9-28.2-23.7-42.4c-0.7-1.1-2.6-2.6-0.7-4.1
		c2-1.4,2.6,1,3.7,1.7c1,0.7,2.4,1,2.8,2.4c0.2,0.8,0.7,1.4,0.7,2.3c0.2,2.3,1.4,4,2.9,5.5c0.6,0.7,0.9,1.3,1.2,2.2
		c0.3,1.8,1.2,3.3,2.4,4.8c0.4,0.7,0.8,1.4,1.1,2.1c0.8,1.6,1.6,3.2,2.9,4.4c1,1,1.9,2.3,2.2,3.7c0.3,1.8,1.2,3.3,2.4,4.7
		c0.5,0.7,0.9,1.3,1.2,2.1c0.6,1.7,1.4,3.3,2.6,4.7c0.5,0.7,0.9,1.4,1.2,2.2c1,2.1,1.9,4.3,3.7,5.9c0.7,0.7,1,1.4,1.2,2.2
		c0.3,1.7,1.2,3.1,2.1,4.5c0.2,0.4,0.3,0.9,0.3,1.3C617.8,702.9,617.1,703.5,615.6,702.8z"/>
	<path class="st0" d="M720.7,710.4c-12.6-12.9-25.3-25.7-37.7-38.4c4,0.9,53.7,48.8,69.4,67c-2.2,1.5-2.9-0.7-4-1.6
		c-7.4-7.1-14.7-14.3-22-21.5C723.8,714.8,722,712.8,720.7,710.4z"/>
	<path class="st0" d="M16,664.8c11.1-7,22.1-13.2,34.4-16.9c4.4-1.3,4.9,1.9,6.4,4.3C47,657.3,19.7,665.9,16,664.8z"/>
	<path class="st0" d="M243.6,380c-1.9,4.1-4.3,0.9-6,0.2c-13.9-6-27.7-12-41.4-18.3c-14.2-6.4-28.3-13.1-42.4-19.7
		c-0.2-0.3-0.3-0.5-0.2-0.8c0.1-0.2,0.2-0.4,0.3-0.4c2.4,0.1,4.5,1,6.7,2.1c2.3,0.9,4.8,0.9,7.1,1.9c1.2,1,2.7,1.5,4.3,2.1
		c0.8,0.3,1.5,0.7,2.3,1c2,1,4,2.2,6.3,2.5c0.9,0.1,1.6,0.5,2.3,0.9c1.1,1.1,2.7,1.6,4.3,2.2c1.4,0.9,3.1,0.9,4.5,1.9
		c1.6,1.3,3.6,2.1,5.6,2.6c0.4,0.1,0.9,0.3,1.2,0.5c5.4,2.6,10.8,5,16.4,7.3c8.1,3.9,16.5,7.4,24.7,11.1c1.4,0.7,2.9,1.1,4.1,2.3
		C243.5,379.5,243.6,379.7,243.6,380z"/>
	<path class="st0" d="M426.3,414c-1.5-1.5-3-3-4.6-4.5c-4.3-5.9-10.3-10-14.6-16c-9-9.3-17.6-18.9-26.6-28.2
		c-5.2-5.9-11.1-11.2-15.6-17.6c-1.6-2.9-5.3-4.3-6.8-8.3c4.3,1.6,6.2,4.7,8.5,7.2c5.7,6.1,11.2,12.3,16.8,18.5
		c17.3,18.6,34.6,37.3,52,55.9c1.2,1.3,2.3,3,3.4,4.4c-2.7,1.2-3.3-1.5-4.7-2.6C431.9,419.4,428.5,417.2,426.3,414z"/>
	<path class="st0" d="M438.4,392.1c0.1,1.3,0.2,2.6,0.3,4c-0.3,0.1-0.6,0.2-0.9,0.3c-4.5-7.2-9.3-14.3-13.7-21.5
		c-9.8-15.7-19.6-31.5-29.3-47.2c-1.8-2.9-1.8-3,0.6-3.6c2.7,1.1,3.5,3.9,4.9,6.1c5.3,8.4,10.6,16.9,15.8,25.5
		c2.3,4.3,5.2,8.1,7.6,12.3c2.6,4,4.9,8.1,7.7,12c0.3,0.4,0.5,0.7,0.7,1c0.8,1.5,1.5,2.9,2.6,4.2C436.4,387.2,438,389.4,438.4,392.1
		z"/>
	<path class="st0" d="M699.9,724.5c-2.5,0.9-4.1-0.6-5.5-2.2c-7.8-9.1-15.5-18.2-23.4-27.3c-5.7-6.5-11.5-13-17.7-19.8
		c1.6-1.2,2.7-1,4-0.2c5.4,3,8.4,8.4,12.4,12.8c6.3,6.9,12.2,14.4,18.7,21.2c0.3,0.3,0.6,0.7,0.8,1c1.4,2.4,3.4,4.2,5.5,5.9
		c0.5,0.5,0.9,0.9,1.2,1.5c0.9,2.3,3.1,3.6,4.3,5.7C700.3,723.7,700.2,724.1,699.9,724.5z"/>
	<path class="st0" d="M440.5,376.2c0,1.4,0,2.7,0,4.2c-1.9,0.5-2-1-2.4-1.8c-10.3-19.9-20.5-39.7-30.7-59.6c-0.7-1.2-3.2-3,0-4.4
		c2.7,1.4,3.7,4.2,4.9,6.6c3.3,6.4,6.5,12.9,9.7,19.3c0.9,1.7,1.6,3.4,3.1,4.6c2.3,2.9,3.7,6.3,4.9,9.8c2.5,6.2,5.4,12,8.9,17.6
		C439.8,373.7,440.6,374.8,440.5,376.2z"/>
	<path class="st0" d="M437.7,415c-3.1-3.7-6.2-7.5-9.5-11.2c-0.8-1.4-2-2.6-2.8-4l0,0c-1-1.8-2.9-3-3.9-4.9
		c-0.3-0.2-0.5-0.5-0.8-0.7c-1-1.3-2.3-2.6-3-4.1c-0.2-0.2-0.5-0.5-0.7-0.7c-1.1-1.3-2.3-2.6-3.1-4.1c-0.2-0.2-0.5-0.5-0.7-0.7
		c-1.1-1.3-2.4-2.6-3.1-4.2c-0.1-0.3-0.3-0.5-0.6-0.6c-1.2-1.2-2.4-2.6-3.2-4.2c-0.1-0.3-0.3-0.5-0.6-0.6c-1.1-1.2-2.2-2.6-3.1-3.9
		l0,0c-1-1.8-2.7-3-3.8-4.7l0,0c-7.5-9-14.6-18.3-22-27.3c-1.2-1.5-4.1-2.7-2.5-5.7c7.3,6.5,12.5,14.9,18.6,22.3
		c14.6,17.9,28.7,36.1,43.1,54.1C437.4,411.6,439.1,412.9,437.7,415z"/>
	<path class="st0" d="M615.7,849.4c-0.4,1.2-0.8,2.6-2.4,2.4c-1.3-0.2-1.3-1.4-1.6-2.6c-4.4-13.8-8.9-27.6-13.5-41.4
		c-0.6-1.7,0.1-1.9,1.3-2.2c3.1-0.9,3.2,1.7,3.8,3.4c2,5.2,3.4,10.6,5.5,15.8c1.9,4.7,4.5,9.2,4.8,14.5
		C613.5,842.9,615.9,845.9,615.7,849.4z"/>
	<path class="st0" d="M709.2,287.9c-1.9,1.6-3.7,3.2-5.6,4.8c-1.6-2.6-0.2-3.9,1.1-5.2c9.7-9.7,19.3-19.4,29.1-28.9
		c2-1.9,4-4.5,7.4-4.4c1.5,3.9-2.6,4.7-3.9,7c-7.7,7.5-15,15.1-22.7,22.6C713.1,285.5,711.7,287.5,709.2,287.9z"/>
	<path class="st0" d="M-13.9,676.1c-6.7-0.4-12.7,2.3-18.3,5.3c-2.8,1.5-4.5,1-7.6-1.3c14.9-4.3,27.9-12.6,43.3-10.6
		c0.1,0.5,0.3,0.9,0.4,1.5c-4.4,1.5-8.7,3-13.1,4.5C-10.6,676.1-12.3,675.3-13.9,676.1z"/>
	<path class="st0" d="M438.4,392.1c-1.5-2.1-2.9-4.3-4.4-6.3c-1.1-1.5-1.6-3.4-2.8-4.8l0,0c-2.6-4.4-5.3-8.7-7.9-13
		c-2.5-4.2-5-8.3-7.7-12.4c-5.3-8.8-10.8-17.5-16.1-26.3c-1.2-2-2.7-3.8-3.1-6.2c1.4-3.2,2.1-0.7,2.8,0.5c5.7,9.2,11.5,18.4,17,27.6
		c7,11.5,14.1,23,20.9,34.6C438,387.5,441.1,389.4,438.4,392.1z"/>
	<path class="st0" d="M368.8,617.2c0.6-12.9,10.4-21.8,24.9-23C385.4,601.9,377.6,609.1,368.8,617.2z"/>
	<path class="st0" d="M447.1,349c-0.5,0.9-0.9,1.9-1.6,3.4c-1.2-3-2.5-5.7-3.4-8.3c-5.6-15.2-11.1-30.5-16.7-45.6
		c-0.7-1.8-1.2-3.3,0.8-4.4c2.3,1,2.7,3.3,3.5,5.3c2.2,5.9,4.2,11.7,6.5,17.6c3,8,5.2,16.5,9.6,23.9c0.9,1.4,1.3,3,1.4,4.6
		C447.4,346.7,446.5,347.8,447.1,349z"/>
	<path class="st0" d="M190.7,356.3c-1.2-0.7-2.9-0.3-3.8-1.8c-1.5-0.9-3.2-1.1-4.7-1.9c-0.4-0.8-1-0.9-1.8-0.9
		c-2.2-0.9-4.4-2-6.7-2.8c-0.8,0-1.4-0.2-1.9-0.9c-1.5-0.9-3.2-1.1-4.7-1.9c-2.5-0.4-4.7-0.9-6.6-2.7c6.8-0.7,12.4,3,18.2,5.5
		c21.6,9.4,43.1,18.8,64.6,28.1c2.5,1,3,1.7,0.4,3h0.1c-9.2-5-19.1-8.4-28.5-13.1c-6.1-2.6-11.9-5.3-18-7.9l0,0
		C195.2,358.2,192.9,357.3,190.7,356.3z"/>
	<path class="st0" d="M606.1,680.8c-0.3-0.6-0.6-1-0.9-1.6c-1-1.6-1.7-3.5-2.9-5c0.1-1.6-1.3-2.4-1.8-3.5c-1.1-1.5-1.6-3.5-3-4.9
		c-0.3-0.6-0.5-1.1-0.8-1.7c-1.1-1.6-1.7-3.4-2.9-4.9c0-0.8-0.1-1.3-0.9-1.7c-1.2-2.1-2.9-4-2.9-6.7c-0.1-0.6-1-1.2-0.1-1.9
		c5,4.4,7.1,10.6,10.3,16.1c7.5,12.5,14.6,25.3,21.8,37.9c-0.2,2.5-1.6,1.1-2.7,0.9l0,0c-1.3-0.5-1.3-1.9-2-2.8v0.1
		c-1.1-1.5-1.8-3.4-2.9-4.9c-0.2-0.6-0.5-1.1-0.7-1.6c-2-1.9-2.3-4.8-4.3-6.7c-0.2-0.6-0.5-1.1-0.7-1.6
		C608,684.2,607.2,682.4,606.1,680.8z"/>
	<path class="st0" d="M-86.3,702.1c-2.1,0.3-2.1-1.6-2.7-2.6c-0.9-1.6,0.3-2.1,1.7-2.6c7.4-2.6,14.8-5.1,22.1-7.7
		c1-0.4,2.2-1.2,2.9,0c0.7,1.1,0.3,2.5-0.7,3.4c-0.6,0.6-1.1,1.1-1.8,1.4C-71.7,697.5-79,699.8-86.3,702.1z"/>
	<path class="st0" d="M429.1,355.2c-1.3-3.1-2.4-6.4-4.4-9.2c-4.6-7.3-7.9-15.3-11.8-22.9c-1.7-3.2-3.3-6.4-5.4-9.4
		c1.9-3.3,2.7-0.9,3.6,0.7c6.1,11.8,12.1,23.7,18.2,35.5c3.7,7.1,7.4,14.1,11.1,21.3c0.8,1.5,2.4,3.2,0.2,5
		c-0.6-0.9-1.2-1.8-1.8-2.7C435.2,367.5,432.7,361.1,429.1,355.2z"/>
	<path class="st0" d="M699.9,724.5c0-0.3,0-0.6,0-0.9c-1.2-2.4-3.6-3.7-4.8-6c-0.3-0.3-0.5-0.5-0.8-0.8c-1.7-2.5-4.3-4.2-5.9-6.7
		l0,0c-7.5-8.6-14.8-17.3-22.4-25.7c-2.1-2.3-3.6-5.1-6.1-7.1c-0.7-0.6-1.6-1.4-0.6-2.4c0.7-0.6,1.7-0.6,2.5,0.3
		c14.5,16.7,28.9,33.5,43.4,50.3C702.7,727.1,701.5,725.2,699.9,724.5z"/>
	<path class="st0" d="M452.8,326.1c0.2,1.5-0.3,2.7-1.8,4.4c-2.2-7.4-4.2-14.5-6.2-21.5c-2.8-10-5.5-20.1-8.4-30
		c-0.4-1.3-0.1-2.1,0.6-2.9c3.1-1.2,2.8,1.5,3.3,2.9c2.6,8.4,5,17,7.4,25.6C449.2,311.8,452.5,318.6,452.8,326.1z"/>
	<path class="st0" d="M446.3,345.9c-0.3-1.6-0.7-3.1-0.9-4.7c-3-4.1-4-9-5.8-13.6c-1.4-3.6-2.7-7.3-4.1-11
		c-2.6-7.9-6.2-15.4-8.1-23.7c0.3-0.7,0.5-1.7,0.9-2c1.2-0.6,1.5,0.7,1.8,1.4c5.9,16.4,11.8,32.8,17.6,49.2c0.5,1.2,0.3,2.7,0.4,4.2
		C447.5,346.5,446.8,346.5,446.3,345.9z"/>
	<path class="st0" d="M124.5,361.1c-0.7,1.5-1.9,2.1-3.4,1.5c-16.3-6-32.6-11.9-48.9-17.9c1-1.3,2.4-1.5,3.9-1.5
		c2-0.1,3.7,1.4,5.7,0.9c0.9-0.1,1.8,0,2.6,0.6c4.9,3.4,10.8,4.4,16.2,6.4c6.2,2.5,12.4,4.7,18.7,6.6
		C121.1,358.7,123.5,358.8,124.5,361.1z"/>
	<path class="st0" d="M437.8,273.9c-0.1-1.6,0.9-2.6,2.5-3.8c2,6.9,4,13.5,5.9,20.2c2.6,9.1,5,18.3,7.7,27.3c0.7,2.2,0.8,4.3,0,6.3
		c-2.6-1.4-2.4-4.3-3.1-6.5c-1.3-4.1-2.1-8.3-3.8-12.3C444.2,294.7,441.6,284.2,437.8,273.9z"/>
	<path class="st0" d="M612.8,839.9c-0.9-4.9-2.8-9.6-4.7-14.2c-1.5-5.7-3.7-11.3-5.4-16.8c-0.5-1.7-1.3-3.2-0.4-4.9
		c1.5-1.4,2.3-0.3,2.6,0.9c4.4,13.8,8.8,27.6,13.2,41.4c0.3,0.9,0,1.5-0.7,2.1c-1.3,0.9-2,0.3-2.4-1
		C614.4,844.9,613.4,842.5,612.8,839.9z"/>
	<path class="st0" d="M809.6,731.9c9.4,2.1,15,9.8,22.5,14.8c2.6,1.7,4.9,3.8,7.9,6.2c-3.1,0.5-5.4,0.5-7.5-1
		c-8.1-6.2-16.2-12.5-24.3-18.8C808.4,732.1,808.8,731.8,809.6,731.9z"/>
	<path class="st0" d="M583.6,248.3c0.1-1.8,0.2-3.6,0.3-5.4c0.2-4,2.3-7.5,3.2-11.3c1.6-4.8,3.2-9.7,4.8-14.6
		c0.6-1.7,0.9-3.7,2.9-4.4c3.3-0.3,2.7,1.3,2,3.5c-3.7,10.7-7.3,21.4-10.9,32.1c-0.4,1-0.5,2.1-0.7,3.2
		C582.7,251.4,584.7,249,583.6,248.3z"/>
	<path class="st0" d="M1005.4,338.3c-10.4,3.2-20.7,6.4-31.1,9.6c-1.7-0.2-3.9,0.9-4.7-1.7c10.6-3.4,21.1-7.1,32-9.7
		C1003.5,335.9,1005.1,335.8,1005.4,338.3z"/>
	<path class="st0" d="M599.7,344.8c-1.2,0.1-3.4,0.9-1.7-1.7c5.4-8.1,10.9-16.3,16.5-24.4c1.1-1.6,2.1-1.1,2.3,0.8
		c1,3.2-0.6,5.9-2.3,8.2c-3.3,4.5-6.4,9.2-9.5,13.9C603.5,343.5,602,344.7,599.7,344.8z"/>
	<path class="st0" d="M778.4,679.1c-14.5-9.5-29-18.9-43.3-28.4c0.3-0.5,0.7-0.9,0.9-1.4c15,8.7,29,18.8,43.6,28
		C779.2,677.9,778.8,678.5,778.4,679.1z"/>
	<path class="st0" d="M743.4,256c3.3-0.2,2.1,1.1,0.8,2.5c-6.7,6.7-13.3,13.3-20.2,20c-3.6,3.5-6.6,7.7-11.9,8.7
		c-0.4-0.7-0.1-1.2,0.4-1.7c8.1-8.1,16-16.6,24.6-24.2C739.2,259.6,740.7,257.1,743.4,256z"/>
	<path class="st0" d="M582.6,239.9c-1.3-1.7-0.8-3.4-0.2-5.3c2.4-7.3,4.5-14.6,6.8-21.9c4.4-0.9,4.7-0.6,3.5,3.4
		c-1.6,5.3-3.7,10.5-5.1,15.8c-1.2,2.5-1.8,5.1-2.7,7.8C584.1,241.7,583.5,241.3,582.6,239.9z"/>
	<path class="st0" d="M549.4,682.7c0,1.4-0.1,2.9-1.6,2.6c-2-0.5-4.7-0.3-5.5-2.8c-0.9-2.9-1.5-6.1-1.9-9.2
		c-0.3-2.6,2.3-2.7,3.8-3.4c1.9-0.9,2.2,0.7,2.6,2.2C547.4,675.8,548.5,679.4,549.4,682.7z"/>
	<path class="st0" d="M739.7,646.5c13.5,8.8,27,17.7,40.5,26.5c-0.4,0.6-0.7,1-1,1.6c-13.7-8.4-26.9-17.9-40.6-26.4
		C739,647.5,739.3,647.1,739.7,646.5z"/>
	<path class="st0" d="M336.5,754.7c-1.9,2.7-4.6,4.4-8.9,6.3c4.7-7.5,8.8-13.8,12.8-20.2c1.2-2,2.9-1.2,4.6-0.9
		c1.6,2.1,0.1,3.9-0.8,5.5C342.3,749,339.3,751.9,336.5,754.7z"/>
	<path class="st0" d="M83.9,345.1c-0.9,0-1.9,0-2.8-0.1c-1.1-0.8-3.4-0.3-2.7-2.7c5.4,0.3,10.2,2.7,15.1,4.4
		c11.1,3.7,22,7.7,33.1,11.5c0.8,0.3,1.5,0.4,1.8,1.3c-0.9,1-2,0.4-3,0.6c-2-0.5-4-0.9-6-1.6c-10.7-3.9-21.4-7.6-32-11.4
		C86.2,346.6,84.7,346.5,83.9,345.1z"/>
	<path class="st0" d="M262.8,743.4c2.4-1.3,4.8-2.3,7.9-2.7c-1.4,4-4.6,6.2-7.2,8.9c-3.1,3.3-6.5,6.4-9.6,9.7
		c-1.9,2.1-3.5,2.2-5.3,0.1c0-0.2,0.1-0.5,0.1-0.7C252.8,753.2,258.6,749.1,262.8,743.4z"/>
	<path class="st0" d="M892.9,753.1c-11.5-7.4-22.9-14.7-34.4-22c-0.9-0.6-1.9-1.1-1.9-2.4c0-0.2,1.4-0.3,2.2-0.5
		c1.1,0.6,2.6,0.5,3.6,1.4c8.4,5.3,16.5,11.2,25.2,15.9c2.7,2.4,6.8,3,8.5,6.7C895.4,753.7,894.2,753.3,892.9,753.1z"/>
	<path class="st0" d="M562.7,687.4c-3.1,0.9-3.7-1.5-4.4-3.6c-1.7-4.6-3-9.4-4.9-14c-1.3-3.2-0.8-5.1,2.7-6c3.4,2.2,2.9,6.1,4,9.2
		c0.1,4.4,2.4,8.1,3.2,12.3C563.3,686.2,563.2,686.8,562.7,687.4z"/>
	<path class="st0" d="M599.7,344.8c0.8-0.5,2-0.7,2.4-1.3c4.8-8,12-14.7,14.7-24c2.6,2.6,2.3,5.2,0.1,8c-3.2,4.3-6,8.7-8.9,13.2
		C605.8,343.6,603.3,345.4,599.7,344.8z"/>
	<path class="st0" d="M822.9,622.1c1.1,0.7,2.4,1.3,3.5,1.9c-0.2,0.4-0.4,0.9-0.6,1.2c-14.6-5.6-29.1-11.3-43.6-16.8
		c0.2-0.5,0.4-0.9,0.6-1.5c11.2,4.2,22.3,8.2,33.4,12.4C818.5,620.3,821.5,619.3,822.9,622.1z"/>
	<path class="st0" d="M-68.6,836c-0.4-6.3,3-11,8.6-12c1.6-0.3,2.6,0.3,3.3,1.8c0.9,1.9,0.1,3-1.3,3.9
		C-61.5,831.8-65,833.9-68.6,836z"/>
	<path class="st0" d="M-137.9,402.7c-0.5,2.1-1.7,3.6-3.5,3.5c-4-0.4-7.9-1.2-11.9-1.9c-0.9-0.2-2.1-0.4-1.6-1.7
		c0.4-0.9,0.3-2.6,1.6-2.6c5-0.3,9.9,0.9,14.9,1.9C-138.3,402-138.1,402.5-137.9,402.7z"/>
	<path class="st0" d="M476.4,217.2c0.4-0.1,0.7-0.1,1-0.2c1.3,0,1.6,1,1.9,2c0.3,2,0.1,4.1,0.9,6c0.3,1,0.4,2.1,0.4,3.1
		c-0.7,5.9,1.8,11.6,0.7,17.5c-1,1.1-0.7,3.1-2.7,4.2c-1.6-9.4-1.7-18.6-2.4-27.9C476,220.3,475.8,218.8,476.4,217.2z"/>
	<path class="st0" d="M248.5,759.5c-4.2-1.3-4.4-3.1-1.1-6c4.4-3.9,7.7-9.3,14.3-10c1.3,2.3-0.9,3-1.8,4.2
		C256.1,751.6,251.8,755.1,248.5,759.5L248.5,759.5z"/>
	<path class="st0" d="M483.9,243.7c-0.3,0.3-0.6,0.6-0.9,0.9c-2.7-0.4-2-2.7-2.3-4.3c-0.8-4.1-0.3-8.3-0.9-12.5
		c0-3.1-0.7-6.2-0.7-9.3c0-1,0.1-1.8,1.1-2.3c2.8,0.1,2.6,2.3,2.6,4.1c0.5,6.2,0.9,12.5,1.3,18.7
		C484.5,240.6,485.1,242.2,483.9,243.7z"/>
	<path class="st0" d="M28.2,156c6.4,4.5,11.9,8.4,17.4,12.4c0.8,0.6,2.3,1,1.5,2.5c-0.8,1.4-2.6,1.3-3.3,0.7
		C38.5,167,31.1,164.7,28.2,156z"/>
	<path class="st0" d="M558.9,673.4c-0.9-3.2-1.9-6.3-2.8-9.6c2.5-2.3,2.9,0.2,3.4,1.6c2.1,6.4,3.9,12.9,6.2,19.2
		c1.4,3.9-0.4,3.5-2.9,2.6c0-0.6,0-1.1,0-1.7C561.5,681.5,560,677.5,558.9,673.4z"/>
	<path class="st0" d="M818.1,618.6c-11.2-4.4-22.3-8.9-33.9-13.5c2.6-1.5,4.3-0.2,5.8,0.5c10.5,4.2,20.9,8.4,31.3,12.8
		c1.3,0.6,2.6,1.1,3.6,2.1c0.7,0.7-0.4,0.8-0.9,0.9C821.9,620.5,819.5,620.8,818.1,618.6z"/>
	<path class="st0" d="M497.5,227.8c0-3.6,0.1-7,0-10.4c-0.1-2.3,0.9-2.9,3-2.9c2.2,0,2.6,1,2.6,2.9
		C503.2,221.7,503.6,226.1,497.5,227.8z"/>
	<path class="st0" d="M359.1,392.5c-0.9-0.7-1.7-1.3-1.2-3.2c11.5,8.1,22.6,16.1,34,24.2c-1.5,0.9-2.6,0.8-3.5-0.2
		c-7.8-3.7-14.1-9.6-21.2-14.2C364.4,397,361.2,395.3,359.1,392.5z"/>
	<path class="st0" d="M661.9,675.4c-1.7-0.2-3.2-0.4-1.1,1.9c6.5,7.4,13.1,14.8,19.4,22.4c2.8,3.4,6.5,6.2,8.3,10.6
		c-7-5.7-12-13.2-18.1-19.7c-4.6-4.9-8.7-10.2-13.1-15.4C658.9,674.6,660.5,673.4,661.9,675.4z"/>
	<path class="st0" d="M386.4,414c-4.4,0-7.2-3.4-10.4-5.5c-5.9-3.9-11.4-8.3-17-12.5c-0.5-2.6,0.9-2.3,2.3-1.4
		c2,1.2,3.8,2.6,5.7,3.9c5.9,4.4,11.9,8.3,17.7,12.8C385.6,411.9,387.1,412.3,386.4,414z"/>
	<path class="st0" d="M336.5,754.7c0.3-3.4,3.6-4.8,5.2-7.4c1.4-2.4,3.2-4.5,3.3-7.4c5.2,0.1,5.2,0.2,2.7,4.6
		C345.2,749.3,342.1,753.3,336.5,754.7z"/>
	<path class="st0" d="M895.8,751.9c-2.7-1.9-5.5-3.8-8.3-5.7c-8.5-5.3-16.8-10.9-25.2-16.4c-0.9-0.7-2.1-1.1-1.6-2.6
		c6.2,2.3,11.2,6.7,16.7,10.2c6.6,4.2,13.2,8.4,19.6,12.8c0.7,0.4,3.4,0.9,0.7,2.6C897.1,752.3,896.1,752.7,895.8,751.9z"/>
	<path class="st0" d="M969.7,346.1c1.6,0.6,3.1,1.1,4.7,1.7c-5.8,1.8-11.5,3.7-17.2,5.5c-0.6-0.5-1.5-0.2-2.1-0.8
		c-0.1-0.4-0.1-0.8,0.3-0.9c0.6-2.6,3.1-2.2,4.8-2.7C963.3,347.8,966.5,347.1,969.7,346.1z"/>
	<path class="st0" d="M1061.4,924.2c-0.3,0.3-0.7,0.6-0.9,0.9c-11.5-8.8-22.8-17.5-34.3-26.3c0.6-0.4,1.2-0.7,1.8-1
		c7.3,7.2,15.9,12.6,23.8,18.9C1055,919,1058.2,921.6,1061.4,924.2z"/>
	<path class="st0" d="M396.2,323c7.1,10.5,13.6,21.3,19.9,32.3c0.5,1,0,1.1-0.9,0.9c-6.6-10.7-13.2-21.5-19.9-32.2
		C395.5,323.8,395.9,323.4,396.2,323z"/>
	<path class="st0" d="M757.5,273.1c2.1-1.8,4.2-3.7,6.3-5.5c2.4-2,4.8-2.5,7.6,0.2c-2.5,2.1-4.8,4.3-7.2,6.3
		C761.9,274.1,759.3,275.8,757.5,273.1z"/>
	<path class="st0" d="M273.8,250.4c-0.3,0.4-0.6,0.8-0.9,1.1c-4.3-1.2-6.4-4.9-8.9-8c-1.1-1.5-2.6-2.7-3.9-4.2c-2.6-3.3-7-5-7.9-9.7
		c0.6-0.7,1.2-1.2,1.8-1.9c4.5,5.5,10,10.1,14.7,15.6C270.5,245.6,273.6,247,273.8,250.4z"/>
	<path class="st0" d="M374.6,333.7c0,2.6,2.1,4.1,3.5,5.9c6.6,8.3,13.3,16.7,20.1,25c0.5,0.6,0.6,1.4,0.9,2.1
		c-6.4-5.5-10.7-13-16.3-19.1c-3.8-4.1-6-9.6-11.2-12.3C372.5,334.8,373.6,334.3,374.6,333.7z"/>
	<path class="st0" d="M737.7,261.6c-8.5,8.5-17.5,16.6-25.6,25.6c-0.8,1.1-1.4,2.7-2.9,0.8c8.9-9.4,18.1-18.5,27.5-27.3
		C737.6,260.5,737.9,260.8,737.7,261.6z"/>
	<path class="st0" d="M213.4,388.4c6.2,2.2,12.3,4.4,18.4,6.5c0.8,0.3,1.6,0.6,1.2,1.6c-0.3,0.8-0.9,1.1-1.8,0.8
		c-5.8-2.2-11.6-4.4-17.5-6.5c-0.5-0.2-0.7-0.9-1-1.4C212.9,389.1,213.1,388.7,213.4,388.4z"/>
	<path class="st0" d="M74.3,36.5c-0.1,1.3-0.5,1.4-1.6,0.8c-0.9-0.6-1.2-2.7-3.1-1.7c-6.2-4.9-11.1-11-16.1-17
		c0-0.4,0.1-0.8,0.1-1.1c3.1,0.9,4.6,3.6,6.5,5.9C64.2,28.4,69.2,32.4,74.3,36.5z"/>
	<path class="st0" d="M407.5,313.7c1.1,0.6,2.1,1.5,2.6,2.6c4.9,9.8,9.7,19.8,14.7,29.6c-1.7-0.3-2-1.8-2.6-3
		c-4.9-9.5-9.7-18.9-14.7-28.4C407.4,314.2,407.5,314,407.5,313.7z"/>
	<path class="st0" d="M1061.3,715c5.8,2,11.6,3.9,17.5,5.9c-0.8,2.5-2.5,2.6-4.3,2.6c-1.3-1.3-3-2-4.8-2.5c-1.6-0.7-3-1.5-4.7-1.9
		c-1.7-0.7-3.2-1.5-5-2c-0.8-0.5-1.9-0.8-1.4-1.9C1059.3,714,1060.3,714.4,1061.3,715z"/>
	<path class="st0" d="M365,347.7c5.9,5.2,10.8,11.3,16.1,17.1c0.3,0.9-0.1,1.2-0.9,1c-5.4-5.7-10.7-11.4-16.1-17
		C364.2,348.4,364.6,348,365,347.7z"/>
	<path class="st0" d="M273.8,250.4c-1.1-2.8-4.2-4-5.4-6.6c0.2-0.4,0.5-0.7,0.9-0.9c5.5,5.8,11.1,11.5,16.6,17.3
		c-0.3,0.3-0.6,0.6-0.9,0.9C280.7,258,277.3,254.2,273.8,250.4z"/>
	<path class="st0" d="M213.5,393c6.5,2.6,12.4,3.7,18.2,6.8C227.1,401.2,216.2,397.2,213.5,393z"/>
	<path class="st0" d="M437.8,273.9c0.5,0.4,1.2,0.8,1.3,1.2c2.9,9.9,6.2,19.8,8.1,30.1c-0.3,0.4-0.6,0.4-0.9,0
		c-2.6-9.3-5.2-18.6-7.8-27.9c-0.3-0.9-0.9-1.2-1.7-1.2C437.2,275.4,437.5,274.7,437.8,273.9z"/>
	<path class="st0" d="M386.4,414c-4.4-4.7-10.2-7.7-15.3-11.5c-1.5-1.1-2.9-2.4-4.4-3.5c0.2-0.4,0.5-0.7,0.9-0.9
		c7,4.9,14.2,9.5,20.7,15C387.7,413.5,387,413.7,386.4,414z"/>
	<path class="st0" d="M427.3,292.9c3.3,7.7,6.2,15.6,8.6,23.6c0.5,1-0.1,1.1-0.9,1c-2.9-7.9-6-15.6-8.9-23.5
		C426.5,293.6,427,293.2,427.3,292.9z"/>
	<path class="st0" d="M1061.3,715c-0.7,0.1-1.6-0.4-2,0.5c-0.1,0.2,0.8,0.9,1.1,1.2c0.3,0.2,0.4,0.5,0.3,0.7s-0.2,0.3-0.4,0.3
		c-3.5-0.5-6.2-2.8-9.5-3.8c-0.7-0.9-0.9-1.7,0-2.6C1054.9,711.1,1058.1,712.9,1061.3,715z"/>
	<path class="st0" d="M269.3,242.8c-0.3,0.3-0.6,0.6-0.9,0.9c-4.8-5.3-10.7-9.7-14.3-16.1C259.7,232.1,264.5,237.5,269.3,242.8z"/>
	<path class="st0" d="M827.6,487c-6.1,1.8-12,0.9-18.1,0.7c0-0.6,0-1,0-1.6c5.4,0,10.8,0,16.3,0C826.3,486.7,827.2,486.3,827.6,487z
		"/>
	<path class="st0" d="M212.6,453.6c1.5,0.1,2.9,0.2,4.4,0.3c0.9,0.4,1.7,0.9,1.4,2.1c-0.3,1.2-1.1,1.2-2.2,0.9
		c-2.4-0.3-4.7-0.4-7-0.9c-1-0.3-3.1,0.3-3.1-1.3c0-1.9,1.9-1.6,3.3-1.8C210.4,453.7,211.7,452.9,212.6,453.6z"/>
	<path class="st0" d="M264.5,242.8c2.8,2.8,5.7,5.8,8.5,8.6c0.9,1.2,1.8,2.5,2.6,3.7c-0.1,0.4-0.3,0.7-0.7,0.9
		c-4.3-3.7-8.7-7.1-11.5-12.2C263.2,242.8,263.7,242.7,264.5,242.8z"/>
	<path class="st0" d="M1145.5,607.1c2.3,0.3,4.5,0.7,6.9,0.9c2.4,1.1,4.7,2.1,7.3,0.9c0.7,1.3,0.7,1.3-1.8,2.6
		c-1.8,1.3-3.1,0.1-4.6-0.7c-0.7,0.3-1.3,0.6-2.1,0.9c-2.5-1.7-5.7-1-8.2-2.4c-0.7-0.6-0.5-1.1,0-1.7
		C1143.7,607.2,1144.7,607.6,1145.5,607.1z"/>
	<path class="st0" d="M815.2,484.1c7.4-1.8,14.8-0.5,22.1-0.2c-3.1,1.7-6.6,0.9-9.9,1C823.5,483.8,819.3,485.3,815.2,484.1z"/>
	<path class="st0" d="M498.5,114.1c1.2,0.6,2.7,0.9,3.6,1.9c2.1,2.1,0.4,5.2-3,6C496.7,119.5,497.7,116.7,498.5,114.1z"/>
	<path class="st0" d="M480.2,227.7c1.6,3.2,0.8,6.7,1,10.1c0.2,2.5-0.2,4.9,1.9,6.9c-0.3,0.9-1,0.9-1.8,1c-1.7-5.9-2.1-11.9-1.8-18
		C479.8,227.2,480,227.2,480.2,227.7z"/>
	<path class="st0" d="M587.2,232.4c0.9-5.7,3.3-11,5-16.4c1.1-3.5-0.2-3.8-3-3.3c1.8-2.4,3.8-0.9,5.7-0.1
		c-2.3,6.6-4.5,13.2-6.8,19.8C587.8,232.8,587.4,232.8,587.2,232.4z"/>
	<path class="st0" d="M361.9,409.5c-0.8-0.6-1.9-1-1.5-2.1c0.6-1.4,1.6-0.4,2.3,0c3.2,1.9,6.3,3.9,9.4,5.9c0.6,0.4,2.2,0.5,1.3,1.8
		c-0.9,1.3-1.9,0-2.8-0.4C367.1,414,364.4,412,361.9,409.5z"/>
	<path class="st0" d="M798.2,689.9c-0.2,0.4-0.3,0.9-0.7,1c-0.3,0.2-0.9,0-1.3-0.2c-2.8-1.9-5.7-3.8-8.5-5.7c-0.5-0.4-0.9-1-0.5-1.6
		c0.2-0.3,0.9-0.4,1.2-0.2c3.1,1.9,6.2,3.8,9.2,5.8C797.9,689.2,798,689.6,798.2,689.9z"/>
	<path class="st0" d="M248.5,759.5c2.1-4.9,6.8-7.6,10-11.6c1.1-1.4,3.1-2.3,3.2-4.4c0.4,0,0.8,0,1.1,0c0.3,2.2-1.3,3.4-2.6,4.6
		C256.2,751.9,252.9,756.3,248.5,759.5z"/>
	<path class="st0" d="M602.3,803.9c0.4,5.3,2.9,10,4.3,15.1c0.6,2.2,1.8,4.4,1.4,6.7c-2.7-5.1-3.8-10.8-5.9-16.1
		c-0.6-1.4-0.3-3.6-2.6-3.9C600.4,805.2,601.4,804.5,602.3,803.9z"/>
	<path class="st0" d="M786.8,465.8c5.5-0.6,10.9-1,16.4-1.6c-5.3,2-10.8,2.6-16.3,2.8C786.8,466.7,786.8,466.2,786.8,465.8z"/>
	<path class="st0" d="M1029.3,441.6c-1.1,1.1-2.6,0.8-4.1,0.7c-2.8-0.5-5.6-1-8.1,0.9c-0.4,0-0.9,0.1-1.2,0.1c-0.9-0.9-2.3,0.1-3-1
		c0-0.5,0.1-0.9,0.5-1.2c1.5-0.9,3.1-0.9,4.8-0.9c1.4-0.1,2.9,0.2,4.4-0.3c1.7-0.1,3.4-0.7,5.1-0.7c1.7,0.2,3.4-0.3,5.1,0.1
		c0.8,0.7,0.6,1.1-0.2,1.6c-1.1,0.2-2.4,0-3.4,0.2C1028.3,441.2,1029.5,441.3,1029.3,441.6z"/>
	<path class="st0" d="M252.3,229.6c2.8,3.1,5.7,6.2,8.5,9.5c0.2,0.9-0.1,1.3-1,1c-3.2-2.6-6.2-5.5-8.4-9.1
		C250.2,229.3,251.5,229.7,252.3,229.6z"/>
	<path class="st0" d="M261.8,353c4.3-0.3,6.4,2.8,9.5,4.2c0.6,0.3,0.9,1,0.2,1.5c-0.5,0.3-1.4,0.5-1.7,0.2
		C267.4,356.8,263.8,356.3,261.8,353z"/>
	<path class="st0" d="M446.4,305.3c0.3,0,0.6,0,0.9,0c2.5,4.4,2.8,9.5,4.5,14.2c0.6,1.6,0.7,3.4,2,4.6c-0.3,0.7-0.7,1.3-0.9,2
		C450.6,319.2,448.5,312.2,446.4,305.3z"/>
	<path class="st0" d="M211.5,452.1c-1.1-0.7-3.5,0.5-3.3-1.5c0.2-2,2.2-0.9,3.5-0.7c2.3,0.3,4.7-0.3,6.7,1.5
		c-0.7,2.3-2.6,0.9-3.9,1.4C213.7,452,212.4,452.8,211.5,452.1z"/>
	<path class="st0" d="M277.1,217.9c-1.3-2-4.7-2.6-3.5-5.8c0.3-0.8,1.6-1.7,2.7-0.9C278.6,213.1,278.9,215.2,277.1,217.9z"/>
	<path class="st0" d="M932.7,357.4c4-1.8,8-2.9,12.3-3.7c0.3,0.4,0.4,0.8,0.4,1.2c-1.1,2.3-3.8,1.8-5.5,3c-1.9,0.9-3.8,2-6.1,1.5
		C933,359,932.3,358.4,932.7,357.4z"/>
	<path class="st0" d="M-69.6,87.8C-65.4,91.1-60,93-57.2,98c-0.9,1.2-1.9,1.2-2.8,0.1c2.2-0.3,1.4-1,0.3-1.8
		c-3.6-2.6-7.1-5.2-10.7-7.8C-70.2,88.1-70,87.9-69.6,87.8z"/>
	<path class="st0" d="M749.1,470c5-1.7,10.2-1.1,15.3-2.1c0.1,0.5,0.1,0.9,0.2,1.4c-5.2,0.5-10.3,0.9-15.5,1.3
		c-0.3-0.2-0.4-0.3-0.3-0.5C748.9,470.1,749,470,749.1,470z"/>
	<path class="st0" d="M719.8,488.8c7.6-0.1,15.1-0.1,22.6-0.2c0.9-0.4,1.8-0.3,2.6-0.1c0.3,0.3,0.4,0.5,0.3,0.8
		c-0.1,0.3-0.2,0.4-0.2,0.4c-7.3,0.1-14.6,0.2-21.8,0.3C722.1,489.9,720.3,491.5,719.8,488.8z"/>
	<path class="st0" d="M945,354.6c0-0.3,0-0.6,0-0.9c3.4-0.9,6.5-3.4,10.4-2.1c0,0.3,0,0.7,0,0.9c-0.1,0.6-0.7,0.7-0.9,1
		c-0.9,1.5-2.5,0.7-3.7,0.9c-0.7,0.4-1.4,0.7-2.2,0.9C947.3,355.4,946,355.6,945,354.6z"/>
	<path class="st0" d="M839.9,461.4c-4.6,1.7-9.7,0.9-14.3,2.1c-0.1-0.5-0.1-1-0.2-1.5c4.8-0.5,9.7-0.9,14.5-1.3
		c0.3,0.2,0.5,0.4,0.3,0.6C840.1,461.3,840,461.4,839.9,461.4z"/>
	<path class="st0" d="M1142.8,608.8c2.6,1.6,6.5-0.5,8.4,3c-4.8-0.9-9.9-0.5-14.1-3.8C1139.2,606.5,1141.1,607.1,1142.8,608.8z"/>
	<path class="st0" d="M767,465.1c-5,0.5-10,1-15,1.5c-0.6-0.4-0.7-0.9-0.1-1.3c4.4-0.4,8.7-0.8,13.2-1.1
		C766.1,463.8,767.1,463.3,767,465.1z"/>
	<path class="st0" d="M797.1,686.3c-3.1-2-6.2-4-9.4-6.1c4.5-0.2,7,2.7,10.2,4.6C797.6,685.4,797.3,685.9,797.1,686.3z"/>
	<path class="st0" d="M573.1,118.7c0.6-1.5-0.9-4.3,2-4.2c2.1,0.1,4.2,1.3,3.7,4.2C576.8,119.6,575,119.6,573.1,118.7z"/>
	<path class="st0" d="M369.3,416.8c-3.3,0.1-5.6-2.2-8.1-3.8c-0.7-0.7-0.7-1.5,0-1.9C363.6,409.8,369.3,413.8,369.3,416.8z"/>
	<path class="st0" d="M-127.1,355.4c-0.2,1.3,0.1,2.8-2.1,2.8c-2,0-4.2-0.1-5.7-1.3c-0.9-0.7,0.8-2.1,1.3-3.1
		C-131.3,353.9-129.3,354.8-127.1,355.4z"/>
	<path class="st0" d="M1041.4,437.6c1.8-1.3,3.8-1,5.8-0.5c0.1,0,0.1,1.2-0.2,1.7c-1.2,2.4-3.5,1.5-5.5,1.7c-0.8,0.1-1.5-0.2-2-0.9
		c0.4-0.5,0.9-0.9,1.4-1C1041.2,438.3,1041.4,438,1041.4,437.6z"/>
	<path class="st0" d="M369.3,416.8c-1.1-3.6-4.5-4.1-7.3-5.4c-0.9-0.5-0.9,0.9-0.9,1.6c-2.4-1.8-0.1-2.6,0.8-3.6
		c3.2,1.1,6.1,3,8.7,5.2C370.6,415.6,370.5,416.5,369.3,416.8z"/>
	<path class="st0" d="M780.3,462.3c4.1-0.4,8.1-0.7,12.2-1c1-0.2,2.5-1.4,2.8,0.9c-4.6,0.4-9.4,0.8-14,1.1
		C780.3,463.7,780.1,463.3,780.3,462.3z"/>
	<path class="st0" d="M1031.9,440.6c0.3-0.4,0.7-0.7,0.9-1c-0.5-0.7-1.5-0.2-2-0.9c1.8-1.4,3.9-0.8,5.9-0.8c0.5,0.4,1,0.5,1.3,1.1
		c0.1,0.6,0,1.1-0.5,1.6c-1.7,1.6-3.8,0.9-5.7,0.9c-0.3-0.2-0.4-0.4-0.3-0.6S1031.8,440.6,1031.9,440.6z"/>
	<path class="st0" d="M-127.1,355.4c-2.7,1.9-4.5,0-6.3-1.7C-130,351.7-127.5,352.4-127.1,355.4z"/>
	<path class="st0" d="M367.6,398.1c-0.3,0.3-0.7,0.6-0.9,0.9c-2-1.2-4-2.5-6-3.8c-1.2-0.9-1.6-0.2-1.8,0.9c-1.3-1.2-0.4-2.4,0.2-3.5
		C362.4,393.6,364.8,396.3,367.6,398.1z"/>
	<path class="st0" d="M732,485.1c3.2,0,6.3,0.1,9.6,0.1c0.4,0.3,0.9,0.5,1.2,0.9c0.1,0.4-0.1,0.7-0.4,0.9c-3.5,0-6.9,0-10.4-0.1
		c-0.3-0.3-0.5-0.6-0.5-0.9C731.6,485.5,731.8,485.2,732,485.1z"/>
	<path class="st0" d="M932.7,357.4c0.3,0.6,0.6,1.1,0.9,1.7c-0.2,0.2-0.3,0.3-0.5,0.5c-2.6,1-5.4,1.7-8.1,2.3c-2-0.9-2-2,0.1-2.6
		C927.7,358.7,929.9,357.3,932.7,357.4z"/>
	<path class="st0" d="M717.3,530.7c-4.1-0.8-8.4-0.1-11.9-2.6C709.4,528.7,713.6,528.6,717.3,530.7z"/>
	<path class="st0" d="M745.2,489.7c0-0.3,0.1-0.6,0.1-0.9c2.1-1.1,4.5,0.4,6.6-0.9c3.1,0.5,6.4-1,9.5,0.9c-2.1,1.1-4.5-0.4-6.6,0.9
		C751.5,489.8,748.4,489.7,745.2,489.7z"/>
	<path class="st0" d="M1046.2,712c-1.6-0.7-3.1-1.2-4.7-1.9c-0.2-1.3-3.2-1.2-1.9-3.4c1.8-0.2,3.5,0.2,4.7,1.7
		c0.8,0.9,2.1,1.2,2.4,2.6C1046.7,711.4,1046.5,711.7,1046.2,712z"/>
	<path class="st0" d="M572.1,507.8c-1.7-0.1-4-0.2-3.5-2.5c0.6-2.6,2.5-0.5,3.8-0.4c1.5,0.1,3.1-0.4,4.4,0.9
		C575.6,507.2,573.3,506.3,572.1,507.8z"/>
	<path class="st0" d="M1145.5,607.1c-0.3,0.9-1,0.8-1.7,0.9c-2.6-0.4-5.4-0.3-8-0.9c-2.1-0.3-4.8,0.6-5.3-2.8
		C1135.5,605.2,1140.5,606.2,1145.5,607.1z"/>
	<path class="st0" d="M1037.7,708.4c-2-0.7-4.1-1.3-6.3-2.1c2.8-2.5,5.1-1.3,7.3,0.1C1039.3,707.5,1038.6,708,1037.7,708.4z"/>
	<path class="st0" d="M720.7,517.1c4.2-0.4,8.2,0.8,13.4,1.3c-5.7,1.4-9.9-0.3-14.4-0.5C719.6,517.2,719.7,516.8,720.7,517.1z"/>
	<path class="st0" d="M1017.8,440.5c-1.6,0.4-3.1,0.8-4.7,1c-2.8,1.6-5.7,1.5-8.5,0.1c4.3-1.8,8.8-1.7,13.2-1.8
		c0.3,0.2,0.4,0.3,0.3,0.5C1018,440.4,1017.9,440.5,1017.8,440.5z"/>
	<path class="st0" d="M737.7,261.6c-0.3-0.3-0.7-0.6-0.9-0.9c1-2.6,4.6-3.2,4.5-6.5c0.8,0.7,1.4,1.2,2.2,1.9
		C741.7,258.2,740,260.2,737.7,261.6z"/>
	<path class="st0" d="M941,206.7c-0.9-0.2-2.2-0.4-2.1-1.3c0.2-1.5,2-1.7,3.1-2.3c0.9-0.5,2.6-1.9,2.9,0.8
		C944.2,205.7,942.6,206.3,941,206.7z"/>
	<path class="st0" d="M78.9,435c-4.6-0.8-9.4-1.5-14-2.3c4.8-0.7,9.5,0.5,14.1,1.2C78.9,434.2,78.9,434.6,78.9,435z"/>
	<path class="st0" d="M587.2,232.4c0.3,0,0.6,0,0.9,0c-1.5,3.4-1.7,7.4-4.3,10.4c-1.5-0.6-1.3-1.7-1.2-2.9c1.5,1,1.6-0.2,2.1-1.2
		C585.6,236.6,585.7,234.2,587.2,232.4z"/>
	<path class="st0" d="M1130.5,604.3c1.3,2,3.6,1.7,5.5,2.1c0.6,1-0.4,1.2-0.9,1.7c-0.3,0-0.6,0-0.9,0c-2.4-0.3-4.6-0.9-6.9-1.4
		c-1-0.3-2.6,0.7-2.7-1.3c0.4-0.3,0.8-0.6,1-0.9c1.2-0.9,2.6,0.1,3.8-0.2C1129.9,604.3,1130.2,604.3,1130.5,604.3z"/>
	<path class="st0" d="M720.7,710.4c2.5,1.2,4.1,3.5,5.9,5.5c-0.4,0.4-0.8,0.8-1.1,1.1c-1.9-1.9-3.8-3.8-5.8-5.8
		C719.9,710.9,720.3,710.7,720.7,710.4z"/>
	<path class="st0" d="M852.9,302.8c-1.9,0.9-3.1,2.6-5.1,1.7c-0.6-0.3-1.3-1.5-0.3-2.4C849.3,300.8,850.9,301.9,852.9,302.8z"/>
	<path class="st0" d="M749.1,470c0,0.2,0,0.5,0,0.7c-3.5-0.1-6.9,1.5-11.2,0.9C741.8,469.3,745.5,470,749.1,470z"/>
	<path class="st0" d="M516.3,818.2c-1.4-5-0.7-10.1-0.8-15.1C517.2,808,515.8,813.1,516.3,818.2z"/>
	<path class="st0" d="M275,256c0.2-0.3,0.5-0.6,0.7-0.9c1.6,1.8,3.3,3.6,4.9,5.3C277.1,260.8,276.2,258.2,275,256z"/>
	<path class="st0" d="M519,905.3c-1.4-5-0.6-10.1-0.8-15.2C520,895.1,518.7,900.3,519,905.3z"/>
	<path class="st0" d="M277.6,355.8c-4.4,1-5.9-1.2-8.4-2.7C272.9,351.7,274.2,354.7,277.6,355.8z"/>
	<path class="st0" d="M811.6,463.4c3.3,0.4,6.4-1.5,9.7-0.6c0,0.5,0.1,0.9,0.1,1.4c-3,0-6,0-9,0
		C811.5,464.7,811.4,464.2,811.6,463.4z"/>
	<path class="st0" d="M839.9,461.4c0-0.3,0-0.5,0-0.8c3.2-0.1,6.2-1.4,9.5-0.9c0.3,0.2,0.4,0.3,0.3,0.5s-0.2,0.2-0.3,0.2
		C846.4,461.9,843.1,461.3,839.9,461.4z"/>
	<path class="st0" d="M480.2,227.7c-0.2,0-0.5,0-0.7,0c-0.1-0.9-0.2-1.9-0.4-2.8c-0.8-1.9,0.3-4-0.8-5.8c0.1-0.9-0.2-1.5-0.9-2
		c0.8-0.9,1.9-0.8,2.9-0.7C479.5,220.1,480.9,223.9,480.2,227.7z"/>
	<path class="st0" d="M933.6,359.2c1.9-0.6,4-0.7,5.8-1.9c1-0.5,1.4,0.1,1.7,0.9c-2.2,1.7-4.8,2.2-7.4,2.6c-0.3-0.2-0.5-0.5-0.5-0.8
		C933.1,359.8,933.2,359.5,933.6,359.2L933.6,359.2z"/>
	<path class="st0" d="M612.8,839.9c2.6,2.4,0.9,6.9,4.7,8.5c-0.4,0.8-1,0.9-1.8,0.9C613.9,846.5,612.5,843.4,612.8,839.9z"/>
	<path class="st0" d="M518.1,876c-1.4-4.6-0.7-9.5-0.7-14.2C519,866.4,517.8,871.3,518.1,876z"/>
	<path class="st0" d="M941,358.2c-0.6-0.3-1.1-0.6-1.7-0.9c1.9-0.9,3.8-1.8,5.7-2.7c1.2,0,2.5,0,3.7-0.1c-0.7,3-4.5,1.2-5.6,3.7
		C942.4,358.2,941.7,358.2,941,358.2z"/>
	<path class="st0" d="M218.1,434c-1.5-0.4-4.3,0.4-2.8-2.9c0.5-0.3,0.9-0.5,1.5-0.5c0.8,0.1,1.5,0.1,2.3,0.4
		c1.2,0.4,2.6,0.8,2.2,2.4C220.7,435,219.3,434.4,218.1,434z"/>
	<path class="st0" d="M517.1,846.6c-1.4-4.7-0.7-9.5-0.7-14.3C518.1,837.1,516.9,841.9,517.1,846.6z"/>
	<path class="st0" d="M577,467.1c1.5,0.3,3.3-0.9,4.4,1.1c0.4,0.9-0.9,0.9-0.8,1.6c-0.8,1-1.8,0.8-2.8,0.8
		C576.8,469.7,575.6,468.7,577,467.1z"/>
	<path class="st0" d="M1005.4,338.3c-0.9-1.2-2.4-1.7-3.9-1.9c1.1-1.2,2.6-0.9,3.9-0.9c0.9,0,2.6-0.5,2.5,1.2
		C1007.9,338,1006.6,338.3,1005.4,338.3z"/>
	<path class="st0" d="M933.5,359.2c0,0.3,0,0.6,0.1,0.9c-1.4,0.9-3.2,1-4.6,1.9c-1.3,1-2.6,1-3.9,0
		C927.6,360,930.4,359.1,933.5,359.2z"/>
	<path class="st0" d="M783.5,466.9c-2,1.4-4.1,1.1-6.6,0.9C779.1,465.8,781.3,466,783.5,466.9z"/>
	<path class="st0" d="M851.2,455.7c2.3-1.5,4.6-0.7,7.9-0.9c-2.2,2.6-4.3,1.6-6.1,1.7C852.6,456,851.7,456.4,851.2,455.7z"/>
	<path class="st0" d="M815.2,484.1c4.1,0.6,8.2-0.9,12.2,0.9c-4.4,0-8.8,0-13.2,0c-0.3-0.2-0.4-0.3-0.3-0.5c0.1-0.2,0.2-0.3,0.3-0.3
		C814.7,484.2,814.9,484.1,815.2,484.1z"/>
	<path class="st0" d="M1153.3,610.9c1.5,0.2,3.1,0.5,4.6,0.7c0.9,0.3,2.3,0,2.3,1c0,1.3-1.4,1.2-2,0.8
		C1156.7,612.2,1153.7,613.9,1153.3,610.9z"/>
	<path class="st0" d="M734.9,468.7c-2.3,0.1-4.5,0.3-7.6,0.4c2.6-2.4,5.2-1.9,7.6-1.9C735.5,467.6,735.4,468.2,734.9,468.7z"/>
	<path class="st0" d="M818.1,618.6c2,0.8,4.3,1,5.9,2.6c-0.4,0.3-0.8,0.6-1,0.9c-2.3-0.9-4.6-1.2-6.6-2.7
		C816.8,619.2,817.5,618.9,818.1,618.6z"/>
	<path class="st0" d="M728.3,473.1c2.5-2.8,4.7-2.2,7.4-2.1C733.5,473.7,731.1,472.3,728.3,473.1z"/>
	<path class="st0" d="M767.9,468.7c1.9-2.1,4-1.5,6.7-1.6C772.3,469.8,769.9,468.5,767.9,468.7z"/>
	<path class="st0" d="M732,485.9c0,0.3,0,0.7,0,0.9c-3.8,0-7.6,0-11.4,0c0-0.2,0-0.5,0-0.7c0.7-0.1,1.4-0.3,2.1-0.4
		C725.8,485.4,728.9,485.2,732,485.9z"/>
	<path class="st0" d="M751,485.2c4.1-0.1,8.1-0.1,12.3-0.2c0.2,0.2,0.3,0.5,0.2,0.7s-0.2,0.3-0.3,0.3c-4.1,0-8.1-0.1-12.3-0.1
		c-0.2-0.2-0.3-0.4-0.2-0.5C750.9,485.2,750.9,485.2,751,485.2z"/>
	<path class="st0" d="M735.4,149.2c-0.1,0.9-0.5,1.6-1,1.4c-1.2-0.5-2.6-0.9-3.5-1.9c-0.7-0.7,0.7-1.1,1.2-1.3
		C733.7,146.9,734.5,148.4,735.4,149.2z"/>
	<path class="st0" d="M650.9,127.3c2.2-1.5,3.5-0.3,5.6,0.7C653.9,130,652.6,127.8,650.9,127.3z"/>
	<path class="st0" d="M216.3,431.1c-0.4,0-0.7,0-1,0c2.2-3.5,4.4-2.4,6.6,0C220,431.9,218.2,431.8,216.3,431.1z"/>
	<path class="st0" d="M575.9,484.1c2.6-0.5,5-1.5,7.7-0.7c0.1,0,0.2,0.2,0.2,0.4s-0.1,0.3-0.2,0.5c-0.9,0.9-1.9,1.7-3.4,1.8
		C578.6,485.6,576.4,487,575.9,484.1z"/>
	<path class="st0" d="M547.7,118c0.8,0.2,1.8-0.3,2.1,0.7c0.5,1.2-0.9,1.4-1.3,1.1c-1.8-1.1-4.1,2.6-5.6-0.6
		C544.1,117.4,546.3,119,547.7,118z"/>
	<path class="st0" d="M1004.6,441.6c2.8,0,5.7,0,8.5-0.1c0,0.3,0,0.6,0,0.9c-1.6,1-3.9,0.4-5.4,1.8
		C1006.1,444,1005.2,442.9,1004.6,441.6z"/>
	<path class="st0" d="M827.6,487c-0.8-0.1-1.4-0.1-1.8-0.9c3.4,0,6.8,0,10.2,0c0,0.3,0,0.6,0,0.9C833.2,487,830.5,487,827.6,487z"/>
	<path class="st0" d="M811.6,463.4c0.3,0.3,0.6,0.6,0.9,0.9c-1.9,1.6-3.9,0.9-6.2,0.7C807.8,462.6,809.8,463.5,811.6,463.4z"/>
	<path class="st0" d="M811.4,459.4c1.8-1.5,3.9-0.8,5.9-0.8c0.5,0.6,1.5,0.1,1.9,0.9c-1.8,1.5-3.9,0.8-5.9,0.8
		C812.9,459.8,811.8,460.2,811.4,459.4z"/>
	<path class="st0" d="M216.3,431.1c1.9,0,3.7,0,5.6-0.1c0.2,2.7,0.1,5.2-3.7,2.9c0.9-0.2,2.2,0.3,2.4-0.9c0.2-1-0.9-0.9-1.7-1
		C217.8,432,216.9,432,216.3,431.1z"/>
	<path class="st0" d="M1127.6,606.3c2.4,0.3,4.7,0.4,6.7,1.8c-2.5,1.2-4.5-0.2-6.7-0.9c-0.4-0.2-0.5-0.4-0.4-0.6
		C1127.3,606.4,1127.5,606.3,1127.6,606.3z"/>
	<path class="st0" d="M1135.2,608.1c0.3-0.6,0.6-1.1,0.9-1.7c2.4,1.4,5.4-0.1,7.8,1.7c-0.3,0.3-0.7,0.6-0.9,0.9
		c-1.9-0.3-3.8-0.5-5.7-0.8C1136.5,608.1,1135.8,608.1,1135.2,608.1z"/>
	<path class="st0" d="M831.3,457.5c1.8-1.4,3.9-0.8,5.9-0.8c0.5,0.6,1.5,0.1,1.9,0.9c-1.8,1.5-3.9,0.8-5.9,0.8
		C832.7,457.9,831.7,458.3,831.3,457.5z"/>
	<path class="st0" d="M848.4,457.3c-1.9,0-3.9,0.1-5.8,0.1c-0.4-0.2-0.8-0.5-0.9-0.9c1.8-1.4,3.9-0.8,5.8-0.8
		C848.2,456.2,848.6,456.6,848.4,457.3z"/>
	<path class="st0" d="M512.5,900.4c1.3,3.7,0.7,7.6,0.8,11.4C511.6,908.1,512.9,904.2,512.5,900.4z"/>
	<path class="st0" d="M767,465.1c-0.4-0.9-1.1-0.9-1.9-0.9c1.8-1.4,3.9-0.8,5.9-0.8c0.5,0.6,1.5,0.2,1.9,0.9
		C771,465.8,769,465,767,465.1z"/>
	<path class="st0" d="M1007.7,444.2c0.9-3.2,3.7-0.9,5.4-1.8c0.9,0.3,2.2-0.2,2.7,0.9C1013.1,443.6,1010.4,443.9,1007.7,444.2z"/>
	<path class="st0" d="M570.3,502c-1.1-0.6-1-1.2,0-1.9c2.4-1.2,5,0.4,7.4-0.9c1.1,0.7,0.9,1.3,0,1.9
		C575.3,502.3,572.7,500.9,570.3,502z"/>
	<path class="st0" d="M1046.2,711.1c-0.6-0.9-2.2-1.2-2-2.7c2.4-0.1,4.4,0.8,5.8,2.7C1048.8,712.4,1047.6,712.1,1046.2,711.1z"/>
	<path class="st0" d="M511.6,878.6c1.3,3.7,0.7,7.6,0.8,11.4C510.7,886.3,511.9,882.4,511.6,878.6z"/>
	<path class="st0" d="M808.7,460.5c-1.4,1.4-3.2,0.8-4.8,0.9c-0.5-0.7-1.5-0.2-1.9-0.9c1.8-1.4,3.9-0.8,5.9-0.8
		C808.2,459.8,808.5,460.1,808.7,460.5z"/>
	<path class="st0" d="M827.6,459.3c-1.6,0-3.2,0.1-4.8,0.1c-0.4-0.2-0.8-0.5-0.9-0.9c1.8-1.4,3.8-0.8,5.8-0.8
		C828.2,458.3,828.2,458.8,827.6,459.3z"/>
	<path class="st0" d="M508.7,813.2c1.3,3.4,0.7,7,0.7,10.5C507.9,820.3,509,816.7,508.7,813.2z"/>
	<path class="st0" d="M259.7,240c0.4-0.4,0.7-0.7,1-1c1.5,1,2.8,2.3,3.7,3.9c-0.3,0.3-0.6,0.7-0.9,0.9
		C262.3,242.5,261.1,241.3,259.7,240z"/>
	<path class="st0" d="M943.1,358.2c0.6-3.2,4.3-1.7,5.6-3.7c0.7,0,1.4,0,2.1,0C948.8,357.1,945.5,356.6,943.1,358.2z"/>
	<path class="st0" d="M744.3,467.8c-1.6,0-3.2,0.1-4.8,0.1c-0.5-0.6-1.4-0.2-1.9-0.9c1.8-1.4,3.8-0.8,5.8-0.8
		C744.1,466.6,744.5,467,744.3,467.8z"/>
	<path class="st0" d="M510.6,856.9c1.3,3.4,0.7,6.9,0.7,10.4C509.8,863.9,510.9,860.3,510.6,856.9z"/>
	<path class="st0" d="M509.7,835.1c1.3,3.4,0.7,6.9,0.7,10.4C508.8,842.1,509.9,838.5,509.7,835.1z"/>
	<path class="st0" d="M795.4,462.2c-0.8-1-1.8-0.7-2.8-0.9c1.8-1.4,3.9-0.8,5.9-0.8c0.5,0.6,1.4,0.1,1.9,0.9
		C798.8,462.8,797,462.3,795.4,462.2z"/>
	<path class="st0" d="M153.8,341.1c0,0.4,0,0.8,0,1c-2-0.7-4-1.4-6.9-2.5C150.2,339.1,152,339.9,153.8,341.1z"/>
	<path class="st0" d="M814.3,484.2c0,0.3,0,0.5,0,0.8c-3.1,0-6.2,0-9.4,0C808,483.7,811.2,484.2,814.3,484.2z"/>
	<path class="st0" d="M619.4,123.3c1-3.9,2.8-2.1,4.6-0.7c-0.1,0.2-0.2,0.4-0.3,0.7C622.4,124.1,620.9,124.6,619.4,123.3z"/>
	<path class="st0" d="M780.3,462.3c0.3,0.3,0.7,0.7,0.9,0.9c-1.4,1.3-3.2,0.8-4.9,0.8c-0.5-0.6-1.5-0.2-1.9-0.9
		C776.3,461.7,778.4,462.5,780.3,462.3z"/>
	<path class="st0" d="M1017.1,443.2c2.4-3.2,5.3-1.7,8.1-0.9C1022.5,442.5,1019.7,442.3,1017.1,443.2z"/>
	<path class="st0" d="M722.6,514.4c-1.9-0.2-4,0.7-5.8-0.9c0-0.6,0.7-0.6,0.9-0.9c1.6,0.1,3.4-0.7,4.7,0.9c0.3,0.2,0.5,0.4,0.4,0.6
		C722.8,514.2,722.7,514.4,722.6,514.4z"/>
	<path class="st0" d="M291.8,770.9c2.5,1.9,5.1,0.8,7.8,0.8C296.8,772.6,294.1,774.6,291.8,770.9z"/>
	<path class="st0" d="M727.3,513.4c1.6,0.1,3.4-0.6,4.7,0.9c0.3,0.2,0.5,0.4,0.4,0.6c-0.1,0.2-0.2,0.3-0.3,0.3
		c-1.6-0.1-3.4,0.7-4.8-0.9c-0.3-0.2-0.5-0.4-0.4-0.7C727,513.5,727.2,513.4,727.3,513.4z"/>
	<path class="st0" d="M720.7,517.1c-0.3,0.3-0.6,0.6-0.9,0.9c-1.6-0.1-3.4,0.6-4.8-0.9c0.2-0.4,0.5-0.8,0.9-0.9
		C717.6,516.4,719.3,515.7,720.7,517.1z"/>
	<path class="st0" d="M751.9,487.9c-2,1.7-4.4,0.5-6.6,0.9c-0.9,0-1.9-0.1-2.8-0.1C745.6,487,748.8,488.2,751.9,487.9z"/>
	<path class="st0" d="M1046.2,711.1c1.3,0,2.6,0,3.9,0c0.3,0,0.6,0.1,0.9,0.3c0,0.9,0,1.7,0,2.6c-1.6-0.7-3.1-1.3-4.7-1.9
		C1046.2,711.7,1046.2,711.4,1046.2,711.1z"/>
	<path class="st0" d="M498.5,114.1c-0.2,2.6-1.1,5.3,0.7,7.8C496.8,120.7,496.6,118,498.5,114.1z"/>
	<path class="st0" d="M119.9,358.2c2,0.3,4,0.8,5.6,2c-0.4,0.4-0.7,0.7-1,1c-1.9-0.7-3.7-1.4-5.6-2.1
		C118.7,358.2,118.9,357.7,119.9,358.2z"/>
	<path class="st0" d="M751,485.2c0,0.2,0,0.5-0.1,0.7v0.4c-2.8,0.3-5.6,0.6-8.4-0.2c-0.3-0.3-0.7-0.6-0.9-0.9
		C744.7,485.2,747.9,485.2,751,485.2z"/>
	<path class="st0" d="M732,485.9c-3.1,0-6.2-0.1-9.4-0.1c3-1.5,6.2-0.4,9.4-0.8C732,485.3,732,485.6,732,485.9z"/>
	<path class="st0" d="M763.2,486c0-0.3,0.1-0.7,0.1-0.9c1.3-1.3,2.6-1.1,4.4-0.2C766.5,486.7,764.7,485.7,763.2,486z"/>
	<path class="st0" d="M573.2,491.8c0-0.9,0.1-1.6,1-1.9c2.1,1.1,4.5-0.5,6.5,1c0,0.3-0.1,0.6-0.1,0.9
		C578.1,492.3,575.6,492.3,573.2,491.8z"/>
	<path class="st0" d="M572.1,507.8c0.6-2.9,3.1-1.3,4.7-2C576,508.1,573.9,507.7,572.1,507.8z"/>
	<path class="st0" d="M569.3,520.1c0.6,0.5,0.9,1.1,0.2,1.5c-1.4,0.9-2.7,0.3-3.9-0.7C566.3,518.3,567.9,519.5,569.3,520.1z"/>
	<path class="st0" d="M1027.3,439.5c-1.6,0.2-3.1,1.3-4.8,0.9c-0.4-0.2-0.7-0.5-0.9-0.9c1.8-1.4,3.8-0.8,5.8-0.8
		c0.3,0.2,0.4,0.4,0.3,0.6C1027.5,439.5,1027.4,439.5,1027.3,439.5z"/>
	<path class="st0" d="M742.6,486.1c2.8,0.1,5.6,0.1,8.4,0.2c-2.7,1.5-5.7,0.4-8.5,0.7C742.5,486.7,742.5,486.4,742.6,486.1z"/>
	<path class="st0" d="M712.2,532.4c1.5,0.1,3.2-0.5,4.2,1.4c-1.5,0.9-2.9,0.7-4.3-0.3C711.6,533,711.6,532.7,712.2,532.4z"/>
	<path class="st0" d="M852.1,459.4c1.4-1.3,3.1-0.9,5.1-0.7c-0.7,1.9-2.1,1.6-3.3,1.5C853.5,459.8,852.6,460.2,852.1,459.4z"/>
	<path class="st0" d="M757.5,273.1c2,2,4.4,0.6,6.6,1c-2,1.4-4.2,0.8-6.3,0.6C756.7,274.7,756.8,273.8,757.5,273.1z"/>
	<path class="st0" d="M1060.4,717.8c0-0.3,0-0.7,0.1-0.9c1.8,0.2,3.4,0.6,4.7,1.9c0.3,0.2,0.4,0.5,0.3,0.7s-0.3,0.3-0.4,0.3
		C1063.3,719.7,1061.9,718.5,1060.4,717.8z"/>
	<path class="st0" d="M1159.7,609c-2.7,1.9-5.1,1-7.3-0.9C1154.8,608.5,1157.2,608.7,1159.7,609z"/>
	<path class="st0" d="M1065.2,719.6c0-0.3,0-0.7,0.1-0.9c1.8,0.1,3.4,0.6,4.7,1.9c0.3,0.2,0.4,0.5,0.3,0.7c-0.1,0.2-0.3,0.3-0.4,0.3
		C1068,721.6,1066.7,720.4,1065.2,719.6z"/>
	<path class="st0" d="M569.3,520.1c-1.2,0.3-2.7-0.6-3.7,0.9c-1.6-1-0.7-1.9,0.3-2.4C567.5,517.7,568.6,518.6,569.3,520.1z"/>
	<path class="st0" d="M1069.9,721.5c0-0.3,0-0.7,0.1-0.9c1.9,0.5,4.3,0.2,4.6,2.9C1072.7,723.5,1071.4,722.3,1069.9,721.5z"/>
	<path class="st0" d="M712.2,532.4c0,0.4,0,0.7,0,1c-1.6-0.3-3.4,0.4-4.8-0.9c0.1-0.6,0.7-0.7,0.9-0.9
		C709.7,531.2,710.9,531.8,712.2,532.4z"/>
	<path class="st0" d="M1148.9,557.2c0.5,1,0.9,1.7,1.1,2.4c0.1,0.7-0.5,1-1.1,1s-1.2-0.4-1.1-1
		C1148,558.9,1148.4,558.2,1148.9,557.2z"/>
	<path class="st0" d="M1129.5,604.3c-1.1,1.8-2.6,0.4-3.8,0.2C1126.9,602.2,1128.2,603.4,1129.5,604.3z"/>
	<path class="st0" d="M827.6,459.3c0-0.5,0-1,0-1.5c1.2-0.1,2.5-0.1,3.7-0.2c0.7,0.3,1.2,0.6,1.9,0.9
		C831.3,458.8,829.5,459,827.6,459.3z"/>
	<path class="st0" d="M583.6,248.3c1,0.8,0.4,2.6,1.8,3c-0.1,0.8,0,1.7-0.9,2c-1.3,0.5-0.9-0.8-1-1.3
		C583.5,250.7,583.5,249.4,583.6,248.3z"/>
	<path class="st0" d="M751.9,465.3c0,0.5,0,0.9,0.1,1.3c-1,0.1-2.1,0.2-3,0.3c-0.5-0.6-1.4-0.1-1.9-0.9
		C748.5,464.7,750.3,465.3,751.9,465.3z"/>
	<path class="st0" d="M747.1,466c0.7,0.3,1.2,0.6,1.9,0.9c-1.5,0.3-3,0.6-4.6,0.9c-0.3-0.5-0.6-1-0.9-1.5
		C744.6,466.1,745.9,466.1,747.1,466z"/>
	<path class="st0" d="M577,467.1c-0.8,1.4,0.9,2.4,0.8,3.6c-0.4,0.6-1.2,1-1.5,0.5C575.6,469.7,575.3,468.2,577,467.1z"/>
	<path class="st0" d="M1037.7,708.4c0.4-0.7,0.7-1.3,1-2c0.3,0.1,0.6,0.3,0.9,0.4c0.7,1.1,1.2,2.3,1.9,3.4
		C1040.2,709.5,1038.9,709,1037.7,708.4z"/>
	<path class="st0" d="M580.5,485.2c1-0.3,2-0.7,3-0.9c0,2-0.9,3.1-3,2.6c-0.3-0.2-0.5-0.5-0.5-0.9
		C580.2,485.6,580.3,485.3,580.5,485.2z"/>
	<path class="st0" d="M580.7,490.9c-2.1-0.7-4.6,0.8-6.5-1c2.3,0.1,4.5-0.5,6.7,0.3c0.1,0,0.1,0.3,0.1,0.4
		C580.9,490.6,580.7,490.7,580.7,490.9z"/>
	<path class="st0" d="M848.4,457.3c-0.3-0.5-0.6-1-0.9-1.5c1.2-0.1,2.5-0.1,3.7-0.2c0.7,0.3,1.2,0.6,1.9,0.9
		C851.6,456.8,850,457,848.4,457.3z"/>
	<path class="st0" d="M573.2,491.8c2.5,0,4.9,0,7.4,0C578.1,493.1,575.6,493.1,573.2,491.8z"/>
	<path class="st0" d="M577.7,499.3c-2.3,1.9-4.9,0.6-7.4,0.9C572.6,498.3,575.2,499.6,577.7,499.3z"/>
	<path class="st0" d="M570.3,502c2.3-1.9,4.9-0.5,7.3-0.9C575.4,502.9,572.8,501.7,570.3,502z"/>
	<path class="st0" d="M78.3,342.3c0.1,1.7,2.1,1.5,2.7,2.7c-2.2,0.7-3.4-0.9-5.1-1.8C76.8,342.9,77.6,342.5,78.3,342.3z"/>
	<path class="st0" d="M473.8,124.2c-1.4,0.2-2.8,0.4-5.1,0.7C470.7,122.8,472.4,123.9,473.8,124.2z"/>
	<path class="st0" d="M624.1,122.6c1,0,2.1,0,3.2,0c-0.3,2.1-1.7,1.7-2.9,1.8C623.4,123.9,623.7,123.3,624.1,122.6L624.1,122.6z"/>
	<path class="st0" d="M579.8,812.5c-1.3,1.4-3.8-0.1-4.9,1.8C575.2,810.5,578.3,813.4,579.8,812.5z"/>
	<path class="st0" d="M216.4,456.9c2.6-0.5,1.8-1.7,0.7-3c1.9,0,2.4,1.2,1.9,2.6C218.4,457.9,217.3,457.7,216.4,456.9z"/>
	<path class="st0" d="M708.3,531.5c-0.3,0.3-0.7,0.7-0.9,0.9c-1.1-0.2-2.2-0.4-3.3-0.6c0-0.3,0.1-0.6,0.1-0.9
		C705.5,531.2,707,531.3,708.3,531.5z"/>
	<path class="st0" d="M754.8,489.8c2-1.7,4.4-0.5,6.6-0.9C759.4,490.6,756.9,489.4,754.8,489.8z"/>
	<path class="st0" d="M136,674.3c-2.1,1.3-4.4,0.5-6.6,0.8C131.3,673.6,133.7,674.6,136,674.3z"/>
	<path class="st0" d="M580.5,485.2c0,0.3,0.1,0.6,0.1,0.9c-1.8,0.9-3.7,0.7-5.6,0.2c-0.1-0.9,0-1.6,0.9-2
		C577.1,485.9,579,484.8,580.5,485.2z"/>
	<path class="st0" d="M580.6,469.9c-2.5-1.8,0.5-1.1,0.8-1.6c0.7,0,1.8-0.4,1.6,0.9C582.8,470.1,581.5,469.7,580.6,469.9z"/>
	<path class="st0" d="M717.8,512.5c-0.3,0.3-0.7,0.7-0.9,0.9c-1.5,0-3,0-4.5,0c0-0.3,0-0.7,0-0.9C714.1,512.5,716,512.5,717.8,512.5
		z"/>
	<path class="st0" d="M737.6,467.1c0.7,0.3,1.2,0.6,1.9,0.9c-1.5,0.3-3.1,0.6-4.6,0.8c0-0.5,0-0.9,0-1.5
		C735.8,467.2,736.8,467.1,737.6,467.1z"/>
	<path class="st0" d="M941,206.7c1.3-0.9,2.6-1.9,4-2.8C945.3,207.1,943.1,206.9,941,206.7z"/>
	<path class="st0" d="M573.1,118.7c1.9,0,3.8,0,5.7,0C576.8,120.3,575,120.3,573.1,118.7z"/>
	<path class="st0" d="M624.2,122.5c0.1,0.6,0.2,1.2,0.3,1.8c-1.7-0.2-3.7,0.9-5-1C621.1,123.9,622.7,123.8,624.2,122.5z"/>
	<path class="st0" d="M929,361.9c1.1-1.6,2.8-1.8,4.6-1.9c0,0.3,0,0.5,0,0.8C932,361.1,930.7,362.3,929,361.9z"/>
	<path class="st0" d="M1127.6,606.3c0,0.3,0,0.6,0,0.9c-1.3-0.2-2.6-0.3-3.9-0.5c0.3-0.5,0.6-0.9,0.9-1.3
		C1125.4,606.2,1126.6,606,1127.6,606.3z"/>
	<path class="st0" d="M617.5,700.7c0.7,0.9,1.3,1.9,2,2.8c-1.3-0.1-2.7,0.5-3.8-0.9C617.1,702.8,617.6,702.1,617.5,700.7z"/>
	<path class="st0" d="M575.1,486.1c1.9-0.1,3.7-0.1,5.6-0.2c0,0.3,0,0.6-0.1,0.9C578.7,486.7,576.7,487.8,575.1,486.1z"/>
	<path class="st0" d="M1037.7,438.7c-0.3-0.3-0.6-0.6-0.9-0.9c1.5-0.1,3-0.1,4.5-0.2c0.4,0.4,0.7,0.8,1,1
		C1040.8,439.4,1039.3,439.4,1037.7,438.7z"/>
	<path class="st0" d="M1027.3,439.5c0-0.3,0-0.6,0-0.8c1.2-0.1,2.5-0.1,3.7-0.2c0.7,0.3,1.3,0.7,2,0.9
		C1031.1,439.5,1029.2,439.5,1027.3,439.5z"/>
	<path class="st0" d="M1037.7,438.7c1.6,0,3.1,0,4.7,0c-0.8,1-1.9,0.9-2.8,0.9c-0.7,0.3-1.2,0.6-1.9,0.9
		C1037.7,439.9,1037.7,439.4,1037.7,438.7z"/>
	<path class="st0" d="M1031.9,440.6c0,0.3,0,0.6,0,0.9c-0.9,0.1-1.8,0.2-2.7,0.2c-0.6-0.1-1.1-0.2-1.8-0.3c0-0.3-0.1-0.5-0.1-0.8
		C1028.9,440.6,1030.4,440.6,1031.9,440.6z"/>
	<path class="st0" d="M719.8,488.8c0.9,1.5,2.4,0.8,3.6,1.1c-1.3,1.1-2.7,1-4.1,0.2C718.8,489.9,719.3,489.1,719.8,488.8z"/>
	<path class="st0" d="M211.5,452.1c1.1-0.1,2.2-0.2,3,0.7c-0.7,0.3-1.3,0.6-2,0.8c-1.1,0.1-2.2,0.2-3-0.7
		C210.1,452.6,210.8,452.4,211.5,452.1z"/>
	<path class="st0" d="M841.7,456.6c0.3,0.3,0.7,0.6,0.9,0.9c-1.2,0.1-2.5,0.1-3.6,0.2c-0.7-0.3-1.2-0.6-1.9-0.9
		C838.7,456.7,840.2,456.7,841.7,456.6z"/>
	<path class="st0" d="M821.9,458.5c0.3,0.3,0.7,0.6,0.9,0.9c-1.2,0.1-2.5,0.1-3.6,0.2c-0.7-0.3-1.2-0.6-1.9-0.9
		C818.8,458.6,820.3,458.6,821.9,458.5z"/>
	<path class="st0" d="M800.3,461.4c-0.7-0.3-1.2-0.6-1.9-0.9c1.2-0.1,2.4-0.1,3.6-0.2c0.8,0.1,1.5,0.1,1.9,0.9
		C802.6,461.4,801.4,461.4,800.3,461.4z"/>
	<path class="st0" d="M860.7,727.3c0.2,1,1,1.5,1.8,2.1c0.2,0.8,0.1,1.2-0.9,0.8c-0.9-0.7-1.9-1.2-2.8-1.9
		C859.5,727.9,860.1,727.6,860.7,727.3z"/>
	<path class="st0" d="M774.5,463.2c0.8,0.1,1.5,0.2,1.9,0.9c-1.2,0.1-2.4,0.1-3.6,0.2c-0.8-0.1-1.5-0.2-1.9-0.9
		C772.2,463.3,773.3,463.3,774.5,463.2z"/>
	<path class="st0" d="M809.6,731.9c-0.4,0.4-0.8,0.8-1.1,1c-0.8-0.5-1.5-0.9-2.5-1.5C807.6,730.3,808.5,731.1,809.6,731.9z"/>
	<path class="st0" d="M808.7,460.5c-0.3-0.3-0.7-0.6-0.9-0.9c1.2-0.1,2.5-0.1,3.6-0.2c0.8,0.1,1.5,0.2,1.9,0.9
		C811.8,460.4,810.3,460.5,808.7,460.5z"/>
	<path class="st0" d="M715.9,516.3c-0.3,0.3-0.6,0.7-0.9,0.9c-1.3-0.1-2.6-0.2-4.5-0.3C712.6,515.9,714.3,516.4,715.9,516.3z"/>
	<path class="st0" d="M895.8,751.9c0.8,0,1.4,0.2,1.9,0.9c-1.5,0.7-3,1.7-4.6,0.2C894,752.9,895.2,753.2,895.8,751.9z"/>
	<path class="st0" d="M476.4,217.2c-0.1,1.5-0.1,3.1-0.2,4.6C475.2,220.3,475.1,218.8,476.4,217.2z"/>
	<path class="st0" d="M547.5,870.2c-1.1-1.4-0.8-3.1-0.8-4.7C548.1,866.9,547.3,868.7,547.5,870.2z"/>
	<path class="st0" d="M619.4,703.6c0.9-0.1,2.2,0.7,2.7-0.9c0.6,0.3,1,0.9,0.5,1.4C621.5,704.9,620.3,704.8,619.4,703.6z"/>
	<path class="st0" d="M-55.2,98.2c0.8-0.2,1.6-0.1,1.8-1.1c0.7,0.4,1.7,0.9,1,1.5C-53.2,99.3-54.3,99.1-55.2,98.2z"/>
	<path class="st0" d="M727.3,513.4c0,0.3,0,0.7,0,0.9c-1.6,0-3.1,0-4.7,0c0-0.3,0-0.6,0-0.9C724.1,513.4,725.7,513.4,727.3,513.4z"
		/>
	<path class="st0" d="M548.5,878.8c-1.1-1.4-0.8-3.1-0.8-4.7C549,875.4,548.3,877.2,548.5,878.8z"/>
	<path class="st0" d="M-13.9,676.1c1.5-1.2,3.2-0.7,4.9-0.7C-10.5,676.8-12.2,676-13.9,676.1z"/>
	<path class="st0" d="M549.3,887.3c-1.1-1.4-0.8-3.1-0.8-4.8C550,883.9,549.2,885.7,549.3,887.3z"/>
	<path class="st0" d="M79.2,434c0.3-1.6-1.1-2.1-2.1-2.8C79,431.1,81.1,431,79.2,434z"/>
	<path class="st0" d="M540.9,885.3c1.1,1.4,0.8,3.1,0.8,4.7C540.3,888.6,541.1,886.9,540.9,885.3z"/>
	<path class="st0" d="M732,515.2c0-0.3-0.1-0.6-0.1-0.9c1.3,0.2,2.7-0.4,4.1,0.5C734.8,515.7,733.4,515.2,732,515.2z"/>
	<path class="st0" d="M542.8,826.8c-1.1-1.4-0.8-3.1-0.8-4.7C543.3,823.4,542.6,825.2,542.8,826.8z"/>
	<path class="st0" d="M1021.5,439.5c0.3,0.3,0.6,0.6,0.9,0.9c-1.5,0-3.1,0-4.6,0c0-0.2,0-0.5,0-0.7
		C1019.1,439.7,1020.3,439.6,1021.5,439.5z"/>
	<path class="st0" d="M438.8,430.5c0.9-0.5,0.9-1.3,0.8-2.2c1.2,0.8,1.5,1.9,0.6,3C439.7,431.8,439.1,430.9,438.8,430.5z"/>
	<path class="st0" d="M238.9,904.3c1,0.6,2,1.2,3,1.8C240.7,905.7,238.3,907.3,238.9,904.3z"/>
	<path class="st0" d="M355.4,642.8c1.5,0.7,3.4-0.3,4.7,1.1C358.6,643.8,356.6,644.8,355.4,642.8z"/>
	<path class="st0" d="M543.7,835.3c-1.1-1.4-0.8-3.1-0.8-4.7C544.3,831.9,543.5,833.7,543.7,835.3z"/>
	<path class="st0" d="M553.9,364c0.2,0.8,0.1,1.7,1.2,1.9c-0.4,0.6-0.9,1.6-1.6,0.9C552.7,366,553,364.9,553.9,364z"/>
	<path class="st0" d="M168.9,688.5c-0.3-0.4-0.6-0.8-0.8-1.1c0.6-0.8,1.1-1.9,2-0.8C170.9,687.7,169.6,688.1,168.9,688.5z"/>
	<path class="st0" d="M425.4,935.4c1.5,0.1,3.1,0.2,4.6,0.3C428.5,936.7,426.9,936.9,425.4,935.4z"/>
	<path class="st0" d="M508.9,797.3c-0.1,1.5-0.3,3.1-0.4,4.6C507.5,800.4,507.1,798.8,508.9,797.3z"/>
	<path class="st0" d="M446.3,345.9c0.7,0,1.2,0,1.9-0.1c-0.4,1-0.7,2.1-1,3.2C446.2,348.1,446.2,347,446.3,345.9z"/>
	<path class="st0" d="M536.2,803.1c-0.5,0.4,0.5,1.8-0.8,1.3c-0.7-0.3-0.9-1.4-1.4-2.2C534.9,802.1,535.7,802.2,536.2,803.1z"/>
	<path class="st0" d="M547.7,118c-1.4,1.4-3.3,0.4-4.9,1.1C544,117,546,118.2,547.7,118z"/>
	<path class="st0" d="M852.1,459.4c0.6,0.3,1.2,0.6,1.8,0.9c-1.5,0-3,0-4.5,0c0-0.2,0-0.5,0-0.7
		C850.3,459.6,851.3,459.5,852.1,459.4z"/>
	<path class="st0" d="M-167.7,531.5c-1.5,1.2-3.2,0.7-4.9,0.7C-171.1,530.9-169.3,531.6-167.7,531.5z"/>
	<path class="st0" d="M546.6,861.7c-1.1-1.4-0.8-3.1-0.8-4.7C547.1,858.4,546.4,860.2,546.6,861.7z"/>
	<path class="st0" d="M483.9,243.7c0.1-1.5,0.3-3,0.4-4.6C485.3,240.7,485.6,242.3,483.9,243.7z"/>
	<path class="st0" d="M540.9,810.6c-1.1-1.4-0.8-3.1-0.8-4.7C541.5,807.3,540.7,809.1,540.9,810.6z"/>
	<path class="st0" d="M954.4,353.6c0.3-0.4,0.7-0.7,0.9-1c0.6,0.3,1.2,0.5,1.8,0.8C956.2,353.4,955.4,353.5,954.4,353.6z"/>
	<path class="st0" d="M1148.1,73.3c-2.1,1.3-4.1,2.6-6.2,3.9C1143.3,74.9,1145.1,73.3,1148.1,73.3z"/>
	<path class="st0" d="M1164.2,62.1c-1,1.8-2.4,2-3.8,2.3C1161.2,63.1,1162.3,62.4,1164.2,62.1z"/>
	<path class="st0" d="M1062.3,19.6c0.3,0.3,0.6,0.6,0.9,0.9c-6.1,5.3-12,10.8-18.7,15.3c-0.1-0.1-0.2-0.3-0.3-0.4
		C1049.7,29.5,1056.3,24.8,1062.3,19.6z"/>
	<path class="st0" d="M1021.4,55c0.8-2,2.3-3.2,5-4.7C1024.9,53.1,1023.3,54.2,1021.4,55z"/>
	<path class="st0" d="M1038.7,40.5c-1.4,1.8-2.9,3.4-5.2,4.2c1.2-2,2.6-3.8,4.9-4.4L1038.7,40.5z"/>
	<path class="st0" d="M1038.5,40.1c1.6-1.9,3.2-3.9,5.7-4.7c0.1,0.1,0.2,0.2,0.3,0.4c-1.6,1.9-3.2,3.9-5.7,4.7
		C1038.7,40.5,1038.5,40.1,1038.5,40.1z"/>
	<path class="st0" d="M1031.4,46.2c-0.6,1.6-1.5,2.8-3.8,3.3C1028.4,47.8,1029.8,46.8,1031.4,46.2z"/>
	<path class="st0" d="M1019.8,56.2c-1.3,2.2-2.5,3.2-4.2,3.6C1016.4,58.3,1017.4,57,1019.8,56.2z"/>
	<path class="st0" d="M1014.2,60.4c-1.3,2.7-2.6,3.6-5,5.1C1010.5,62.9,1011.8,62.1,1014.2,60.4z"/>
	<path class="st0" d="M992.2,79.7c0.5-1.6,1.4-2.6,3.6-3.5C994.9,78.2,993.7,79.1,992.2,79.7z"/>
	<path class="st0" d="M1004.9,69.5c-0.3-1.7,0.5-2.4,2.5-2.6C1006.2,68.1,1005.5,68.9,1004.9,69.5z"/>
	<path class="st0" d="M988.9,82.3c-0.5,1.3-1,2.2-2.6,2C986.7,83.1,987.3,82.1,988.9,82.3z"/>
	<path class="st0" d="M980.6,89.2c0.4-1.3,1-2.1,2.6-2.3C982.8,88.4,982.2,89,980.6,89.2z"/>
	<path class="st0" d="M111.1,8.3c-1.6-1.3-3.2-2.6-3.8-4.7l0.3-0.3c1.6,1.3,3.2,2.6,3.8,4.7L111.1,8.3z"/>
	<path class="st0" d="M114.9,12.9c-1.6-1.2-3.2-2.6-3.8-4.7l0.3-0.3c1.6,1.3,3.2,2.6,3.8,4.7L114.9,12.9z"/>
	<path class="st0" d="M115.1,12.7c1.7,1.2,3.2,2.6,3.8,4.7l-0.3,0.2c-1.6-1.2-3.2-2.6-3.8-4.7C114.9,12.9,115.1,12.7,115.1,12.7z"/>
	<path class="st0" d="M118.9,17.5c1.6,1.2,3.2,2.6,3.8,4.7l-0.2,0.2c-1.7-1.2-3.2-2.6-3.8-4.7L118.9,17.5z"/>
	<path class="st0" d="M122.7,22.2c1.5,1,2.8,2.2,3.8,4.9c-2.2-1.7-3.6-2.7-4-4.7C122.5,22.4,122.7,22.2,122.7,22.2z"/>
	<path class="st0" d="M107.3,3.6c-1.4-1.1-2.8-2.3-3.6-4.6c2.3,1,3.3,2.5,4,4.4C107.7,3.2,107.3,3.6,107.3,3.6z"/>
	<path class="st0" d="M157.9,66.2c1.5,0.7,2.1,1.4,2.6,3.1C158.9,68.6,158.1,68,157.9,66.2z"/>
	<path class="st0" d="M130.3,31.6c-1.7-0.9-2.6-1.5-2.6-3C129,28.7,129.5,29.8,130.3,31.6z"/>
	<path class="st0" d="M133.9,36c-1.6-0.6-2.4-1.3-2.6-3.1C132.6,33.7,133.4,34.3,133.9,36z"/>
	<path class="st0" d="M135.2,37.6c1.2,0.9,2.4,1.4,2.1,3.1C136.1,40.1,135.1,39.4,135.2,37.6z"/>
	<path class="st0" d="M142.7,47.3c1.5,0.7,2.1,1.5,2.5,2.6C143.2,49.9,143,48.8,142.7,47.3z"/>
	<path class="st0" d="M156.6,64.5c-1.5-0.6-2.3-1.3-2.6-2.9C155.5,62.1,156.1,62.7,156.6,64.5z"/>
	<path class="st0" d="M939.6,999.8c-2.4-1.2-3.3-2.3-4.4-4.5C937.6,996.4,938.4,997.5,939.6,999.8z"/>
	<path class="st0" d="M930.2,989.2c1.3,0.3,2.2,0.9,2.1,2.5C930.9,991.3,930.1,990.7,930.2,989.2z"/>
	<path class="st0" d="M1126.8,150.2c0.3,0.3,0.6,0.6,0.9,0.8c-9.8,6-20.1,11.4-30.4,16.5c1.7-3.5,5.5-3.9,8.4-5.6
		C1112.6,157.8,1119.7,154.1,1126.8,150.2z"/>
	<path class="st0" d="M1086.9,172.8c-2.8,3.1-6.8,4.3-10.5,5.9C1079.3,175.4,1083,174,1086.9,172.8z"/>
	<path class="st0" d="M1095.4,167.7c-2,3.1-5.3,4.1-8.6,5.1C1089.1,169.9,1092.4,169.1,1095.4,167.7z"/>
	<path class="st0" d="M1074.7,179.3c-1.7,2.4-4.4,3-6.8,4C1069.5,180.8,1072.1,180.1,1074.7,179.3z"/>
	<path class="st0" d="M1064.3,185.1c-1.7,2.4-4.3,3.1-6.7,4C1059.1,186.5,1061.7,185.7,1064.3,185.1z"/>
	<path class="st0" d="M-69.6,87.8c-0.3,0.3-0.6,0.5-0.9,0.8c-14.3-10-28.5-20.2-42.8-30.2c0.4-0.3,0.7-0.7,1-0.9
		C-98,67.5-83.8,77.7-69.6,87.8z"/>
	<path class="st0" d="M1123.8,900.5c-0.3,0.3-0.6,0.6-0.9,0.9c-8.4-5.5-17-10.7-25.1-16.9c3.8,0.4,6.2,3.2,9.3,5.1
		C1112.8,892.9,1118.2,896.8,1123.8,900.5z"/>
	<path class="st0" d="M1079.3,872c3.1,0.7,5.6,2.5,7.7,4.8C1083.8,876.2,1081.4,874.4,1079.3,872z"/>
	<path class="st0" d="M-157.6,97.9c2,0.4,3.8,1.1,4.9,3C-154.7,100.6-156.6,99.9-157.6,97.9z"/>
	<path class="st0" d="M323.9,12.2c-1.1-0.9-1.5-1.9-1.4-3.3C323.9,9.6,324.2,10.7,323.9,12.2z"/>
	<path class="st0" d="M47.9,10.1C44.1,7,40.8,3.4,37.4-0.3C42.3,1.9,45.5,5.6,47.9,10.1z"/>
	<path class="st0" d="M60.2,23.3c-2.2-2-4.4-3.9-6.5-5.9c0-0.6-0.1-1.1-0.1-1.8C56.2,17.8,59.1,19.8,60.2,23.3z"/>
	<path class="st0" d="M614.1,221.9c0.6,1.4,0.1,2.4-0.9,3.1C612.3,223.6,613.7,222.8,614.1,221.9z"/>
	<path class="st0" d="M609.6,233.1c0.7,1.5-0.3,2.4-1,3.4C607.7,234.9,608.6,234,609.6,233.1z"/>
	<path class="st0" d="M601.8,250.7c1,1.9-0.4,2.6-0.6,4.1C599.9,252.8,601.3,252.1,601.8,250.7z"/>
	<path class="st0" d="M590.1,279.7c0-1.5,0.1-2.9,1.5-4C592.1,277.5,591.2,278.7,590.1,279.7L590.1,279.7z"/>
	<path class="st0" d="M590.1,279.7c0,1.5,0,2.9-1.6,4C588.1,281.9,589,280.7,590.1,279.7L590.1,279.7z"/>
	<path class="st0" d="M585.7,290.7c-0.4-1.9,0.1-2.8,1.1-3.6C587.5,288.5,586.6,289.4,585.7,290.7z"/>
	<path class="st0" d="M541.7,855.1c1.5,5.9,2,11.9,1.9,18l0,0c-1.5-3.6-1.3-7.5-1.8-11.2c-0.3-2.3-0.6-4.5-0.9-6.8
		C541.3,854.6,541.6,854.6,541.7,855.1z"/>
	<path class="st0" d="M537.2,817.2c-1-3.1-1.5-6.3-0.5-10.4c0.5,4.1,0.9,7.3,1.2,10.4C537.7,817.6,537.4,817.6,537.2,817.2z"/>
	<path class="st0" d="M539.8,839.9c2,2,0.4,4.4,0.1,6.6C539.9,844.3,539.9,842.1,539.8,839.9L539.8,839.9z"/>
	<path class="st0" d="M539,829.5c1.3,1,0.9,2.5,0.9,3.8c-0.3,0.5-0.7,0.4-0.9,0c-1.3-1-0.9-2.5-0.9-3.8
		C538.3,829,538.7,829,539,829.5z"/>
	<path class="st0" d="M538.1,824.8c-1.1-0.8-0.9-1.9-0.9-2.9c0.2-0.4,0.5-0.7,0.9-0.9c1.3,1,0.9,2.5,0.9,3.9
		C538.6,825.3,538.3,825.3,538.1,824.8z"/>
	<path class="st0" d="M538.9,833.3c0.3,0,0.7,0,0.9,0c0,2.2,0,4.4,0,6.6h0.1C538.1,837.9,539.3,835.5,538.9,833.3z"/>
	<path class="st0" d="M541.7,855.1c-0.3,0-0.6,0-0.9,0c0-1.9,0-3.7,0-5.6c0.3,0,0.6,0,0.9,0C541.7,851.3,541.7,853.2,541.7,855.1z"
		/>
	<path class="st0" d="M543.7,873.1c1.5,1.4,1,3,0,4.6C543.7,876.2,543.7,874.6,543.7,873.1L543.7,873.1z"/>
	<path class="st0" d="M538.1,821c-0.3,0.3-0.6,0.6-0.9,0.9c0-1.5,0-3.1,0-4.6c0.3,0,0.5,0,0.8,0C538,818.4,538.1,819.7,538.1,821z"
		/>
	<path class="st0" d="M538.1,824.8c0.3,0,0.7,0,0.9,0c0,1.6,0,3.1,0,4.7h-0.5h-0.5C538.1,827.9,538.1,826.3,538.1,824.8z"/>
	<path class="st0" d="M365.8,634.3c2.7-2.4,5.5-4.7,8.3-7.1c-0.3-0.3-0.6-0.7-0.9-0.9c-2.6,2.5-5.2,5-7.9,7.5
		C365.5,633.9,365.7,634.1,365.8,634.3z"/>
	<path class="st0" d="M728.1,668.7c-3.1-1.5-5.7-3.7-7.9-6.3c3.2,1.3,6,3.3,8.2,6L728.1,668.7z"/>
	<path class="st0" d="M735.9,674.2c2.2,0.5,3.5,2.1,4.7,3.8l-0.2,0.2c-2.2-0.5-3.5-2.1-4.7-3.8L735.9,674.2z"/>
	<path class="st0" d="M735.7,674.4c-1.7-0.4-2.8-1.4-3.8-2.8l0.2-0.3c1.7,0.3,2.8,1.5,3.8,2.8C735.9,674.2,735.7,674.4,735.7,674.4z
		"/>
	<path class="st0" d="M744.3,681c-1.8-0.3-2.9-1.4-3.8-2.8l0.2-0.2c1.8,0.3,2.8,1.4,3.8,2.8L744.3,681z"/>
	<path class="st0" d="M744.4,680.9c1.5,0.2,2.5,1.1,3.7,2.6c-2.2-0.1-3-1.2-3.9-2.6C744.3,681,744.4,680.9,744.4,680.9z"/>
	<path class="st0" d="M756.6,690.4c-1.5-0.1-2.6-1-3.5-2.6C755,687.9,755.9,689,756.6,690.4L756.6,690.4z"/>
	<path class="st0" d="M756.7,690.3c1.5,0.1,2.5,0.9,3.5,2.6C758.2,692.9,757.3,691.7,756.7,690.3L756.7,690.3z"/>
	<path class="st0" d="M728.5,668.5c1.7,0.4,2.8,1.5,3.7,2.9l-0.2,0.3c-1.7-0.4-2.8-1.5-3.8-2.8C728.1,668.7,728.5,668.5,728.5,668.5
		z"/>
	<path class="st0" d="M380,365.8c0.3-0.4,0.7-0.7,0.9-1c9.3,9.1,17.8,18.7,26.5,28.4c0.4,0.9-0.1,1-0.9,0.9
		C397.8,384.7,388.9,375.3,380,365.8z"/>
	<path class="st0" d="M406.6,394.1c0.3-0.3,0.6-0.6,0.9-0.9c4.6,5.5,10.7,9.8,14.2,16.3C416.4,404.7,411.2,399.7,406.6,394.1z"/>
	<path class="st0" d="M426.3,414c3,2.5,6.2,4.8,7.7,8.6C431.1,420,427.7,418,426.3,414z"/>
	<path class="st0" d="M398.9,366.8c1.9,1.1,3.4,2.5,3.8,4.7C400.8,370.5,399.2,369,398.9,366.8z"/>
	<path class="st0" d="M421.6,395c1.7,1.3,3.5,2.6,3.9,4.9C423.5,398.8,421.8,397.4,421.6,395z"/>
	<path class="st0" d="M402.7,371.5c1.7,0.8,2.6,2.2,3.1,3.9C404.1,374.7,402.9,373.5,402.7,371.5z"/>
	<path class="st0" d="M406.4,375.9c1.5,1,2.7,2.3,3.2,4.2C407.7,379.4,406.5,378,406.4,375.9z"/>
	<path class="st0" d="M410.2,380.7c1.5,1,2.7,2.3,3.1,4.2C411.5,384,410.3,382.8,410.2,380.7z"/>
	<path class="st0" d="M414,385.4c1.5,0.9,2.7,2.2,3.1,4.1C415.3,388.7,414.1,387.5,414,385.4z"/>
	<path class="st0" d="M417.8,390.1c1.5,0.9,2.7,2.2,3,4.1C419.1,393.5,417.9,392.2,417.8,390.1z"/>
	<path class="st0" d="M425.4,399.9c1.7,0.8,2.8,2,2.8,4C426.9,402.8,425.5,401.8,425.4,399.9z"/>
	<path class="st0" d="M590.1,650.7c0.9,2.3,2,4.4,2.9,6.7C591,655.5,589,653.8,590.1,650.7z"/>
	<path class="st0" d="M609.7,687.5c2.7,1.4,3.2,4.3,4.3,6.7C611.2,692.9,610.8,689.9,609.7,687.5z"/>
	<path class="st0" d="M606.1,680.8c1.8,1.2,2.6,2.9,2.9,5.1C607.1,684.6,606.4,682.8,606.1,680.8z"/>
	<path class="st0" d="M597.5,665.7c2.1,0.9,2.6,2.8,3,4.9C598.6,669.6,598,667.7,597.5,665.7z"/>
	<path class="st0" d="M614.6,695.9c1.8,1.1,2.6,2.9,2.9,4.9C615.6,699.8,615,697.9,614.6,695.9z"/>
	<path class="st0" d="M593.9,659.1c1.9,1.1,2.6,2.9,2.9,4.9C594.8,662.9,594.2,661.1,593.9,659.1z"/>
	<path class="st0" d="M602.4,674.1c1.9,1.1,2.6,2.9,2.9,5C603.4,678,602.7,676.2,602.4,674.1z"/>
	<path class="st0" d="M215.4,366.8c8.7,3.7,17.4,7.5,26.1,11.2c1,0.5,1.9,0.9,2.3,2.1c-10.1-3.8-20-8.2-29.5-13.2
		C214.6,366.3,215,366.3,215.4,366.8z"/>
	<path class="st0" d="M215.4,366.8c-0.4,0-0.8,0.1-1.1,0.1c-6-1.9-11.6-4.2-16.8-7.7C203.8,360.7,209.5,363.8,215.4,366.8z"/>
	<path class="st0" d="M190.7,356.3c2.6,0.1,4.8,1,6.6,2.9C194.7,359.2,192.5,358.1,190.7,356.3z"/>
	<path class="st0" d="M173.7,348.8c2.6,0,4.8,1.1,6.7,2.8C177.7,351.6,175.6,350.5,173.7,348.8z"/>
	<path class="st0" d="M167.1,345.9c1.9-0.1,3.5,0.4,4.7,1.9C169.9,347.9,168.3,347.4,167.1,345.9z"/>
	<path class="st0" d="M182.2,352.6c1.9-0.1,3.5,0.4,4.7,1.9C185.1,354.6,183.5,354,182.2,352.6z"/>
	<path class="st0" d="M415.1,356.3c0.3-0.3,0.6-0.7,0.9-0.9c3,3.8,5.3,8,7.6,12.3c0.5,1,0,1.1-0.9,0.9
		C420.2,364.5,417.7,360.3,415.1,356.3z"/>
	<path class="st0" d="M422.7,368.6c0.3-0.3,0.6-0.7,0.9-0.9c2.7,4.4,6.1,8.3,7.6,13.3C427.3,377.5,425.5,372.7,422.7,368.6z"/>
	<path class="st0" d="M431.1,381c2,1,2.6,2.8,2.8,4.8C432.3,384.7,431.3,383,431.1,381z"/>
	<path class="st0" d="M688.5,710.3c2.6,1.7,4.8,3.7,5.9,6.7C691.7,715.2,689.4,713.4,688.5,710.3z"/>
	<path class="st0" d="M695,717.7c2,1.6,4.4,3,4.8,6C697.9,722,695.5,720.6,695,717.7z"/>
	<path class="st0" d="M429.1,355.2c4.4,5.5,6.9,11.9,9.6,18.3C434.3,368,431.6,361.7,429.1,355.2z"/>
	<path class="st0" d="M435,317.5c0.3-0.4,0.6-0.7,0.9-1c3.9,7.9,5.9,16.6,9.3,24.6c-2.1,0.3-2.2-1.5-2.6-2.6
		C440,331.5,437.6,324.5,435,317.5z"/>
	<path class="st0" d="M119.9,358.2c-0.4,0.3-0.7,0.6-1,0.9c-10.8-3.8-21.5-7.6-32.3-11.4c-1.2-0.4-2.9-0.5-2.7-2.6
		C95.9,349.5,107.9,353.8,119.9,358.2z"/>
	<path class="st0" d="M861.7,730.2c0.3-0.3,0.6-0.6,0.9-0.8c8.4,5.5,17.1,10.6,25,16.9c-6.5-2.2-11.4-7.1-17.3-10.3
		C867.2,734.4,864.5,732.1,861.7,730.2z"/>
	<path class="st0" d="M558.9,673.4c2,3.9,3.6,7.9,3.8,12.2C560.6,681.8,559.2,677.8,558.9,673.4z"/>
	<path class="st0" d="M478.4,219c1.4,1.8,0.7,3.8,0.8,5.8C477.8,223,478.6,220.9,478.4,219z"/>
</g>
</svg>
