<?xml version="1.0" encoding="utf-8"?>
<!-- Generator: Adobe Illustrator 19.2.1, SVG Export Plug-In . SVG Version: 6.00 Build 0)  -->
<svg version="1.1" id="Layer_1" xmlns="http://www.w3.org/2000/svg" xmlns:xlink="http://www.w3.org/1999/xlink" x="0px" y="0px"
	 viewBox="0 0 483 1000" style="enable-background:new 0 0 483 1000;" xml:space="preserve">
<style type="text/css">
	.st0{opacity:0.31;}
	.st1{fill:url(#SVGID_1_);}
	.st2{fill:url(#SVGID_2_);}
	.st3{fill:url(#SVGID_3_);}
	.st4{fill:url(#SVGID_4_);}
	.st5{fill:url(#SVGID_5_);}
	.st6{fill:url(#SVGID_6_);}
	.st7{fill:url(#SVGID_7_);}
	.st8{fill:url(#SVGID_8_);}
	.st9{fill:url(#SVGID_9_);}
	.st10{fill:url(#SVGID_10_);}
	.st11{fill:url(#SVGID_11_);}
	.st12{fill:url(#SVGID_12_);}
	.st13{fill:url(#SVGID_13_);}
	.st14{fill:url(#SVGID_14_);}
	.st15{fill:url(#SVGID_15_);}
	.st16{fill:url(#SVGID_16_);}
	.st17{fill:url(#SVGID_17_);}
	.st18{fill:url(#SVGID_18_);}
	.st19{fill:url(#SVGID_19_);}
	.st20{fill:url(#SVGID_20_);}
	.st21{fill:url(#SVGID_21_);}
	.st22{fill:none;}
</style>
<g class="st0">
	
		<radialGradient id="SVGID_1_" cx="557.4" cy="809.25" r="158.7944" gradientTransform="matrix(1 0 0 -1 0 1000)" gradientUnits="userSpaceOnUse">
		<stop  offset="0" style="stop-color:#00FF00"/>
		<stop  offset="0.6579" style="stop-color:#004800"/>
	</radialGradient>
	<path class="st1" d="M596.4,62c-19.9,13.3-38.2,28.8-54.8,45.9c-32.9,33.6-59.7,73-81.2,114.9c-18.5,36.2-33,74.4-44.4,113.4
		c-2.1,7.5-4.3,14.9-6.2,22.4c0.8,0.5,1.5,1,2.4,1.4c8-27.1,17.3-53.8,28.5-79.7c21.1-49.1,48.7-95.7,83.9-136
		c16.5-18.9,34.6-36.4,54.4-51.7c24.9-19.4,52.4-35.4,82.2-46c14.2-5,28.9-8.8,43.8-10.9V21.5c-13.3,1.3-26.5,3.7-39.3,7.6
		C640.9,36.3,617.7,47.9,596.4,62L596.4,62z"/>
	
		<radialGradient id="SVGID_2_" cx="194.8999" cy="776" r="374.5433" gradientTransform="matrix(1 0 0 -1 0 1000)" gradientUnits="userSpaceOnUse">
		<stop  offset="0" style="stop-color:#00FF00"/>
		<stop  offset="0.6579" style="stop-color:#004800"/>
	</radialGradient>
	<path class="st2" d="M267.7,312.5c27.9,7.3,55.5,15.4,82.8,24.7c24.8,8.5,49.4,18,73,29.5c10.8-25.5,22.9-50.4,37.1-74.3
		c15.2-25.7,32.5-50,52-72.6c32.3-37.3,70.7-69.6,114.1-93.1c24.6-13.3,51-23.9,78.3-30.4v-15c-18.6,4.5-36.7,10.7-54.1,18.4
		c-24.9,11.1-48.4,25.3-70.1,41.8c-19.1,14.5-37,30.8-53.4,48.4c-25,26.8-46.7,56.6-65.1,88.2c-13.1,22.5-24.6,46-34.6,69.9
		c-2.5,5.7-4.7,11.6-7.1,17.2c-1-0.5-2-1-3-1.5c0-0.2,0.1-0.3,0.1-0.5l-2.8-1.4l-0.1,0.3c-22.9-13.2-47-24.4-71.3-34.8
		c-48.4-20.4-98.2-37.1-148.7-51.5c0,0-180.6-54-510-30.9v43.7c321.5-39,510,7.1,510,7.1C219.3,300.7,243.6,306.3,267.7,312.5
		L267.7,312.5z"/>
	
		<radialGradient id="SVGID_3_" cx="569" cy="742.9" r="126.3424" gradientTransform="matrix(1 0 0 -1 0 1000)" gradientUnits="userSpaceOnUse">
		<stop  offset="0" style="stop-color:#00FF00"/>
		<stop  offset="0.6579" style="stop-color:#004800"/>
	</radialGradient>
	<path class="st3" d="M520.7,249.1c-28.6,29.1-53.2,62.2-73.7,97.5c-4.8,8.2-9.5,16.7-13.9,25.2c1,0.4,2,1,3,1.3
		c0.4-0.1,0.5-0.6,0.8-0.9c12.2-21.9,25.8-43.2,41-63.1c18.3-24.1,38.8-46.6,61.6-66.5c38-33.5,82.2-60.4,130.1-77.2
		c11.6-4.1,23.4-7.6,35.3-10.4v-13.9c-24.9,6.1-49.1,15-72.1,26.3C591,187.8,553.2,215.9,520.7,249.1L520.7,249.1z"/>
	
		<radialGradient id="SVGID_4_" cx="575.95" cy="712.75" r="111.9476" gradientTransform="matrix(1 0 0 -1 0 1000)" gradientUnits="userSpaceOnUse">
		<stop  offset="0" style="stop-color:#00FF00"/>
		<stop  offset="0.6579" style="stop-color:#004800"/>
	</radialGradient>
	<path class="st4" d="M451,379.1L451,379.1c6-8.8,12.5-17.2,19-25.5c15.6-19.5,32.6-37.6,51.3-54.2c30.2-26.9,64.3-49.3,101.3-65.8
		c26.3-11.7,54-20.5,82.3-25.6v-12.6c-4.7,1-9.3,2-13.9,3.1c-25.8,6.2-51,15.4-74.9,27.1c-36.5,17.8-70,41.4-99.5,69.2
		c-17.6,16.5-33.6,34.5-48.4,53.6c-7.3,9.5-14.2,19.3-21,29.2H447L451,379.1L451,379.1z"/>
	
		<radialGradient id="SVGID_5_" cx="583.9" cy="684.75" r="99.1023" gradientTransform="matrix(1 0 0 -1 0 1000)" gradientUnits="userSpaceOnUse">
		<stop  offset="0" style="stop-color:#00FF00"/>
		<stop  offset="0.6579" style="stop-color:#004800"/>
	</radialGradient>
	<path class="st5" d="M504.1,340.5c-14.8,13.7-28.6,28.4-41.3,43.9c1.3,0.5,2.6,1,4,1.4c16.7-19.3,35-37.2,55-53.2
		c22.4-17.9,46.9-33.4,72.8-45.7c34.7-16.4,72.1-27.2,110.4-30.9v-11.3c-49.4,5.9-97,23.4-139.4,49.2
		C543.5,307.3,523,323,504.1,340.5L504.1,340.5z"/>
	
		<radialGradient id="SVGID_6_" cx="194.75" cy="638.1001" r="364.2652" gradientTransform="matrix(1 0 0 -1 0 1000)" gradientUnits="userSpaceOnUse">
		<stop  offset="0" style="stop-color:#00FF00"/>
		<stop  offset="0.6579" style="stop-color:#004800"/>
	</radialGradient>
	<path class="st6" d="M293,388.3c34-1.5,68-2.5,102.1-2c16.6,0.2,33.1,0.7,49.5,1.8c15.1,1,30.2,2.5,45.1,5.3
		c-1.5-0.5-3.2-0.7-4.8-1.4c2-2,4.1-3.8,6.1-5.7c17.8-16.2,37.2-30.8,58-43.1c26.2-15.6,54.5-27.5,84-34.9
		c23.5-5.9,47.7-8.7,71.8-8.2v-10.5c-42.7,0.4-85,11-123.5,29.2c-24,11.3-46.6,25.5-67.4,41.9c-11.8,9.3-22.9,19.4-33.6,29.8
		c-2.7-0.3-5.3-1.7-8-2.2c-14.4-4-29.2-6.8-44.1-9.1c-31.6-4.9-63.6-7.6-95.4-9.6c-40.2-2.4-80.6-3.2-120.8-3.1
		c-146.8,0.5-293.8,7.3-440.2,18.6c-4.2,0.3-51,3.5-87.1,6.5v42.6c133.3-11.6,266.7-21.9,400.2-31.5
		C154.4,397.6,223.7,391.7,293,388.3L293,388.3z"/>
	
		<radialGradient id="SVGID_7_" cx="603.05" cy="636.675" r="75.9741" gradientTransform="matrix(1 0 0 -1 0 1000)" gradientUnits="userSpaceOnUse">
		<stop  offset="0" style="stop-color:#00FF00"/>
		<stop  offset="0.6579" style="stop-color:#004800"/>
	</radialGradient>
	<path class="st7" d="M556.5,359.4c-19.7,10.2-38.3,22.5-55.5,36.5c1.4,0.3,2.9,0.7,4.2,0.9c0.4,0.1,0.9,0.3,1.3-0.1
		c20.2-15.5,42.3-28.7,65.8-38.7c28.6-12.2,59.5-19.7,90.7-19.7c14.2,0,28.4,1.7,42.1,5.4v-11c-20.7-3.8-42.1-3.8-63.1-1
		C612,335.7,583.1,345.6,556.5,359.4L556.5,359.4z"/>
	
		<radialGradient id="SVGID_8_" cx="549.85" cy="118.35" r="142.3275" gradientTransform="matrix(1 0 0 -1 0 1000)" gradientUnits="userSpaceOnUse">
		<stop  offset="0" style="stop-color:#00FF00"/>
		<stop  offset="0.6579" style="stop-color:#004800"/>
	</radialGradient>
	<path class="st8" d="M487.1,1002.6c83.6-49.3,155.8-111,217.8-185.6v-63.7c-5,7.2-10.3,14.2-15.6,21.2c-2.1,2.8-4.3,5.6-6.5,8.4
		c-73.6,93.9-170.6,173.1-279.4,223.3c-2.5,1.3-5.3,2.3-7.9,3.5c-0.3,0.1-0.4,0.2-0.7,0.3h78.1c0.2-0.1,0.4-0.2,0.6-0.3
		C478.1,1007.4,482.7,1005.2,487.1,1002.6L487.1,1002.6z"/>
	
		<radialGradient id="SVGID_9_" cx="671.2" cy="15.5999" r="29.9253" gradientTransform="matrix(1 0 0 -1 0 1000)" gradientUnits="userSpaceOnUse">
		<stop  offset="0" style="stop-color:#00FF00"/>
		<stop  offset="0.6579" style="stop-color:#004800"/>
	</radialGradient>
	<path class="st9" d="M691.1,997.9c4.6-3.5,9.2-7,13.8-10.5v-28.6c-4.8,4.5-10.1,8.5-15.2,12.7c-4.2,3.4-8.2,6.9-12.6,10.1
		c-5.1,3.8-10.2,7.6-15.3,11.5c-4.5,3.5-9.3,6.5-13.9,9.7c-3.4,2.3-6.6,4.6-10,6.9c-0.2,0.1-0.3,0.2-0.4,0.3h35.9
		c0.2-0.1,0.3-0.2,0.4-0.3C679.7,1005.8,685.5,1001.9,691.1,997.9L691.1,997.9z"/>
	
		<radialGradient id="SVGID_10_" cx="517.55" cy="828.05" r="152.9946" gradientTransform="matrix(1 0 0 -1 0 1000)" gradientUnits="userSpaceOnUse">
		<stop  offset="0" style="stop-color:#00FF00"/>
		<stop  offset="0.6579" style="stop-color:#004800"/>
	</radialGradient>
	<path class="st10" d="M508.3,61.7c-15,19.1-28,39.8-39.4,61.3c-18.3,34.5-32.5,71-43.5,108.4c-11.6,39.5-19.6,80-25.4,120.8
		c0.7,0.5,1.4,0.9,2.1,1.4c4.9-28.5,11-56.8,18.7-84.5c8.3-29.9,18.5-59.4,31.1-87.8c9.9-22.3,21.2-44,34.2-64.7
		c13.2-21,28.1-41,45.1-59.1c17.7-18.8,37.6-35.7,60.1-48.6c11.8-6.8,24.3-12.5,37.3-16.6c2.2-0.7,4.3-1.2,6.5-2H592
		c-10.9,5.3-21.2,11.8-30.9,18.9C541.1,24.1,523.7,42.2,508.3,61.7L508.3,61.7z"/>
	
		<radialGradient id="SVGID_11_" cx="448.2" cy="831.1" r="132.4762" gradientTransform="matrix(1 0 0 -1 0 1000)" gradientUnits="userSpaceOnUse">
		<stop  offset="0" style="stop-color:#00FF00"/>
		<stop  offset="0.6579" style="stop-color:#004800"/>
	</radialGradient>
	<path class="st11" d="M393.1,347.4L393.1,347.4c0.9-17.4,2-34.8,3.7-52c2.9-31.4,7.2-62.8,13.5-93.7c8-39.5,19.1-78.6,34.9-115.7
		c9.9-23,21.5-45.3,35.8-65.9c7.3-10.5,15.3-20.6,24.1-29.7h-22.9c-5.9,7.4-11.3,15.2-16.4,23.2c-14,22.4-24.9,46.7-33.9,71.5
		c-7.8,21.6-14.1,43.8-19.2,66.1c-7.1,31.1-12.1,62.7-15.5,94.4c-3.5,33.1-5.2,66.4-5.9,99.8v0.3c0.4,0.4,0.8,0.8,1.2,1.3l0,0
		L393.1,347.4L393.1,347.4z"/>
	
		<radialGradient id="SVGID_12_" cx="460" cy="1009.8" r="0" gradientTransform="matrix(1 0 0 -1 0 1000)" gradientUnits="userSpaceOnUse">
		<stop  offset="0" style="stop-color:#00FF00"/>
		<stop  offset="0.6579" style="stop-color:#004800"/>
	</radialGradient>
	<circle class="st12" cx="460" cy="-9.8" r="0"/>
	
		<radialGradient id="SVGID_13_" cx="419.3" cy="1009.8" r="0" gradientTransform="matrix(1 0 0 -1 0 1000)" gradientUnits="userSpaceOnUse">
		<stop  offset="0" style="stop-color:#00FF00"/>
		<stop  offset="0.6579" style="stop-color:#004800"/>
	</radialGradient>
	<circle class="st13" cx="419.3" cy="-9.8" r="0"/>
	
		<radialGradient id="SVGID_14_" cx="396.8572" cy="834.3" r="124.9765" gradientTransform="matrix(1 0 0 -1 0 1000)" gradientUnits="userSpaceOnUse">
		<stop  offset="0" style="stop-color:#00FF00"/>
		<stop  offset="0.6579" style="stop-color:#004800"/>
	</radialGradient>
	<path class="st14" d="M385.1,47.8c-7,37.6-9.8,75.8-10.6,113.9c-0.1,8.9-0.3,17.8-0.1,26.8c0.3,50.5,4.3,100.9,9.6,151.1
		c0.2,0.7,0.9,0.9,1.4,1.4c-2.4-32.2-4.1-64.5-4.5-96.8c-0.3-17.3-0.1-34.8,0.5-52.1c1.3-37.5,4.7-74.9,11.4-111.9
		c4.5-24.1,10.4-48,18.9-71c2.4-6.4,4.8-12.7,7.7-18.8h-19.1C393.4,8.9,388.6,28.3,385.1,47.8L385.1,47.8z"/>
	
		<radialGradient id="SVGID_15_" cx="310.6" cy="839.95" r="128.2132" gradientTransform="matrix(1 0 0 -1 0 1000)" gradientUnits="userSpaceOnUse">
		<stop  offset="0" style="stop-color:#00FF00"/>
		<stop  offset="0.6579" style="stop-color:#004800"/>
	</radialGradient>
	<path class="st15" d="M330.7,223.2c14,34.8,28.2,69.4,42,104.3c0.3,0.8,0.4,1.9,1.1,2.5c-0.6-2.5-1.6-4.9-2.5-7.3
		c-18.4-51.7-37.2-103.2-54.6-155.2c-9-27-17.7-54.2-25.7-81.7c-8.1-27.7-15.5-55.7-21.2-84c-0.8-3.9-1.5-7.8-2.2-11.7h-20.2
		c7,26.9,15.6,53.3,24.7,79.5C290.2,121.4,310.3,172.4,330.7,223.2L330.7,223.2z"/>
	
		<radialGradient id="SVGID_16_" cx="147.3" cy="844.85" r="193.7836" gradientTransform="matrix(1 0 0 -1 0 1000)" gradientUnits="userSpaceOnUse">
		<stop  offset="0" style="stop-color:#00FF00"/>
		<stop  offset="0.6579" style="stop-color:#004800"/>
	</radialGradient>
	<path class="st16" d="M167.6,129.3c48.7,36.9,93,80.1,135.7,123.7c21.2,21.6,41.8,43.7,61.9,66.4c0.3,0.3,0.5,0.6,0.8,0.9
		C316.5,258.1,263.2,198.9,206.6,143c-45.8-45.1-95.3-86.5-148-123.2C43.7,9.5,28.6-0.7,13.1-10h-84.5c37.2,14.1,73,32.5,107.2,52
		C81.6,68.1,125.6,97.6,167.6,129.3L167.6,129.3z"/>
	
		<radialGradient id="SVGID_17_" cx="254.55" cy="844.35" r="142.0281" gradientTransform="matrix(1 0 0 -1 0 1000)" gradientUnits="userSpaceOnUse">
		<stop  offset="0" style="stop-color:#00FF00"/>
		<stop  offset="0.6579" style="stop-color:#004800"/>
	</radialGradient>
	<path class="st17" d="M237.7,118.9c27.3,40.4,54.3,81,80.6,122.1c14.1,22.1,28.1,44.4,41.6,66.9c2.7,4.5,5.4,9,8.1,13.5
		c-5.5-10.6-11.4-21.1-17.2-31.6c-25.4-45.7-51.8-90.8-78.3-135.9c-25.9-44.1-51.9-88.1-77.6-132.3c-5.1-8.8-13.3-21.5-19.9-31.7
		h-33.9c25.2,28.1,53.8,66.3,53.8,66.3C209.3,77,223.5,98,237.7,118.9L237.7,118.9z"/>
	
		<radialGradient id="SVGID_18_" cx="33.05" cy="835.85" r="275.1973" gradientTransform="matrix(1 0 0 -1 0 1000)" gradientUnits="userSpaceOnUse">
		<stop  offset="0" style="stop-color:#00FF00"/>
		<stop  offset="0.6579" style="stop-color:#004800"/>
	</radialGradient>
	<path class="st18" d="M67.6,173.1c43.8,13.2,86.1,29.5,127,48.9c30.3,14.4,59.7,30.5,88.5,48.4c15.7,9.8,31.2,19.8,46.5,30.1
		c10.5,7.1,20.9,14.3,31.1,21.8c7,5,13.8,10.3,20.6,15.6l-1.6-1.4l0,0l0,0c-0.3-0.3-0.5-0.5-0.8-0.8c-1.5-8-3.2-15.9-4.8-23.9
		c-11.2-55.8-21.3-111.9-27.6-168.5c-3.7-33.7-6.1-67.6-5.9-101.6c0.1-17.2,1-34.3,3.1-51.3h-18.4c-1.4,27.5,0.3,55.1,2.8,82.5
		c2.8,29.1,7.1,58.1,12,87c9.9,57.5,23.2,114.4,36.8,171.1c0.3,1.4,0.6,3,1.4,4.2c-4.3-3.5-8.4-7.3-12.7-10.9
		c-33.2-28-68.3-53.4-104.3-77.7c-39.3-26.3-79.2-50.7-122.1-70.4c-36.8-16.7-74.6-31.1-113.1-43.6C-28.5,114.8-84.5,101-141.3,90.8
		c-57.6-10.2-115.6-16.7-173.9-19.5v54.3c70.4-3.3,141.2,0.1,211,9.9C-46.1,143.6,11.4,156.2,67.6,173.1L67.6,173.1z"/>
	
		<radialGradient id="SVGID_19_" cx="159.4708" cy="371.9249" r="376.2431" gradientTransform="matrix(1 0 0 -1 0 1000)" gradientUnits="userSpaceOnUse">
		<stop  offset="0" style="stop-color:#00FF00"/>
		<stop  offset="0.6579" style="stop-color:#004800"/>
	</radialGradient>
	<path class="st19" d="M559.3,402.6c12.1-6.5,25.6-10.1,39.3-10.8c4.6-0.2,9.7,0.1,13,3.3c4,3.8,3.9,10.2,2.8,15.6
		c-5.3,24.3-25.7,42-45.3,57.4C387.2,610.9,174.6,725.8-52.5,775.4c-4.6,1-9.3,2-13.9,3c-61.2,12.6-123.3,20.9-185.7,23.9
		c-21,1-42,1.4-63,1.1v65.3c94.1-4.4,188-17.2,279.6-38.9c79.2-18.7,156.2-45.9,230.2-79.7C293.4,705,387,648,473.8,583.3
		c18.9-14.2,37.6-28.8,55.7-44.1c18.5-15.7,36.5-32.1,53.4-49.5c8.8-9.2,17.3-18.7,25.2-28.7c7.5-9.7,14.5-19.8,19.9-30.8
		c3.1-6.5,5.6-13.4,6-20.6c0.3-5.2-1-10.8-4.7-14.6c-2.1-2.2-4.7-4.2-7.6-5.2c-7-2.5-14.4-2.7-21.7-2c-13.5,1.4-26.6,5.6-39.1,10.8
		c-3.1,1.4-6.4,2.6-9.3,4.4L559.3,402.6L559.3,402.6z"/>
	
		<radialGradient id="SVGID_20_" cx="134.2" cy="482.65" r="328.9668" gradientTransform="matrix(1 0 0 -1 0 1000)" gradientUnits="userSpaceOnUse">
		<stop  offset="0" style="stop-color:#00FF00"/>
		<stop  offset="0.6579" style="stop-color:#004800"/>
	</radialGradient>
	<path class="st20" d="M583.7,397.4l-32.5,5.3c-7.1,0.9-14,2.5-20.9,4.2c-28.3,6.9-56.3,14.7-84.4,22.4
		c-156.4,43-312.6,88.5-473.4,115.5c-26.2,4.4-52.5,8.4-78.8,12.2c-69.3,9.8-139.1,17.4-209,21.8v58.5
		c146.4-12.7,292.8-35.9,434.6-73.8c59.4-15.9,117.9-34.8,175.7-55.6C391.8,473.1,488.1,434.7,583.7,397.4L583.7,397.4z"/>
	
		<radialGradient id="SVGID_21_" cx="250.8" cy="313.7563" r="394.4659" gradientTransform="matrix(1 0 0 -1 0 1000)" gradientUnits="userSpaceOnUse">
		<stop  offset="0" style="stop-color:#00FF00"/>
		<stop  offset="0.6579" style="stop-color:#004800"/>
	</radialGradient>
	<path class="st21" d="M524.7,400.2c0.3,0,4.7,1.4,4.9,1.3c0.5-0.2,1.7-0.9,2.2-1.2c16.3-9.7,33.6-17.8,51.8-23.5
		c14.8-4.5,30.2-7.6,45.7-7.6c13.6-0.1,27.4,2.4,39.6,8.7c5.5,2.5,10,6.6,14.2,11c25.1,26.8,15.3,70.4,3.6,100.8
		c-38,98.1-113.1,179.5-192,246.4C325.9,879.4,110.4,942-109.7,996.1c-30.8,7.6-62.5,10.2-93.8,13.9H8.7
		c63.1-13.6,125.6-31,186.1-52.7c65.5-23.5,128.7-51.9,187.6-85.8c48.4-27.8,94.1-60.3,135.7-97.6
		c56.1-50.3,105.8-107.8,146.8-171.1c11.6-17.9,22.7-36.1,31.6-55.5c1.9-4.1,3.9-8.2,5.6-12.3c1-2.3,1.9-4.6,3-6.8V389.5
		c-3.8-4.2-7.7-8.2-12.3-11.6c-3.7-2.5-7.7-4.7-11.9-6.6c-12.9-6-27.3-8.5-41.6-8.8c-14.9-0.2-29.7,2-44.1,5.9
		C570.1,375.1,546.4,386.3,524.7,400.2L524.7,400.2z"/>
	<line class="st22" x1="413.7" y1="361.2" x2="419.2" y2="363.9"/>
</g>
</svg>
