<?xml version="1.0" encoding="utf-8"?>
<!-- Generator: Adobe Illustrator 19.2.1, SVG Export Plug-In . SVG Version: 6.00 Build 0)  -->
<svg version="1.1" id="Layer_1" xmlns="http://www.w3.org/2000/svg" xmlns:xlink="http://www.w3.org/1999/xlink" x="0px" y="0px"
	 viewBox="0 0 1000 1000" style="enable-background:new 0 0 1000 1000;" xml:space="preserve">
<style type="text/css">
	.st0{fill:#E6E6E6;}
	.st1{fill:none;}
</style>
<g>
	<path class="st0" d="M901.5,62c-19.9,13.3-38.2,28.8-54.8,45.9c-32.9,33.6-59.7,73-81.2,114.9c-18.5,36.2-33,74.4-44.4,113.4
		c-2.1,7.5-4.3,14.9-6.2,22.4c0.8,0.5,1.5,1,2.4,1.4c8-27.1,17.3-53.8,28.5-79.7c21.1-49.1,48.7-95.7,83.9-136
		c16.5-18.9,34.6-36.4,54.4-51.7c24.9-19.4,52.4-35.4,82.2-46c14.2-5,28.9-8.8,43.8-10.9V21.5c-13.3,1.3-26.5,3.7-39.3,7.6
		C946,36.3,922.8,47.9,901.5,62L901.5,62z"/>
	<path class="st0" d="M572.8,312.5c27.9,7.3,55.5,15.4,82.8,24.7c24.8,8.5,49.4,18,73,29.5c10.8-25.5,22.9-50.4,37.1-74.3
		c15.2-25.7,32.5-50,52-72.6c32.3-37.3,70.7-69.6,114.1-93.1c24.6-13.3,51-23.9,78.3-30.4v-15C991.5,85.8,973.4,92,956,99.7
		c-24.9,11.1-48.4,25.3-70.1,41.8c-19.1,14.5-37,30.8-53.4,48.4c-25,26.8-46.7,56.6-65.1,88.2c-13.1,22.5-24.6,46-34.6,69.9
		c-2.5,5.7-4.7,11.6-7.1,17.2c-1-0.5-2-1-3-1.5c0-0.2,0.1-0.3,0.1-0.5l-2.8-1.4l-0.1,0.3c-22.9-13.2-47-24.4-71.3-34.8
		c-48.4-20.4-98.2-37.1-148.7-51.5c0,0-180.6-54-510-30.9v43.7c321.5-39,510,7.1,510,7.1C524.4,300.7,548.7,306.3,572.8,312.5
		L572.8,312.5z"/>
	<path class="st0" d="M825.8,249.1c-28.6,29.1-53.2,62.2-73.7,97.5c-4.8,8.2-9.5,16.7-13.9,25.2c1,0.4,2,1,3,1.3
		c0.4-0.1,0.5-0.6,0.8-0.9c12.2-21.9,25.8-43.2,41-63.1c18.3-24.1,38.8-46.6,61.6-66.5c38-33.5,82.2-60.4,130.1-77.2
		c11.6-4.1,23.4-7.6,35.3-10.4v-13.9c-24.9,6.1-49.1,15-72.1,26.3C896.1,187.8,858.3,215.9,825.8,249.1L825.8,249.1z"/>
	<path class="st0" d="M756.1,379.1L756.1,379.1c6-8.8,12.5-17.2,19-25.5c15.6-19.5,32.6-37.6,51.3-54.2
		c30.2-26.9,64.3-49.3,101.3-65.8c26.3-11.7,54-20.5,82.3-25.6v-12.6c-4.7,1-9.3,2-13.9,3.1c-25.8,6.2-51,15.4-74.9,27.1
		c-36.5,17.8-70,41.4-99.5,69.2c-17.6,16.5-33.6,34.5-48.4,53.6c-7.3,9.5-14.2,19.3-21,29.2h-0.2L756.1,379.1L756.1,379.1z"/>
	<path class="st0" d="M809.2,340.5c-14.8,13.7-28.6,28.4-41.3,43.9c1.3,0.5,2.6,1,4,1.4c16.7-19.3,35-37.2,55-53.2
		c22.4-17.9,46.9-33.4,72.8-45.7c34.7-16.4,72.1-27.2,110.4-30.9v-11.3c-49.4,5.9-97,23.4-139.4,49.2
		C848.6,307.3,828.1,323,809.2,340.5L809.2,340.5z"/>
	<path class="st0" d="M598.1,388.3c34-1.5,68-2.5,102.1-2c16.6,0.2,33.1,0.7,49.5,1.8c15.1,1,30.2,2.5,45.1,5.3
		c-1.5-0.5-3.2-0.7-4.8-1.4c2-2,4.1-3.8,6.1-5.7c17.8-16.2,37.2-30.8,58-43.1c26.2-15.6,54.5-27.5,84-34.9
		c23.5-5.9,47.7-8.7,71.8-8.2v-10.5c-42.7,0.4-85,11-123.5,29.2c-24,11.3-46.6,25.5-67.4,41.9c-11.8,9.3-22.9,19.4-33.6,29.8
		c-2.7-0.3-5.3-1.7-8-2.2c-14.4-4-29.2-6.8-44.1-9.1c-31.6-4.9-63.6-7.6-95.4-9.6c-40.2-2.4-80.6-3.2-120.8-3.1
		c-146.8,0.5-293.8,7.3-440.2,18.6c-4.2,0.3-51,3.5-87.1,6.5v42.6c133.3-11.6,266.7-21.9,400.2-31.5
		C459.5,397.6,528.8,391.7,598.1,388.3L598.1,388.3z"/>
	<path class="st0" d="M861.6,359.4c-19.7,10.2-38.3,22.5-55.5,36.5c1.4,0.3,2.9,0.7,4.2,0.9c0.4,0.1,0.9,0.3,1.3-0.1
		c20.2-15.5,42.3-28.7,65.8-38.7c28.6-12.2,59.5-19.7,90.7-19.7c14.2,0,28.4,1.7,42.1,5.4v-11c-20.7-3.8-42.1-3.8-63.1-1
		C917.1,335.7,888.2,345.6,861.6,359.4L861.6,359.4z"/>
	<path class="st0" d="M792.2,1002.6C875.8,953.3,948,891.6,1010,817v-63.7c-5,7.2-10.3,14.2-15.6,21.2c-2.1,2.8-4.3,5.6-6.5,8.4
		c-73.6,93.9-170.6,173.1-279.4,223.3c-2.5,1.3-5.3,2.3-7.9,3.5c-0.3,0.1-0.4,0.2-0.7,0.3H778c0.2-0.1,0.4-0.2,0.6-0.3
		C783.2,1007.4,787.8,1005.2,792.2,1002.6L792.2,1002.6z"/>
	<path class="st0" d="M996.2,997.9c4.6-3.5,9.2-7,13.8-10.5v-28.6c-4.8,4.5-10.1,8.5-15.2,12.7c-4.2,3.4-8.2,6.9-12.6,10.1
		c-5.1,3.8-10.2,7.6-15.3,11.5c-4.5,3.5-9.3,6.5-13.9,9.7c-3.4,2.3-6.6,4.6-10,6.9c-0.2,0.1-0.3,0.2-0.4,0.3h35.9
		c0.2-0.1,0.3-0.2,0.4-0.3C984.8,1005.8,990.6,1001.9,996.2,997.9L996.2,997.9z"/>
	<path class="st0" d="M813.4,61.7c-15,19.1-28,39.8-39.4,61.3c-18.3,34.5-32.5,71-43.5,108.4c-11.6,39.5-19.6,80-25.4,120.8
		c0.7,0.5,1.4,0.9,2.1,1.4c4.9-28.5,11-56.8,18.7-84.5c8.3-29.9,18.5-59.4,31.1-87.8c9.9-22.3,21.2-44,34.2-64.7
		c13.2-21,28.1-41,45.1-59.1c17.7-18.8,37.6-35.7,60.1-48.6c11.8-6.8,24.3-12.5,37.3-16.6c2.2-0.7,4.3-1.2,6.5-2h-43.1
		c-10.9,5.3-21.2,11.8-30.9,18.9C846.2,24.1,828.8,42.2,813.4,61.7L813.4,61.7z"/>
	<path class="st0" d="M698.2,347.4L698.2,347.4c0.9-17.4,2-34.8,3.7-52c2.9-31.4,7.2-62.8,13.5-93.7c8-39.5,19.1-78.6,34.9-115.7
		c9.9-23,21.5-45.3,35.8-65.9c7.3-10.5,15.3-20.6,24.1-29.7h-22.9c-5.9,7.4-11.3,15.2-16.4,23.2c-14,22.4-24.9,46.7-33.9,71.5
		c-7.8,21.6-14.1,43.8-19.2,66.1c-7.1,31.1-12.1,62.7-15.5,94.4c-3.5,33.1-5.2,66.4-5.9,99.8v0.3c0.4,0.4,0.8,0.8,1.2,1.3l0,0
		L698.2,347.4L698.2,347.4z"/>
	<circle class="st0" cx="765.1" cy="-9.8" r="0"/>
	<circle class="st0" cx="724.4" cy="-9.8" r="0"/>
	<path class="st0" d="M690.2,47.8c-7,37.6-9.8,75.8-10.6,113.9c-0.1,8.9-0.3,17.8-0.1,26.8c0.3,50.5,4.3,100.9,9.6,151.1
		c0.2,0.7,0.9,0.9,1.4,1.4c-2.4-32.2-4.1-64.5-4.5-96.8c-0.3-17.3-0.1-34.8,0.5-52.1c1.3-37.5,4.7-74.9,11.4-111.9
		c4.5-24.1,10.4-48,18.9-71c2.4-6.4,4.8-12.7,7.7-18.8h-19.1C698.5,8.9,693.7,28.3,690.2,47.8L690.2,47.8z"/>
	<path class="st0" d="M635.8,223.2c14,34.8,28.2,69.4,42,104.3c0.3,0.8,0.4,1.9,1.1,2.5c-0.6-2.5-1.6-4.9-2.5-7.3
		c-18.4-51.7-37.2-103.2-54.6-155.2c-9-27-17.7-54.2-25.7-81.7c-8.1-27.7-15.5-55.7-21.2-84c-0.8-3.9-1.5-7.8-2.2-11.7h-20.2
		c7,26.9,15.6,53.3,24.7,79.5C595.3,121.4,615.4,172.4,635.8,223.2L635.8,223.2z"/>
	<path class="st0" d="M472.7,129.3c48.7,36.9,93,80.1,135.7,123.7c21.2,21.6,41.8,43.7,61.9,66.4c0.3,0.3,0.5,0.6,0.8,0.9
		c-49.5-62.2-102.8-121.4-159.4-177.3c-45.8-45.1-95.3-86.5-148-123.2C348.8,9.5,333.7-0.7,318.2-10h-84.5
		c37.2,14.1,73,32.5,107.2,52C386.7,68.1,430.7,97.6,472.7,129.3L472.7,129.3z"/>
	<path class="st0" d="M542.8,118.9c27.3,40.4,54.3,81,80.6,122.1c14.1,22.1,28.1,44.4,41.6,66.9c2.7,4.5,5.4,9,8.1,13.5
		c-5.5-10.6-11.4-21.1-17.2-31.6c-25.4-45.7-51.8-90.8-78.3-135.9c-25.9-44.1-51.9-88.1-77.6-132.3c-5.1-8.8-13.3-21.5-19.9-31.7
		h-33.9C471.4,18,500,56.2,500,56.2C514.4,77,528.6,98,542.8,118.9L542.8,118.9z"/>
	<path class="st0" d="M372.7,173.1c43.8,13.2,86.1,29.5,127,48.9c30.3,14.4,59.7,30.5,88.5,48.4c15.7,9.8,31.2,19.8,46.5,30.1
		c10.5,7.1,20.9,14.3,31.1,21.8c7,5,13.8,10.3,20.6,15.6l-1.6-1.4l0,0l0,0c-0.3-0.3-0.5-0.5-0.8-0.8c-1.5-8-3.2-15.9-4.8-23.9
		C668,256,657.9,199.9,651.6,143.3c-3.7-33.7-6.1-67.6-5.9-101.6c0.1-17.2,1-34.3,3.1-51.3h-18.4c-1.4,27.5,0.3,55.1,2.8,82.5
		c2.8,29.1,7.1,58.1,12,87c9.9,57.5,23.2,114.4,36.8,171.1c0.3,1.4,0.6,3,1.4,4.2c-4.3-3.5-8.4-7.3-12.7-10.9
		c-33.2-28-68.3-53.4-104.3-77.7c-39.3-26.3-79.2-50.7-122.1-70.4c-36.8-16.7-74.6-31.1-113.1-43.6
		c-54.6-17.8-110.6-31.6-167.4-41.8C106.2,80.6,48.2,74.1-10.1,71.3v54.3c70.4-3.3,141.2,0.1,211,9.9
		C259,143.6,316.5,156.2,372.7,173.1L372.7,173.1z"/>
	<path class="st0" d="M864.4,402.6c12.1-6.5,25.6-10.1,39.3-10.8c4.6-0.2,9.7,0.1,13,3.3c4,3.8,3.9,10.2,2.8,15.6
		c-5.3,24.3-25.7,42-45.3,57.4C692.3,610.9,479.7,725.8,252.6,775.4c-4.6,1-9.3,2-13.9,3C177.5,791,115.4,799.3,53,802.3
		c-21,1-42,1.4-63,1.1v65.3c94.1-4.4,188-17.2,279.6-38.9c79.2-18.7,156.2-45.9,230.2-79.7c98.7-45.1,192.3-102.1,279.1-166.8
		c18.9-14.2,37.6-28.8,55.7-44.1c18.5-15.7,36.5-32.1,53.4-49.5c8.8-9.2,17.3-18.7,25.2-28.7c7.5-9.7,14.5-19.8,19.9-30.8
		c3.1-6.5,5.6-13.4,6-20.6c0.3-5.2-1-10.8-4.7-14.6c-2.1-2.2-4.7-4.2-7.6-5.2c-7-2.5-14.4-2.7-21.7-2c-13.5,1.4-26.6,5.6-39.1,10.8
		c-3.1,1.4-6.4,2.6-9.3,4.4L864.4,402.6L864.4,402.6z"/>
	<path class="st0" d="M888.8,397.4l-32.5,5.3c-7.1,0.9-14,2.5-20.9,4.2c-28.3,6.9-56.3,14.7-84.4,22.4
		c-156.4,43-312.6,88.5-473.4,115.5c-26.2,4.4-52.5,8.4-78.8,12.2c-69.3,9.8-139.1,17.4-209,21.8v58.5
		c146.4-12.7,292.8-35.9,434.6-73.8c59.4-15.9,117.9-34.8,175.7-55.6C696.9,473.1,793.2,434.7,888.8,397.4L888.8,397.4z"/>
	<path class="st0" d="M829.8,400.2c0.3,0,4.7,1.4,4.9,1.3c0.5-0.2,1.7-0.9,2.2-1.2c16.3-9.7,33.6-17.8,51.8-23.5
		c14.8-4.5,30.2-7.6,45.7-7.6c13.6-0.1,27.4,2.4,39.6,8.7c5.5,2.5,10,6.6,14.2,11c25.1,26.8,15.3,70.4,3.6,100.8
		c-38,98.1-113.1,179.5-192,246.4C631,879.4,415.5,942,195.4,996.1c-30.8,7.6-62.5,10.2-93.8,13.9h212.2
		c63.1-13.6,125.6-31,186.1-52.7c65.5-23.5,128.7-51.9,187.6-85.8c48.4-27.8,94.1-60.3,135.7-97.6
		c56.1-50.3,105.8-107.8,146.8-171.1c11.6-17.9,22.7-36.1,31.6-55.5c1.9-4.1,3.9-8.2,5.6-12.3c1-2.3,1.9-4.6,3-6.8V389.5
		c-3.8-4.2-7.7-8.2-12.3-11.6c-3.7-2.5-7.7-4.7-11.9-6.6c-12.9-6-27.3-8.5-41.6-8.8c-14.9-0.2-29.7,2-44.1,5.9
		C875.2,375.1,851.5,386.3,829.8,400.2L829.8,400.2z"/>
	<line class="st1" x1="718.8" y1="361.2" x2="724.3" y2="363.9"/>
</g>
</svg>
