<?xml version="1.0" encoding="utf-8"?>
<!-- Generator: Adobe Illustrator 19.2.1, SVG Export Plug-In . SVG Version: 6.00 Build 0)  -->
<svg version="1.1" id="Layer_1" xmlns="http://www.w3.org/2000/svg" xmlns:xlink="http://www.w3.org/1999/xlink" x="0px" y="0px"
	 viewBox="0 0 1000 1000" style="enable-background:new 0 0 1000 1000;" xml:space="preserve">
<style type="text/css">
	.st0{fill:#DCDCDC;}
	.st1{fill:#C8C8C8;}
	.st2{fill:#FFFFFF;}
	.st3{fill:#D2D2D2;}
	.st4{fill:#F0F0F0;}
	.st5{fill:#939393;}
	.st6{fill:#E6E6E6;}
</style>
<g id="Background">
</g>
<g id="bg_copy">
</g>
<polygon class="st0" points="740.9,623.9 796.9,837.6 842.4,554.4 "/>
<polygon class="st1" points="617.4,708.7 796.9,837.6 740.9,623.9 "/>
<polygon class="st1" points="476.5,664.5 382.1,723.8 617.4,708.7 "/>
<polygon class="st0" points="399.7,830.8 410,893.3 796.9,837.6 617.4,708.7 "/>
<polygon class="st1" points="902.5,462.2 885.1,489 885.1,489 921,465.6 "/>
<polygon class="st2" points="288.6,893.3 410,893.3 399.7,830.8 "/>
<polygon class="st1" points="617.4,708.7 382.1,723.8 399.7,830.8 "/>
<polygon class="st0" points="382.1,723.8 267.8,872.5 288.6,893.3 399.7,830.8 "/>
<polygon class="st0" points="908.5,726.5 890.2,542 842.4,554.4 "/>
<polygon class="st3" points="415,645.2 382.1,723.8 476.5,664.5 "/>
<polygon class="st4" points="885.1,489 1005.8,481.4 921,465.6 "/>
<polygon class="st4" points="908.5,726.5 796.9,837.6 963.7,870.4 "/>
<polygon class="st1" points="842.4,554.4 890.2,542 885.1,489 885.1,489 885.1,489 "/>
<polygon class="st1" points="796.9,837.6 908.5,726.5 908.5,726.5 842.4,554.4 "/>
<circle class="st5" cx="908.5" cy="726.5" r="0"/>
<polygon class="st1" points="1005.8,481.4 1005.8,481.4 975.7,430.1 921,465.6 "/>
<path class="st5" d="M908.5,726.5L908.5,726.5L908.5,726.5z"/>
<polygon class="st3" points="183.6,647.8 131.8,736.5 382.1,723.8 "/>
<polygon class="st1" points="645.5,955.9 796.9,837.6 410,893.3 "/>
<path class="st0" d="M275.9,994.9c66.8-50.3,134-101.7,134-101.7H288.6L275.9,994.9z"/>
<path class="st5" d="M1005.8,481.4L1005.8,481.4L1005.8,481.4z"/>
<polygon class="st4" points="1004.7,305.4 931,353.8 950.9,387.8 "/>
<polygon class="st0" points="131.8,736.5 267.8,872.5 382.1,723.8 "/>
<polygon class="st2" points="740.9,623.9 842.4,554.4 712.6,516.1 "/>
<polygon class="st0" points="842.4,554.4 885.1,489 708.4,500 712.6,516.1 "/>
<polygon class="st0" points="902.5,462.2 796.2,442.3 708.4,500 885.1,489 "/>
<polygon class="st0" points="476.5,664.5 617.4,708.7 583.6,597.1 "/>
<polygon class="st0" points="796.9,837.6 645.5,955.9 833.6,1005.8 953.8,1005.8 "/>
<polygon class="st0" points="908.5,726.5 1005.8,770.6 1005.8,629.5 "/>
<path class="st5" d="M1005.8,481.4L1005.8,481.4L1005.8,481.4z"/>
<polygon class="st0" points="908.5,726.5 908.5,726.5 1005.8,629.5 1005.8,512.3 890.2,542 "/>
<polygon class="st2" points="796.9,837.6 953.8,1005.8 1005.8,1005.8 1005.8,980.3 963.7,870.4 "/>
<polygon class="st4" points="1005.8,980.3 1005.8,878.7 963.7,870.4 "/>
<polygon class="st1" points="963.7,870.4 1005.8,878.7 1005.8,770.6 908.5,726.5 "/>
<polygon class="st0" points="1005.8,481.4 1005.8,481.4 1005.8,410.5 975.7,430.1 "/>
<polygon class="st0" points="950.9,387.8 975.7,430.1 1005.8,410.5 1005.8,304.6 1004.7,305.4 "/>
<polygon class="st5" points="1004.7,305.4 1005.8,304.6 1005.8,303.6 "/>
<polygon class="st1" points="931,353.8 1004.7,305.4 1005.8,303.6 1005.8,283.8 903.1,306.5 "/>
<polygon class="st1" points="902.5,462.2 950.9,387.8 931,353.8 796.2,442.3 "/>
<polygon class="st0" points="390.9,489 373.5,435.4 326.4,476.1 "/>
<polygon class="st0" points="684.9,399.5 686.4,367.6 653.3,379.7 "/>
<polygon class="st0" points="530.6,389 514.8,408.2 542.5,423.6 "/>
<polygon class="st0" points="101.3,295.6 79,284.4 70.2,314.9 "/>
<polygon class="st0" points="249.4,130.9 223.1,119.4 220.3,152.4 "/>
<polygon class="st0" points="413.3,473.7 409.7,453.3 400,468.8 "/>
<polygon class="st0" points="921,465.6 975.7,430.1 950.9,387.8 902.5,462.2 "/>
<path class="st0" d="M275.9,994.9l-1.4,10.9h149.2l-13.9-112.5C410,893.3,342.8,944.6,275.9,994.9z"/>
<polygon class="st0" points="581.7,1005.8 833.6,1005.8 645.5,955.9 "/>
<path class="st6" d="M288.6,893.3L268,872.5l-102.4,133.3h96c4.8-3.5,9.6-7.2,14.4-10.9L288.6,893.3z"/>
<path class="st5" d="M261.5,1005.8h13l1.4-10.9C271.1,998.6,266.3,1002.3,261.5,1005.8z"/>
<polygon class="st2" points="410,893.3 423.9,1005.8 581.7,1005.8 645.5,955.9 "/>
<polygon class="st0" points="-5.8,575.2 -5.8,742.4 148.8,634.4 "/>
<polygon class="st2" points="183.6,647.8 148.8,634.4 -5.8,742.4 -5.8,889.2 131.8,736.5 "/>
<polygon class="st0" points="267.8,872.5 131.8,736.5 165.5,1005.8 "/>
<polygon class="st0" points="131.8,736.5 -5.8,889.2 -5.8,1005.8 "/>
<polygon class="st1" points="165.5,1005.8 131.8,736.5 -5.8,1005.8 "/>
<polygon class="st0" points="965.4,138.6 1005.8,115.6 1005.8,-5.8 936.9,114.9 "/>
<polygon class="st0" points="880.1,67.8 867.7,116.8 903.1,174 936.9,114.9 "/>
<polygon class="st4" points="965.4,138.6 936.9,114.9 903.1,174 903.1,174 "/>
<polygon class="st0" points="898.7,-5.8 791.6,-5.8 880.1,67.8 "/>
<polygon class="st4" points="903.1,174 867.7,116.8 842.4,174.4 "/>
<path class="st5" d="M903.1,174L903.1,174L903.1,174z"/>
<polygon class="st1" points="789.2,51.8 683.2,55.8 766.6,140.9 "/>
<polygon class="st0" points="873.5,243.7 883.7,262.4 910.2,241.5 "/>
<polygon class="st4" points="773.3,209.3 783.5,228 796.2,210.4 "/>
<polygon class="st4" points="684.2,282.4 571.8,321.1 674.6,331.9 "/>
<polygon class="st0" points="1005.8,214.2 903.1,306.5 1005.8,283.8 "/>
<polygon class="st4" points="903.1,174 903.1,174 948,207.1 1005.8,194.4 1005.8,188.9 "/>
<polygon class="st0" points="1005.8,172.2 1005.8,115.6 965.4,138.6 "/>
<polygon class="st0" points="903.1,174 1005.8,188.9 1005.8,172.2 965.4,138.6 "/>
<polygon class="st0" points="931,353.8 903.1,306.5 796.2,442.3 "/>
<polygon class="st1" points="91.7,472.6 220.8,584.2 247.8,448.9 "/>
<polygon class="st4" points="261.8,406.5 182.2,338.8 185,409.7 "/>
<polygon class="st0" points="312.7,406.3 333.6,418.4 340.4,399 "/>
<polygon class="st4" points="803.5,409.5 768.1,357.6 758.6,399.2 "/>
<polygon class="st4" points="597.5,77.4 559.4,47.3 545.1,98.9 "/>
<polygon class="st4" points="531,154 536,173.5 559.3,162.5 "/>
<polygon class="st0" points="532.6,58.8 489.3,91.3 535.3,81.7 "/>
<polygon class="st2" points="624.2,-4.7 573.5,-5.8 596.2,20 "/>
<polygon class="st0" points="247.8,448.9 220.8,584.2 329.4,514.4 "/>
<polygon class="st0" points="148.8,634.4 183.6,647.8 220.8,584.2 "/>
<polygon class="st0" points="183.6,647.8 382.1,723.8 220.8,584.2 "/>
<polygon class="st3" points="91.7,472.6 70.7,454.5 70.7,454.5 1.3,515.4 220.8,584.2 "/>
<polygon class="st0" points="70.7,454.5 70.7,454.5 -5.8,388.2 -5.8,513.2 1.3,515.4 "/>
<polygon class="st1" points="382.1,723.8 415,645.2 220.8,584.2 "/>
<polygon class="st5" points="-5.8,513.2 -5.8,521.6 1.3,515.4 "/>
<polygon class="st1" points="1.3,515.4 -5.8,521.6 -5.8,575.2 148.8,634.4 220.8,584.2 "/>
<polygon class="st0" points="126.5,378.1 56.9,380.2 77.8,398.3 "/>
<polygon class="st5" points="91.7,472.6 70.7,454.5 70.7,454.5 "/>
<polygon class="st5" points="70.7,454.5 -5.8,388.2 -5.8,388.2 "/>
<polygon class="st0" points="708.4,500 543.5,464.8 583.6,597.1 712.6,516.1 "/>
<polygon class="st0" points="459,531 415,645.2 543.5,464.8 "/>
<polygon class="st2" points="708.4,500 796.2,442.3 543.5,464.8 "/>
<polygon class="st0" points="543.5,464.8 796.2,442.3 640.4,413.4 "/>
<polygon class="st4" points="617.4,708.7 740.9,623.9 583.6,597.1 "/>
<polygon class="st0" points="583.6,597.1 740.9,623.9 712.6,516.1 "/>
<polygon class="st1" points="1005.8,512.3 1005.8,481.4 890.2,542 "/>
<polygon class="st0" points="885.1,489 890.2,542 1005.8,481.4 "/>
<polygon class="st2" points="936.9,114.9 1005.8,-5.8 882.7,69.8 "/>
<polygon class="st0" points="880.1,67.8 882.7,69.8 1005.8,-5.8 898.7,-5.8 "/>
<polygon class="st1" points="122.5,175.8 214.3,175.8 214.3,302.1 "/>
<polygon class="st4" points="122.5,175.8 45.3,233.9 174.4,247.1 "/>
<polygon class="st0" points="220.8,584.2 415,645.2 329.4,514.4 "/>
<polygon class="st1" points="329.4,514.4 415,645.2 459,531 "/>
<polygon class="st1" points="543.5,464.8 415,645.2 583.6,597.1 "/>
<polygon class="st2" points="415,645.2 476.5,664.5 583.6,597.1 "/>
<polygon class="st0" points="239.9,150.6 242.9,161 230.7,157.4 "/>
</svg>
