<?xml version="1.0" encoding="utf-8"?>
<!-- Generator: Adobe Illustrator 19.2.1, SVG Export Plug-In . SVG Version: 6.00 Build 0)  -->
<svg version="1.1" id="Layer_1" xmlns="http://www.w3.org/2000/svg" xmlns:xlink="http://www.w3.org/1999/xlink" x="0px" y="0px"
	 viewBox="0 0 960 560" style="enable-background:new 0 0 960 560;" xml:space="preserve">
<style type="text/css">
	.st0{fill:#445EAA;}
	.st1{fill:#DFA526;}
	.st2{fill:#41B349;}
	.st3{fill-rule:evenodd;clip-rule:evenodd;fill:#FFFFFF;}
	.st4{fill:#C7C7C7;}
	.st5{fill:#EF8022;}
	.st6{fill:#1058A2;}
	.st7{fill:#EE8022;}
	.st8{fill:#D51F26;}
	.st9{fill:#C72026;}
	.st10{fill:#477D3B;}
	.st11{fill:#FFFFFF;}
</style>
<g>
	<path class="st0" d="M665.1,110.3h-9.6V94.5h3.5v12.8h6.1V110.3z M659.8,143.8h-46.3v-9.7h46.3V143.8z M611.7,103.7v6.6h-3.5V94.5
		h3.5v6.1h5.7v-6.1h3.5v15.8h-3.5v-6.6H611.7z M613.5,78.7H646v11.9h-32.5V78.7z M636.5,123.9c-2.5-0.9-4.2-2.3-4.2-4.5
		c0-2.6,2.2-4.6,5.7-4.6c1.7,0,3,0.4,3.9,0.8l-0.8,2.8c-0.6-0.3-1.7-0.7-3.2-0.7c-1.5,0-2.2,0.7-2.2,1.5c0,1,0.8,1.4,2.8,2.1
		c2.7,1,3.9,2.4,3.9,4.5c0,2.5-2,4.7-6.1,4.7c-1.7,0-3.4-0.4-4.3-0.9l0.7-2.8c0.9,0.5,2.3,0.9,3.8,0.9c1.6,0,2.4-0.6,2.4-1.6
		C639,125.1,638.3,124.5,636.5,123.9z M630.3,97.5v12.8h-3.5V97.5h-4.1v-3h11.8v3H630.3z M627.1,127.6c1,0,2.2-0.2,2.9-0.5l0.5,2.7
		c-0.6,0.3-2,0.6-3.9,0.6c-5.2,0-7.9-3.3-7.9-7.6c0-5.2,3.7-8.1,8.3-8.1c1.8,0,3.1,0.4,3.7,0.7l-0.7,2.7c-0.7-0.3-1.7-0.6-2.9-0.6
		c-2.7,0-4.8,1.6-4.8,5C622.2,125.7,624,127.6,627.1,127.6z M647.5,94.5h4.5l0.8,15.8h-3.4l-0.2-6c-0.1-1.9-0.1-4.2-0.1-6.5H649
		c-0.5,2-1.1,4.3-1.7,6.1l-1.9,6.2h-2.7l-1.6-6.1c-0.5-1.8-1-4.1-1.4-6.2h-0.1c-0.1,2.1-0.2,4.6-0.3,6.5l-0.3,6h-3.2l1-15.8h4.6
		l1.5,5.3c0.5,1.8,1,3.8,1.3,5.6h0.1c0.4-1.8,1-3.9,1.5-5.7L647.5,94.5z M650.7,121.2c2.7,1,3.9,2.4,3.9,4.5c0,2.5-2,4.7-6.1,4.7
		c-1.7,0-3.4-0.4-4.3-0.9l0.7-2.8c0.9,0.5,2.3,0.9,3.8,0.9c1.6,0,2.4-0.7,2.4-1.6c0-0.9-0.7-1.5-2.5-2.1c-2.5-0.9-4.2-2.3-4.2-4.5
		c0-2.6,2.2-4.6,5.7-4.6c1.7,0,3,0.4,3.9,0.8l-0.8,2.8c-0.6-0.3-1.7-0.7-3.2-0.7c-1.5,0-2.2,0.7-2.2,1.5
		C647.9,120.1,648.8,120.5,650.7,121.2z M663.3,90.6h-2.4l-12.5-14.2c0,0,0,0,0,0c-0.1-0.1-0.2-0.2-0.3-0.2c0,0-0.1,0-0.1-0.1
		c-0.1,0-0.2-0.1-0.3-0.1c0,0-0.1,0-0.1,0c-0.1,0-0.2,0-0.3,0h-33.9c-1.5,0-2.8,1.3-2.8,2.8v11.9H610c-2.8,0-5,2.2-5,5v33.5
		c0,2.7,2.3,5,5,5h0.7v10.5c0,1.5,1.3,2.8,2.8,2.8h46.3c1.5,0,2.8-1.3,2.8-2.8v-10.5h0.7c2.8,0,5-2.3,5-5V95.6
		C668.3,92.9,666.1,90.6,663.3,90.6z"/>
	<path class="st1" d="M761.5,101.5h-46.3V78.7h32.5V93c0,0.8,0.6,1.4,1.4,1.4h12.4V101.5z M742.9,117c-3.1-1.1-5.1-2.8-5.1-5.5
		c0-3.2,2.6-5.6,7-5.6c2.1,0,3.6,0.4,4.7,0.9l-0.9,3.4c-0.7-0.4-2.1-0.9-3.9-0.9c-1.8,0-2.7,0.8-2.7,1.8c0,1.2,1,1.7,3.4,2.6
		c3.3,1.2,4.8,2.9,4.8,5.5c0,3.1-2.4,5.7-7.5,5.7c-2.1,0-4.2-0.5-5.2-1.1l0.8-3.4c1.1,0.6,2.9,1.1,4.6,1.1c1.9,0,2.9-0.8,2.9-2
		C746,118.5,745.1,117.8,742.9,117z M725.2,124.7l0.5-3.4c0.6,0.2,1.3,0.3,2.1,0.3c1.8,0,2.9-0.8,2.9-3.7v-11.6h4.2V118
		c0,5.3-2.5,7.1-6.6,7.1C727.3,125.1,726,124.9,725.2,124.7z M761.5,143.8h-46.3v-13.5h46.3V143.8z M766,101.5h-1.7v-8.3
		c0,0,0-0.1,0-0.2c0-0.3-0.1-0.7-0.3-0.9l-13.8-15.8c0,0,0,0,0,0c-0.1-0.1-0.2-0.2-0.3-0.2c0,0-0.1,0-0.1,0c-0.1,0-0.2-0.1-0.3-0.1
		c0,0,0,0-0.1,0c-0.1,0-0.2,0-0.3,0h-33.9c-1.5,0-2.8,1.3-2.8,2.8v22.8h-1.7c-2.2,0-4,1.8-4,4v20.8c0,2.2,1.8,4,4,4h1.7v14.3
		c0,1.5,1.3,2.8,2.8,2.8h46.3c1.5,0,2.8-1.3,2.8-2.8v-14.3h1.7c2.2,0,4-1.8,4-4v-20.8C770,103.3,768.2,101.5,766,101.5L766,101.5z"
		/>
	<path class="st2" d="M571.8,111.6c0,21-17.1,38.1-38.1,38.1c-21,0-38.1-17-38.1-38.1s17.1-38.1,38.1-38.1
		C554.8,73.6,571.8,90.6,571.8,111.6z"/>
	<path class="st3" d="M551.6,130.9c-2.9,0.8-5.3,2.4-7.1,4.7l8.1,3.7L551.6,130.9z M548.7,106.3c-1.7,0.2-3.3,0.7-4.3,1.7
		c-0.7,0.7-1.7,2.8-2.5,4.8c-0.4,1-0.8,1.9-1.2,2.7c-0.2,0.4-0.5,0.8-0.8,1.2c-0.3,0.4-0.8,0.8-1.5,0.9c-2.1,0.3-4.5-0.1-6.7-0.1
		c-2.2,0-4.1,0.3-5.2,1.2c-0.5,0.4-0.9,1.3-1.1,2.6c-0.2,1.3-0.2,2.9-0.1,4.4c0,0.4,0.1,0.9,0.1,1.3l16.2,7.4
		c2.3-3.2,5.7-5.6,9.7-6.5L548.7,106.3z M508.6,96.2c-1.9,3.2-2.4,5.7-2.4,5.7l15.8,21.5c0-0.9,0.1-1.8,0.2-2.7
		c0.2-1.3,0.6-2.6,1.4-3.7L508.6,96.2z M521.2,84.8c-1.9,1-4,2.3-6,3.8c-2,1.5-3.5,3.2-4.8,4.8l15.7,21.7c1.7-0.8,3.7-0.9,5.5-0.8
		c2.3,0,4.5,0.3,5.9,0.1c0.1-0.1,0.1-0.2,0.3-0.4c0.3-0.5,0.7-1.4,1.1-2.4c0.3-0.7,0.6-1.5,1-2.3L521.2,84.8z M529.9,81.3
		c0,0-2.4,0.6-5.7,2l17.5,22.9c0.2-0.2,0.4-0.4,0.6-0.6c1.3-1.3,2.9-1.9,4.5-2.3L529.9,81.3z"/>
	<path class="st2" d="M546.2,213.7c0,6.9-5.6,12.5-12.5,12.5c-6.9,0-12.5-5.6-12.5-12.5c0-6.9,5.6-12.5,12.5-12.5
		C540.7,201.3,546.2,206.9,546.2,213.7z"/>
	<ellipse class="st2" cx="533.8" cy="180.9" rx="12.5" ry="12.5"/>
	<path class="st2" d="M546.2,312.2c0,6.9-5.6,12.5-12.5,12.5c-6.9,0-12.5-5.6-12.5-12.5c0-6.9,5.6-12.5,12.5-12.5
		C540.7,299.7,546.2,305.3,546.2,312.2z"/>
	<path class="st2" d="M546.2,345c0,6.9-5.6,12.5-12.5,12.5c-6.9,0-12.5-5.6-12.5-12.5c0-6.9,5.6-12.5,12.5-12.5
		C540.7,332.6,546.2,338.2,546.2,345z"/>
	<ellipse class="st2" cx="533.8" cy="377.9" rx="12.5" ry="12.5"/>
	<ellipse class="st2" cx="533.8" cy="279.4" rx="12.5" ry="12.5"/>
	<ellipse class="st2" cx="533.8" cy="246.6" rx="12.5" ry="12.5"/>
	<circle class="st2" cx="533.8" cy="410.7" r="12.5"/>
	<path class="st4" d="M546.2,476.3c0,6.9-5.6,12.5-12.5,12.5c-6.9,0-12.5-5.6-12.5-12.5c0-6.9,5.6-12.5,12.5-12.5
		C540.7,463.9,546.2,469.5,546.2,476.3z"/>
	<ellipse class="st4" cx="533.8" cy="443.5" rx="12.5" ry="12.5"/>
	<path class="st5" d="M119.2,100.3h-0.1c-0.5,2.2-1.1,4.9-1.7,7l-2.2,7.7h8l-2.3-7.7C120.4,105.2,119.7,102.5,119.2,100.3z"/>
	<path class="st5" d="M144.5,101c-2.6,0-4.3-1.8-4.3-4.1c0-2.4,1.7-4.1,4.3-4.1c2.6,0,4.3,1.8,4.4,4.1
		C148.9,99.1,147.2,101,144.5,101z M148.6,130.6h-8.2v-26.4h8.2V130.6z M127.3,130.6l-2.8-9.3h-10.4l-2.6,9.3h-8.5l11.1-36.4h10.8
		l11.3,36.4H127.3z M157.3,75.9H94.5c-2.4,0-4.4,2-4.4,4.4V143c0,2.4,2,4.4,4.4,4.4h62.8c2.4,0,4.4-2,4.4-4.4V80.3
		C161.7,77.8,159.7,75.9,157.3,75.9z"/>
	<path class="st6" d="M216.1,96.3c-1.8,0-3,0.2-3.7,0.4v11.6c0.8,0.2,1.7,0.2,3,0.2c4.7,0,7.7-2.4,7.7-6.4
		C223.1,98.4,220.6,96.3,216.1,96.3z"/>
	<path class="st6" d="M241.6,129.8c-3.7,0-7.1-0.8-9.2-2l1.6-6.4c1.6,1,5,2.2,7.7,2.2c2.7,0,3.8-0.9,3.8-2.4c0-1.5-0.9-2.2-4.2-3.3
		c-5.9-2-8.2-5.2-8.1-8.6c0-5.3,4.6-9.4,11.6-9.4c3.3,0,6.3,0.8,8.1,1.6l-1.6,6.1c-1.3-0.7-3.7-1.6-6.2-1.6c-2.1,0-3.4,0.9-3.4,2.3
		c0,1.3,1.1,2.1,4.6,3.3c5.4,1.9,7.7,4.6,7.8,8.8C254,125.9,249.8,129.8,241.6,129.8z M228.3,111.2c-3,2.9-7.5,4.2-12.8,4.2
		c-1.2,0-2.2-0.1-3-0.2v14.1h-8.8V90.4c2.7-0.5,6.6-0.8,12-0.8c5.5,0,9.4,1,12,3.2c2.5,2,4.2,5.3,4.2,9.1
		C231.9,105.7,230.6,109,228.3,111.2z M259,75.9h-62.8c-2.4,0-4.4,2-4.4,4.4V143c0,2.4,2,4.4,4.4,4.4H259c2.4,0,4.4-2,4.4-4.4V80.3
		C263.4,77.8,261.4,75.9,259,75.9z"/>
	<path class="st7" d="M138.4,213.7c0,6.9-5.6,12.5-12.5,12.5c-6.9,0-12.5-5.6-12.5-12.5c0-6.9,5.6-12.5,12.5-12.5
		C132.8,201.3,138.4,206.9,138.4,213.7z"/>
	<circle class="st7" cx="125.9" cy="180.9" r="12.5"/>
	<path class="st7" d="M138.4,312.2c0,6.9-5.6,12.5-12.5,12.5c-6.9,0-12.5-5.6-12.5-12.5c0-6.9,5.6-12.5,12.5-12.5
		C132.8,299.7,138.4,305.3,138.4,312.2z"/>
	<path class="st7" d="M138.4,345c0,6.9-5.6,12.5-12.5,12.5c-6.9,0-12.5-5.6-12.5-12.5c0-6.9,5.6-12.5,12.5-12.5
		C132.8,332.6,138.4,338.2,138.4,345z"/>
	<circle class="st7" cx="125.9" cy="377.9" r="12.5"/>
	<circle class="st7" cx="125.9" cy="279.4" r="12.5"/>
	<circle class="st7" cx="125.9" cy="246.6" r="12.5"/>
	<ellipse class="st7" cx="125.9" cy="410.7" rx="12.5" ry="12.5"/>
	<path class="st4" d="M138.4,476.3c0,6.9-5.6,12.5-12.5,12.5c-6.9,0-12.5-5.6-12.5-12.5c0-6.9,5.6-12.5,12.5-12.5
		C132.8,463.9,138.4,469.5,138.4,476.3z"/>
	<circle class="st4" cx="125.9" cy="443.5" r="12.5"/>
	<path class="st6" d="M240.1,213.7c0,6.9-5.6,12.5-12.5,12.5c-6.9,0-12.5-5.6-12.5-12.5c0-6.9,5.6-12.5,12.5-12.5
		C234.5,201.3,240.1,206.9,240.1,213.7z"/>
	<ellipse class="st6" cx="227.6" cy="180.9" rx="12.5" ry="12.5"/>
	<path class="st6" d="M240.1,312.2c0,6.9-5.6,12.5-12.5,12.5c-6.9,0-12.5-5.6-12.5-12.5c0-6.9,5.6-12.5,12.5-12.5
		C234.5,299.7,240.1,305.3,240.1,312.2z"/>
	<path class="st6" d="M240.1,345c0,6.9-5.6,12.5-12.5,12.5c-6.9,0-12.5-5.6-12.5-12.5c0-6.9,5.6-12.5,12.5-12.5
		C234.5,332.6,240.1,338.2,240.1,345z"/>
	<ellipse class="st6" cx="227.6" cy="377.9" rx="12.5" ry="12.5"/>
	<ellipse class="st6" cx="227.6" cy="279.4" rx="12.5" ry="12.5"/>
	<ellipse class="st6" cx="227.6" cy="246.6" rx="12.5" ry="12.5"/>
	<circle class="st6" cx="227.6" cy="410.7" r="12.5"/>
	<path class="st4" d="M240.1,476.3c0,6.9-5.6,12.5-12.5,12.5c-6.9,0-12.5-5.6-12.5-12.5c0-6.9,5.6-12.5,12.5-12.5
		C234.5,463.9,240.1,469.5,240.1,476.3z"/>
	<ellipse class="st6" cx="227.6" cy="443.5" rx="12.5" ry="12.5"/>
	<path class="st8" d="M341.8,213.7c0,6.9-5.6,12.5-12.5,12.5c-6.9,0-12.5-5.6-12.5-12.5c0-6.9,5.6-12.5,12.5-12.5
		C336.2,201.3,341.8,206.9,341.8,213.7z"/>
	<path class="st8" d="M341.8,180.9c0,6.9-5.6,12.5-12.5,12.5c-6.9,0-12.5-5.6-12.5-12.5c0-6.9,5.6-12.5,12.5-12.5
		C336.2,168.5,341.8,174,341.8,180.9z"/>
	<path class="st8" d="M341.8,312.2c0,6.9-5.6,12.5-12.5,12.5c-6.9,0-12.5-5.6-12.5-12.5c0-6.9,5.6-12.5,12.5-12.5
		C336.2,299.7,341.8,305.3,341.8,312.2z"/>
	<path class="st8" d="M341.8,345c0,6.9-5.6,12.5-12.5,12.5c-6.9,0-12.5-5.6-12.5-12.5c0-6.9,5.6-12.5,12.5-12.5
		C336.2,332.6,341.8,338.2,341.8,345z"/>
	<path class="st4" d="M341.8,377.9c0,6.9-5.6,12.5-12.5,12.5c-6.9,0-12.5-5.6-12.5-12.5c0-6.9,5.6-12.5,12.5-12.5
		C336.2,365.4,341.8,371,341.8,377.9z"/>
	<path class="st8" d="M341.8,279.4c0,6.9-5.6,12.5-12.5,12.5c-6.9,0-12.5-5.6-12.5-12.5c0-6.9,5.6-12.5,12.5-12.5
		C336.2,266.9,341.8,272.5,341.8,279.4z"/>
	<path class="st8" d="M341.8,246.6c0,6.9-5.6,12.5-12.5,12.5c-6.9,0-12.5-5.6-12.5-12.5c0-6.9,5.6-12.5,12.5-12.5
		C336.2,234.1,341.8,239.7,341.8,246.6z"/>
	<path class="st4" d="M341.8,410.7c0,6.9-5.6,12.5-12.5,12.5c-6.9,0-12.5-5.6-12.5-12.5c0-6.9,5.6-12.5,12.5-12.5
		C336.2,398.2,341.8,403.8,341.8,410.7z"/>
	<path class="st4" d="M341.8,476.3c0,6.9-5.6,12.5-12.5,12.5c-6.9,0-12.5-5.6-12.5-12.5c0-6.9,5.6-12.5,12.5-12.5
		C336.2,463.9,341.8,469.5,341.8,476.3z"/>
	<path class="st4" d="M341.8,443.5c0,6.9-5.6,12.5-12.5,12.5c-6.9,0-12.5-5.6-12.5-12.5c0-6.9,5.6-12.5,12.5-12.5
		C336.2,431.1,341.8,436.6,341.8,443.5z"/>
	<path class="st0" d="M649.1,213.7c0,6.9-5.6,12.5-12.5,12.5c-6.9,0-12.5-5.6-12.5-12.5c0-6.9,5.6-12.5,12.5-12.5
		C643.5,201.3,649.1,206.9,649.1,213.7z"/>
	<circle class="st0" cx="636.6" cy="180.9" r="12.5"/>
	<path class="st0" d="M649.1,312.2c0,6.9-5.6,12.5-12.5,12.5c-6.9,0-12.5-5.6-12.5-12.5c0-6.9,5.6-12.5,12.5-12.5
		C643.5,299.7,649.1,305.3,649.1,312.2z"/>
	<path class="st0" d="M649.1,345c0,6.9-5.6,12.5-12.5,12.5c-6.9,0-12.5-5.6-12.5-12.5c0-6.9,5.6-12.5,12.5-12.5
		C643.5,332.6,649.1,338.2,649.1,345z"/>
	<circle class="st0" cx="636.6" cy="377.9" r="12.5"/>
	<circle class="st0" cx="636.6" cy="279.4" r="12.5"/>
	<circle class="st0" cx="636.6" cy="246.6" r="12.5"/>
	<ellipse class="st0" cx="636.6" cy="410.7" rx="12.5" ry="12.5"/>
	<path class="st4" d="M649.1,476.3c0,6.9-5.6,12.5-12.5,12.5c-6.9,0-12.5-5.6-12.5-12.5c0-6.9,5.6-12.5,12.5-12.5
		C643.5,463.9,649.1,469.5,649.1,476.3z"/>
	<circle class="st4" cx="636.6" cy="443.5" r="12.5"/>
	<path class="st1" d="M750.8,213.7c0,6.9-5.6,12.5-12.5,12.5c-6.9,0-12.5-5.6-12.5-12.5c0-6.9,5.6-12.5,12.5-12.5
		C745.2,201.3,750.8,206.9,750.8,213.7z"/>
	<path class="st1" d="M750.8,180.9c0,6.9-5.6,12.5-12.5,12.5c-6.9,0-12.5-5.6-12.5-12.5c0-6.9,5.6-12.5,12.5-12.5
		C745.2,168.5,750.8,174,750.8,180.9z"/>
	<path class="st1" d="M750.8,312.2c0,6.9-5.6,12.5-12.5,12.5c-6.9,0-12.5-5.6-12.5-12.5c0-6.9,5.6-12.5,12.5-12.5
		C745.2,299.7,750.8,305.3,750.8,312.2z"/>
	<path class="st1" d="M750.8,345c0,6.9-5.6,12.5-12.5,12.5c-6.9,0-12.5-5.6-12.5-12.5c0-6.9,5.6-12.5,12.5-12.5
		C745.2,332.6,750.8,338.2,750.8,345z"/>
	<path class="st1" d="M750.8,377.9c0,6.9-5.6,12.5-12.5,12.5c-6.9,0-12.5-5.6-12.5-12.5c0-6.9,5.6-12.5,12.5-12.5
		C745.2,365.4,750.8,371,750.8,377.9z"/>
	<path class="st1" d="M750.8,279.4c0,6.9-5.6,12.5-12.5,12.5c-6.9,0-12.5-5.6-12.5-12.5c0-6.9,5.6-12.5,12.5-12.5
		C745.2,266.9,750.8,272.5,750.8,279.4z"/>
	<path class="st1" d="M750.8,246.6c0,6.9-5.6,12.5-12.5,12.5c-6.9,0-12.5-5.6-12.5-12.5c0-6.9,5.6-12.5,12.5-12.5
		C745.2,234.1,750.8,239.7,750.8,246.6z"/>
	<path class="st4" d="M750.8,410.7c0,6.9-5.6,12.5-12.5,12.5c-6.9,0-12.5-5.6-12.5-12.5c0-6.9,5.6-12.5,12.5-12.5
		C745.2,398.2,750.8,403.8,750.8,410.7z"/>
	<path class="st4" d="M750.8,476.3c0,6.9-5.6,12.5-12.5,12.5c-6.9,0-12.5-5.6-12.5-12.5c0-6.9,5.6-12.5,12.5-12.5
		C745.2,463.9,750.8,469.5,750.8,476.3z"/>
	<path class="st4" d="M750.8,443.5c0,6.9-5.6,12.5-12.5,12.5c-6.9,0-12.5-5.6-12.5-12.5c0-6.9,5.6-12.5,12.5-12.5
		C745.2,431.1,750.8,436.6,750.8,443.5z"/>
	<path class="st9" d="M852.5,213.7c0,6.9-5.6,12.5-12.5,12.5c-6.9,0-12.5-5.6-12.5-12.5c0-6.9,5.6-12.5,12.5-12.5
		C847,201.3,852.5,206.9,852.5,213.7z"/>
	<path class="st9" d="M852.5,180.9c0,6.9-5.6,12.5-12.5,12.5c-6.9,0-12.5-5.6-12.5-12.5c0-6.9,5.6-12.5,12.5-12.5
		C847,168.5,852.5,174,852.5,180.9z"/>
	<path class="st9" d="M852.5,312.2c0,6.9-5.6,12.5-12.5,12.5c-6.9,0-12.5-5.6-12.5-12.5c0-6.9,5.6-12.5,12.5-12.5
		C847,299.7,852.5,305.3,852.5,312.2z"/>
	<path class="st9" d="M852.5,345c0,6.9-5.6,12.5-12.5,12.5c-6.9,0-12.5-5.6-12.5-12.5c0-6.9,5.6-12.5,12.5-12.5
		C847,332.6,852.5,338.2,852.5,345z"/>
	<path class="st4" d="M852.5,377.9c0,6.9-5.6,12.5-12.5,12.5c-6.9,0-12.5-5.6-12.5-12.5c0-6.9,5.6-12.5,12.5-12.5
		C847,365.4,852.5,371,852.5,377.9z"/>
	<path class="st9" d="M852.5,279.4c0,6.9-5.6,12.5-12.5,12.5c-6.9,0-12.5-5.6-12.5-12.5c0-6.9,5.6-12.5,12.5-12.5
		C847,266.9,852.5,272.5,852.5,279.4z"/>
	<path class="st9" d="M852.5,246.6c0,6.9-5.6,12.5-12.5,12.5c-6.9,0-12.5-5.6-12.5-12.5c0-6.9,5.6-12.5,12.5-12.5
		C847,234.1,852.5,239.7,852.5,246.6z"/>
	<path class="st4" d="M852.5,410.7c0,6.9-5.6,12.5-12.5,12.5c-6.9,0-12.5-5.6-12.5-12.5c0-6.9,5.6-12.5,12.5-12.5
		C847,398.2,852.5,403.8,852.5,410.7z"/>
	<path class="st4" d="M852.5,476.3c0,6.9-5.6,12.5-12.5,12.5c-6.9,0-12.5-5.6-12.5-12.5c0-6.9,5.6-12.5,12.5-12.5
		C847,463.9,852.5,469.5,852.5,476.3z"/>
	<path class="st4" d="M852.5,443.5c0,6.9-5.6,12.5-12.5,12.5c-6.9,0-12.5-5.6-12.5-12.5c0-6.9,5.6-12.5,12.5-12.5
		C847,431.1,852.5,436.6,852.5,443.5z"/>
	<path class="st10" d="M461.9,75.7h-59.2c-3.4,0-6.1,2.8-6.1,6.1V141c0,3.4,2.8,6.1,6.1,6.1h59.2c3.4,0,6.2-2.8,6.2-6.1V81.8
		C468,78.4,465.3,75.7,461.9,75.7z"/>
	<path class="st3" d="M409.3,97.8l4.6,0.1c4.3,0.1,8,3.7,7.9,13.2c0,5.5-2.7,12.2-8.7,11.9l-3.8-0.2V97.8z M402.2,91.6v37.1l12.4,0
		c10.8,0,14.6-9.9,14.7-17.9c0.1-8-2.1-19-15.1-19.1L402.2,91.6z"/>
	<polygon class="st11" points="430.9,100.6 437.3,129 443.8,129 447.5,109.6 450.8,129 457.5,129 463.9,100.6 457.6,100.6 
		454.3,120.7 451,100.6 444.6,100.6 441.4,120.7 437.9,100.6 	"/>
	<path class="st9" d="M852.5,312.2c0,6.9-5.6,12.5-12.5,12.5c-6.9,0-12.5-5.6-12.5-12.5c0-6.9,5.6-12.5,12.5-12.5
		C847,299.7,852.5,305.3,852.5,312.2z"/>
	<path class="st9" d="M852.5,279.4c0,6.9-5.6,12.5-12.5,12.5c-6.9,0-12.5-5.6-12.5-12.5c0-6.9,5.6-12.5,12.5-12.5
		C847,266.9,852.5,272.5,852.5,279.4z"/>
	<path class="st10" d="M442.8,213.7c0,6.9-5.6,12.5-12.5,12.5c-6.9,0-12.5-5.6-12.5-12.5c0-6.9,5.6-12.5,12.5-12.5
		C437.2,201.3,442.8,206.9,442.8,213.7z"/>
	<path class="st10" d="M442.8,180.9c0,6.9-5.6,12.5-12.5,12.5c-6.9,0-12.5-5.6-12.5-12.5c0-6.9,5.6-12.5,12.5-12.5
		C437.2,168.5,442.8,174,442.8,180.9z"/>
	<path class="st10" d="M442.8,312.2c0,6.9-5.6,12.5-12.5,12.5c-6.9,0-12.5-5.6-12.5-12.5c0-6.9,5.6-12.5,12.5-12.5
		C437.2,299.7,442.8,305.3,442.8,312.2z"/>
	<path class="st10" d="M442.8,345c0,6.9-5.6,12.5-12.5,12.5c-6.9,0-12.5-5.6-12.5-12.5c0-6.9,5.6-12.5,12.5-12.5
		C437.2,332.6,442.8,338.2,442.8,345z"/>
	<path class="st10" d="M442.8,377.9c0,6.9-5.6,12.5-12.5,12.5c-6.9,0-12.5-5.6-12.5-12.5c0-6.9,5.6-12.5,12.5-12.5
		C437.2,365.4,442.8,371,442.8,377.9z"/>
	<path class="st10" d="M442.8,279.4c0,6.9-5.6,12.5-12.5,12.5c-6.9,0-12.5-5.6-12.5-12.5c0-6.9,5.6-12.5,12.5-12.5
		C437.2,266.9,442.8,272.5,442.8,279.4z"/>
	<path class="st10" d="M442.8,246.6c0,6.9-5.6,12.5-12.5,12.5c-6.9,0-12.5-5.6-12.5-12.5c0-6.9,5.6-12.5,12.5-12.5
		C437.2,234.1,442.8,239.7,442.8,246.6z"/>
	<path class="st4" d="M442.8,410.7c0,6.9-5.6,12.5-12.5,12.5c-6.9,0-12.5-5.6-12.5-12.5c0-6.9,5.6-12.5,12.5-12.5
		C437.2,398.2,442.8,403.8,442.8,410.7z"/>
	<path class="st4" d="M442.8,476.3c0,6.9-5.6,12.5-12.5,12.5c-6.9,0-12.5-5.6-12.5-12.5c0-6.9,5.6-12.5,12.5-12.5
		C437.2,463.9,442.8,469.5,442.8,476.3z"/>
	<path class="st4" d="M442.8,443.5c0,6.9-5.6,12.5-12.5,12.5c-6.9,0-12.5-5.6-12.5-12.5c0-6.9,5.6-12.5,12.5-12.5
		C437.2,431.1,442.8,436.6,442.8,443.5z"/>
	<g>
		<path class="st9" d="M821.5,99.9c0-1.5-1-2.3-2.8-2.3c-0.9,0-1.4,0.1-1.7,0.1v4.6h1.5C820.4,102.3,821.5,101.4,821.5,99.9z"/>
		<path class="st9" d="M866.7,90.6h-2.4l-12.5-14.2c0,0,0,0,0,0c-0.1-0.1-0.2-0.2-0.3-0.2c0,0-0.1,0-0.1-0.1c-0.1,0-0.2-0.1-0.3-0.1
			c0,0-0.1,0-0.1,0c-0.1,0-0.2,0-0.3,0h-33.9c-1.5,0-2.8,1.3-2.8,2.8v11.9h-0.7c-2.8,0-5,2.2-5,5v33.5c0,2.7,2.3,5,5,5h0.7v10.5
			c0,1.5,1.3,2.8,2.8,2.8h46.3c1.5,0,2.8-1.3,2.8-2.8v-10.5h0.7c2.8,0,5-2.3,5-5V95.6C871.7,92.9,869.5,90.6,866.7,90.6z
			 M854.9,105.3c0,4.4-2.8,6.6-5.6,6.6c-1.4,0-2.8-0.5-3.7-2h0l-0.1,1.7h-3.2c0-0.8,0.1-2.3,0.1-3.6V94h3.8v6.9h0
			c0.7-1,2-1.7,3.7-1.7C852.8,99.2,855,101.6,854.9,105.3z M836.9,123.3v7h-3.8v-16.8h3.8v6.4h6.2v-6.4h3.8v16.8h-3.8v-7H836.9z
			 M827.8,106.6v-7.1h3.8v6.5c0,1.8,0.6,2.8,1.9,2.8c1,0,1.6-0.7,1.9-1.3c0.1-0.2,0.1-0.5,0.1-0.8v-7.2h3.8v8.3c0,1.6,0,2.9,0.1,3.9
			h-3.3l-0.2-1.7h-0.1c-0.5,0.7-1.6,2-3.8,2C829.6,111.9,827.8,110.4,827.8,106.6z M830.7,118.7c0,1.6-0.5,3-1.5,4
			c-1.3,1.2-3.2,1.8-5.5,1.8c-0.5,0-0.9,0-1.3-0.1v6h-3.8v-16.6c1.2-0.2,2.8-0.3,5.1-0.3c2.3,0,4,0.4,5.1,1.3
			C830,115.6,830.7,117,830.7,118.7z M816.9,78.7h32.5v11.9h-32.5V78.7z M813.2,111.6V95.1c1.2-0.2,3-0.3,5.1-0.3
			c2.5,0,4.2,0.4,5.4,1.3c1,0.8,1.5,2,1.5,3.5c0,2.1-1.5,3.6-3,4.1v0.1c1.2,0.5,1.8,1.6,2.2,3.1c0.5,1.9,1,4.1,1.4,4.7H822
			c-0.3-0.5-0.7-1.8-1.2-3.9c-0.4-2.1-1.2-2.7-2.7-2.7H817v6.6H813.2z M863.2,143.8h-46.3v-9.7h46.3V143.8z M865.6,107.5
			c-1.7,4.8-2.9,6.8-4.3,8c0,0,0,0-0.1,0.1c0.6,0.8,1.1,1.9,1.1,3.1c0,1.6-0.5,3-1.5,4c-1.3,1.2-3.2,1.8-5.5,1.8
			c-0.5,0-0.9,0-1.3-0.1v6h-3.8v-16.6c1.2-0.2,2.8-0.3,5.1-0.3c0.9,0,1.7,0.1,2.4,0.2c0.2-0.1,0.5-0.2,0.7-0.4
			c0.6-0.3,1.2-0.9,1.6-1.5c0.1-0.2,0.2-0.4,0.2-0.5c0-0.1,0-0.3-0.2-0.6l-4.5-11.1h4.2l1.8,6c0.2,0.7,0.4,1.6,0.6,2.3h0.1
			c0.2-0.6,0.4-1.6,0.5-2.3l1.5-6h4.1L865.6,107.5z"/>
		<path class="st9" d="M846.2,104.7v1.8c0,0.2,0,0.5,0.1,0.7c0.2,1,1.1,1.8,2.2,1.8c1.6,0,2.6-1.2,2.6-3.4c0-1.9-0.8-3.4-2.6-3.4
			c-1,0-2,0.8-2.2,1.9C846.2,104.2,846.2,104.4,846.2,104.7z"/>
		<path class="st9" d="M857.6,116.8c-0.5-0.3-1.2-0.5-2-0.5c-0.8,0-1.3,0.1-1.6,0.1v5c0.3,0.1,0.7,0.1,1.3,0.1c2,0,3.3-1,3.3-2.7
			c0-0.7-0.2-1.2-0.6-1.7c-0.1,0-0.2,0-0.2,0L857.6,116.8z"/>
		<path class="st9" d="M824,116.3c-0.8,0-1.3,0.1-1.6,0.1v5c0.3,0.1,0.7,0.1,1.3,0.1c2,0,3.3-1,3.3-2.7
			C827,117.2,825.9,116.3,824,116.3z"/>
	</g>
	<g>
		<path class="st8" d="M314.1,99.4H314c-0.5,2.2-1.1,5-1.7,7.1l-2.2,7.8h8.2l-2.3-7.8C315.3,104.4,314.7,101.6,314.1,99.4z"/>
		<path class="st8" d="M359,75.9h-59.2c-3.4,0-6.1,2.8-6.1,6.2v59.2c0,3.4,2.8,6.1,6.1,6.1h59.2c3.4,0,6.2-2.8,6.2-6.1V82
			C365.1,78.6,362.4,75.9,359,75.9z M322.3,130.1l-2.8-9.5h-10.6l-2.6,9.5h-8.6l11.3-36.9h10.9l11.4,36.9H322.3z M361,130.1h-8.3
			v-14.8c0-3.4-1.2-5.8-4.2-5.8c-2.3,0-3.7,1.6-4.2,3.1c-0.2,0.5-0.3,1.3-0.3,2.1v15.4h-8.3v-18.2c0-3.3-0.1-6.2-0.2-8.5h7.2
			l0.4,3.7h0.2c1.1-1.7,3.8-4.3,8.3-4.3c5.5,0,9.6,3.6,9.6,11.5V130.1z"/>
	</g>
</g>
</svg>
