<?xml version="1.0" encoding="utf-8"?>
<!-- Generator: Adobe Illustrator 16.0.0, SVG Export Plug-In . SVG Version: 6.00 Build 0)  -->
<!DOCTYPE svg PUBLIC "-//W3C//DTD SVG 1.1//EN" "http://www.w3.org/Graphics/SVG/1.1/DTD/svg11.dtd">
<svg version="1.1" id="Capa_1" xmlns="http://www.w3.org/2000/svg" xmlns:xlink="http://www.w3.org/1999/xlink" x="0px" y="0px"
	 width="100px" height="100px" viewBox="0 0 100 100" enable-background="new 0 0 100 100" xml:space="preserve">
<path d="M87.279,20.593h-3.331L66.508,0.67c-0.007-0.006-0.011-0.008-0.015-0.014c-0.115-0.127-0.25-0.234-0.392-0.328
	c-0.042-0.027-0.085-0.051-0.129-0.076c-0.122-0.066-0.253-0.123-0.388-0.162c-0.035-0.01-0.067-0.024-0.104-0.034
	C65.335,0.021,65.184,0,65.032,0H17.646c-2.163,0-3.921,1.76-3.921,3.922v16.671h-1.005c-3.85,0-7,3.15-7,7v46.839
	c0,3.849,3.15,6.999,7,6.999h1.005v14.645c0,2.162,1.758,3.923,3.921,3.923h64.706c2.162,0,3.922-1.761,3.922-3.923V81.432h1.005
	c3.85,0,7-3.15,7-6.999V27.593C94.279,23.744,91.129,20.593,87.279,20.593z M69.705,63.403c3.742,1.383,5.504,3.333,5.504,6.319
	c0,3.555-2.738,6.574-8.555,6.574c-2.422,0-4.811-0.631-6.008-1.29l0.977-3.962c1.287,0.66,3.27,1.318,5.314,1.318
	c2.201,0,3.365-0.91,3.365-2.293c0-1.32-1.008-2.074-3.555-2.988c-3.521-1.227-5.818-3.177-5.818-6.258
	c0-3.617,3.021-6.385,8.021-6.385c2.391,0,4.15,0.504,5.408,1.07l-1.068,3.868c-0.85-0.411-2.359-1.009-4.436-1.009
	s-3.082,0.945-3.082,2.045C65.773,61.768,66.969,62.364,69.705,63.403z M65.147,26.095h6.332l1.174,22.039h-4.739l-0.317-8.437
	c-0.096-2.649-0.191-5.853-0.191-9.058h-0.094c-0.67,2.811-1.562,5.951-2.391,8.535l-2.605,8.601H58.53l-2.293-8.533
	c-0.698-2.584-1.432-5.724-1.94-8.602h-0.063c-0.127,2.977-0.224,6.378-0.381,9.124l-0.384,8.371h-4.485l1.367-22.041h6.459
	l2.101,7.357c0.67,2.551,1.337,5.299,1.815,7.883h0.094c0.607-2.552,1.336-5.461,2.037-7.912L65.147,26.095z M36.616,72.336
	c1.446,0,3.049-0.313,3.994-0.693l0.722,3.743c-0.879,0.44-2.86,0.912-5.44,0.912c-7.326-0.001-11.101-4.562-11.101-10.599
	c0-7.234,5.158-11.26,11.574-11.26c2.483,0,4.37,0.504,5.22,0.944l-0.975,3.805c-0.976-0.407-2.327-0.784-4.026-0.784
	c-3.806,0-6.761,2.296-6.761,7.012C29.822,69.661,32.338,72.336,36.616,72.336z M41.153,30.281v17.854h-4.869V30.281h-5.756v-4.188
	h16.479v4.188H41.153z M49.763,67.082c-3.521-1.226-5.817-3.176-5.817-6.256c0-3.618,3.018-6.387,8.019-6.387
	c2.391,0,4.15,0.504,5.41,1.07l-1.07,3.868c-0.85-0.409-2.357-1.008-4.436-1.008c-2.075,0-3.082,0.944-3.082,2.045
	c0,1.353,1.195,1.95,3.931,2.989c3.744,1.383,5.504,3.332,5.504,6.32c0,3.553-2.734,6.573-8.553,6.573
	c-2.421,0-4.812-0.632-6.006-1.291l0.975-3.962c1.29,0.66,3.271,1.318,5.315,1.318c2.201,0,3.363-0.91,3.363-2.293
	C53.316,68.749,52.311,67.996,49.763,67.082z M17.647,3.923H63.07v16.67H17.647V3.923z M15.09,38.914v9.223h-4.866V26.095h4.866
	v8.471h7.988v-8.471h4.837v22.041h-4.837v-9.223H15.09z M82.354,95.017H17.647V81.432h64.707V95.017z M89.776,48.134H76.381V26.093
	h4.867v17.854h8.528V48.134z"/>
</svg>
