<?xml version="1.0" encoding="utf-8"?>
<!-- Generator: Adobe Illustrator 16.0.0, SVG Export Plug-In . SVG Version: 6.00 Build 0)  -->
<!DOCTYPE svg PUBLIC "-//W3C//DTD SVG 1.1//EN" "http://www.w3.org/Graphics/SVG/1.1/DTD/svg11.dtd">
<svg version="1.1" id="Capa_1" xmlns="http://www.w3.org/2000/svg" xmlns:xlink="http://www.w3.org/1999/xlink" x="0px" y="0px"
	 width="100px" height="100px" viewBox="0 0 100 100" style="enable-background:new 0 0 100 100;" xml:space="preserve">
<style type="text/css">
<![CDATA[
	.st0{clip-path:url(#SVGID_2_);}
	.st1{clip-path:url(#SVGID_4_);}
]]>
</style>
<g>
	<g>
		<g>
			<defs>
				<rect id="SVGID_1_" x="0.96" y="10.708" width="100" height="81.583"/>
			</defs>
			<clipPath id="SVGID_2_">
				<use xlink:href="#SVGID_1_"  style="overflow:visible;"/>
			</clipPath>
			<path class="st0" d="M57.247,70.708c-1.775,1.088-4.05,1.689-6.403,1.689c-2.354,0-4.629-0.602-6.404-1.689L15.45,52.929
				c0,0-2.617-1.604-2.617,2.028v17.756c0,9.353,17.019,19.435,38.01,19.435s38.01-10.082,38.01-19.435V53.957
				c0-2.918-1.861-1.491-1.861-1.491L57.247,70.708z"/>
		</g>
		<g>
			<defs>
				<rect id="SVGID_3_" x="0.96" y="10.708" width="100" height="81.583"/>
			</defs>
			<clipPath id="SVGID_4_">
				<use xlink:href="#SVGID_3_"  style="overflow:visible;"/>
			</clipPath>
			<path class="st1" d="M99.057,38.786c2.228-1.366,2.228-3.602,0-4.968L54.894,11.733c-2.228-1.366-5.872-1.366-8.101,0
				L2.63,33.817c-2.227,1.366-2.227,3.602,0,4.968l44.163,27.085c2.229,1.366,5.873,1.366,8.101,0"/>
		</g>
	</g>
	<path d="M97.23,78.933V49.019c0,0,0.021-1.417-0.821-0.949c-0.673,0.375-2.326,1.297-2.909,1.804
		c-0.673,0.583-0.521,1.896-0.521,1.896v27.162c0,0.387-0.332,0.57-0.489,0.663c-1.527,0.897-2.553,2.555-2.553,4.453
		c0,2.855,2.313,5.169,5.167,5.169c2.854,0,5.168-2.313,5.168-5.169c0-1.906-1.034-3.567-2.57-4.464
		C97.549,79.495,97.23,79.318,97.23,78.933L97.23,78.933z"/>
</g>
</svg>
