<?xml version="1.0" encoding="utf-8"?>
<!-- Generator: Adobe Illustrator 16.0.0, SVG Export Plug-In . SVG Version: 6.00 Build 0)  -->
<!DOCTYPE svg PUBLIC "-//W3C//DTD SVG 1.1//EN" "http://www.w3.org/Graphics/SVG/1.1/DTD/svg11.dtd">
<svg version="1.1" id="Capa_1" xmlns="http://www.w3.org/2000/svg" xmlns:xlink="http://www.w3.org/1999/xlink" x="0px" y="0px"
	 width="100px" height="100px" viewBox="300 100 100 100" style="enable-background:new 300 100 100 100;" xml:space="preserve">
<g>
	<g>
		<g>
			<path d="M300,100.428v99.146h100v-99.146H300z M391.764,191.342c-7.164,0-76.346,0-83.523,0c0-7.164,0-75.519,0-82.673
				c7.164,0,76.355,0,83.523,0C391.764,115.823,391.764,184.178,391.764,191.342z"/>
			<path d="M326.323,157.659c0.272,0.955,0.423,3.036,0.423,6.232c0,2.74,0.141,4.754,0.436,6.031
				c0.295,1.269,0.873,2.354,1.736,3.218c0.859,0.864,1.914,1.491,3.164,1.869c1.255,0.372,3.055,0.559,5.396,0.559h1.387v-6.25
				c-1.869,0-3.082-0.118-3.646-0.354c-0.559-0.241-0.978-0.572-1.255-1.032c-0.272-0.454-0.409-1.245-0.409-2.386
				c0-0.81-0.073-2.65-0.209-5.541c-0.104-1.891-0.332-3.4-0.682-4.527c-0.345-1.137-0.846-2.096-1.5-2.886
				c-0.65-0.796-1.486-1.482-2.509-2.068c1.159-0.755,2.018-1.469,2.586-2.173c0.564-0.686,1.027-1.568,1.391-2.636
				c0.359-1.068,0.586-2.463,0.677-4.182c0.155-3.045,0.241-5.118,0.241-6.214c0-1.073,0.132-1.836,0.391-2.277
				c0.264-0.436,0.664-0.768,1.209-0.991c0.545-0.213,1.787-0.323,3.714-0.323v-6.218h-1.387c-2.277,0-3.945,0.159-5,0.473
				c-1.563,0.468-2.754,1.104-3.577,1.909c-0.818,0.809-1.382,1.877-1.695,3.209c-0.309,1.323-0.459,3.673-0.459,7.027
				c0,2.077-0.078,3.514-0.218,4.35c-0.173,1.109-0.496,2.032-0.959,2.772c-0.473,0.741-1.018,1.264-1.668,1.577
				c-0.637,0.305-1.586,0.5-2.859,0.577v6.255c1.6,0.081,2.782,0.427,3.559,1.032C325.368,155.282,325.945,156.269,326.323,157.659z
				"/>
			<path d="M344.691,169.832l1.418,3.027c1.564-0.559,2.859-1.332,3.877-2.3c1.019-0.969,1.704-2.068,2.068-3.291
				c0.368-1.231,0.55-2.909,0.55-5.019v-5.223h-7.323v7.318h3.532c-0.027,1.441-0.364,2.591-0.982,3.473
				C347.209,168.669,346.159,169.351,344.691,169.832z"/>
			<rect x="345.282" y="136.668" width="7.323" height="7.328"/>
			<path d="M365.572,175.091c1.573-0.473,2.782-1.1,3.605-1.913c0.817-0.805,1.377-1.882,1.672-3.219
				c0.296-1.34,0.46-3.69,0.46-7.059c0-2.055,0.077-3.5,0.213-4.332c0.187-1.108,0.515-2.031,0.982-2.768
				c0.459-0.736,1.004-1.269,1.646-1.578c0.641-0.309,1.591-0.5,2.858-0.567H377v-6.25c-1.604-0.096-2.777-0.436-3.568-1.036
				c-0.772-0.596-1.35-1.595-1.74-2.973c-0.264-0.973-0.392-3.045-0.392-6.218c0-2.746-0.149-4.75-0.454-6.018
				c-0.3-1.287-0.877-2.359-1.728-3.236c-0.854-0.873-1.904-1.486-3.154-1.854c-1.259-0.364-3.059-0.55-5.4-0.55h-1.381v6.209
				c1.968,0,3.231,0.118,3.79,0.354c0.568,0.232,0.959,0.563,1.173,0.996c0.223,0.432,0.327,1.3,0.346,2.604
				c0.096,4.132,0.25,6.804,0.437,8.022c0.291,1.764,0.854,3.223,1.659,4.359c0.595,0.809,1.527,1.614,2.813,2.45
				c-0.991,0.568-1.796,1.232-2.432,1.991c-0.642,0.75-1.146,1.678-1.519,2.755c-0.382,1.091-0.623,2.545-0.7,4.341
				c-0.141,2.986-0.231,5.019-0.231,6.073c-0.019,1.059-0.142,1.809-0.418,2.254c-0.277,0.45-0.691,0.782-1.26,1.022
				c-0.572,0.237-1.795,0.346-3.658,0.346v6.25h1.395C362.841,175.56,364.514,175.396,365.572,175.091z"/>
		</g>
	</g>
</g>
</svg>
