<?xml version="1.0" encoding="utf-8"?>
<!-- Generator: Adobe Illustrator 16.0.0, SVG Export Plug-In . SVG Version: 6.00 Build 0)  -->
<!DOCTYPE svg PUBLIC "-//W3C//DTD SVG 1.1//EN" "http://www.w3.org/Graphics/SVG/1.1/DTD/svg11.dtd">
<svg version="1.1" id="Capa_1" xmlns="http://www.w3.org/2000/svg" xmlns:xlink="http://www.w3.org/1999/xlink" x="0px" y="0px"
	 width="100px" height="100px" viewBox="300 100 100 100" style="enable-background:new 300 100 100 100;" xml:space="preserve">
<style type="text/css">
<![CDATA[
	.st0{fill:#030104;}
]]>
</style>
<g>
	<g>
		<path class="st0" d="M340.584,134.212h-0.148c-0.752,3.029-1.505,6.876-2.341,9.822l-3.023,10.794h11.25l-3.171-10.794
			C342.25,141.011,341.343,137.241,340.584,134.212z"/>
		<path class="st0" d="M393.871,100h-87.748c-3.385,0-6.123,2.738-6.123,6.123v87.754c0,3.379,2.738,6.123,6.123,6.123h87.754
			c3.379,0,6.123-2.744,6.123-6.123v-87.754C400,102.744,397.256,100,393.871,100z M351.911,176.492l-3.929-13.058h-14.563
			l-3.628,13.058h-11.926l15.554-50.875h15.091l15.785,50.875H351.911z M381.756,176.492h-11.481v-36.91h11.481V176.492z
			 M375.947,135.054c-3.622,0-6.04-2.572-5.969-5.744c-0.071-3.325,2.347-5.803,6.052-5.803c3.692,0,6.033,2.483,6.104,5.803
			C382.135,132.482,379.723,135.054,375.947,135.054z"/>
	</g>
</g>
</svg>
