<?xml version="1.0" encoding="utf-8"?>
<!-- Generator: Adobe Illustrator 16.0.0, SVG Export Plug-In . SVG Version: 6.00 Build 0)  -->
<!DOCTYPE svg PUBLIC "-//W3C//DTD SVG 1.1//EN" "http://www.w3.org/Graphics/SVG/1.1/DTD/svg11.dtd">
<svg version="1.1" id="Capa_1" xmlns="http://www.w3.org/2000/svg" xmlns:xlink="http://www.w3.org/1999/xlink" x="0px" y="0px"
	 width="100px" height="100px" viewBox="225.4 225.4 100 100" style="enable-background:new 225.4 225.4 100 100;"
	 xml:space="preserve">
<g>
	<path d="M314.075,261.17h-2.401v-11.586c0-0.073-0.011-0.145-0.021-0.219c-0.004-0.46-0.15-0.912-0.465-1.27l-19.281-22.025
		c-0.006-0.005-0.011-0.007-0.015-0.013c-0.115-0.128-0.249-0.235-0.391-0.328c-0.042-0.028-0.085-0.052-0.129-0.076
		c-0.122-0.067-0.253-0.123-0.387-0.163c-0.036-0.009-0.068-0.024-0.105-0.034c-0.146-0.034-0.297-0.056-0.449-0.056h-47.385
		c-2.163,0-3.921,1.76-3.921,3.922v31.847h-2.401c-3.095,0-5.604,2.509-5.604,5.604v29.147c0,3.094,2.51,5.605,5.604,5.605h2.401
		v19.952c0,2.162,1.758,3.922,3.921,3.922h64.706c2.162,0,3.922-1.76,3.922-3.922v-19.952h2.4c3.095,0,5.605-2.511,5.605-5.604
		v-29.147C319.68,263.679,317.17,261.17,314.075,261.17z M243.047,229.323h45.424v20.063c0,1.083,0.879,1.961,1.961,1.961h17.321
		v9.824h-64.706V229.323z M299.195,291.483h-4.739l-0.318-8.437c-0.095-2.65-0.191-5.853-0.191-9.058h-0.094
		c-0.67,2.811-1.561,5.952-2.39,8.536l-2.605,8.6h-3.786l-2.292-8.533c-0.699-2.584-1.433-5.724-1.941-8.602h-0.063
		c-0.128,2.977-0.224,6.378-0.381,9.124l-0.384,8.371h-4.486l1.368-22.04h6.458l2.101,7.357c0.67,2.551,1.337,5.298,1.815,7.883
		h0.095c0.607-2.552,1.335-5.461,2.037-7.913l2.29-7.327h6.333L299.195,291.483z M257.07,273.629v-4.187h16.479v4.187h-5.854v17.854
		h-4.869v-17.854H257.07z M241.632,282.262v9.222h-4.866v-22.041h4.866v8.471h7.988v-8.471h4.837v22.041h-4.837v-9.223
		L241.632,282.262L241.632,282.262z M307.753,320.417h-64.706v-18.891h64.706V320.417L307.753,320.417z M316.319,291.483h-13.396
		v-22.041h4.867v17.854h8.528V291.483L316.319,291.483z"/>
</g>
</svg>
