<?xml version="1.0" encoding="utf-8"?>
<!-- Generator: Adobe Illustrator 16.0.0, SVG Export Plug-In . SVG Version: 6.00 Build 0)  -->
<!DOCTYPE svg PUBLIC "-//W3C//DTD SVG 1.1//EN" "http://www.w3.org/Graphics/SVG/1.1/DTD/svg11.dtd">
<svg version="1.1" id="Capa_1" xmlns="http://www.w3.org/2000/svg" xmlns:xlink="http://www.w3.org/1999/xlink" x="0px" y="0px"
	 width="100px" height="100px" viewBox="0 0 100 100" enable-background="new 0 0 100 100" xml:space="preserve">
<path d="M88.676,35.77h-2.4V24.184c0-0.072-0.012-0.145-0.021-0.218c-0.004-0.46-0.15-0.912-0.467-1.271L66.51,0.67
	c-0.008-0.004-0.014-0.006-0.018-0.014c-0.115-0.127-0.248-0.234-0.391-0.328c-0.041-0.027-0.084-0.052-0.129-0.076
	c-0.121-0.066-0.252-0.121-0.387-0.162c-0.035-0.01-0.068-0.024-0.105-0.034C65.336,0.021,65.186,0,65.031,0H17.647
	c-2.164,0-3.921,1.76-3.921,3.92v31.848h-2.401c-3.095,0-5.604,2.51-5.604,5.605V70.52c0,3.094,2.51,5.604,5.604,5.604h2.401v19.953
	c0,2.162,1.758,3.924,3.921,3.924h64.707c2.162,0,3.922-1.762,3.922-3.924V76.123h2.4c3.094,0,5.604-2.51,5.604-5.604V41.374
	C94.281,38.28,91.771,35.77,88.676,35.77z M82.354,95.018H17.648V76.125h64.706V95.018z M31.577,68.199l0.65-4.711
	c0.805,0.268,1.839,0.459,2.988,0.459c2.451,0,3.982-1.111,3.982-5.133V42.576h5.822v16.316c0,7.354-3.524,9.918-9.192,9.918
	C34.487,68.811,32.726,68.582,31.577,68.199z M56.319,57.551c-4.289-1.492-7.085-3.867-7.085-7.621c0-4.405,3.677-7.775,9.767-7.775
	c2.91,0,5.055,0.613,6.587,1.302l-1.302,4.711c-1.034-0.498-2.873-1.226-5.4-1.226c-2.528,0-3.754,1.149-3.754,2.49
	c0,1.646,1.456,2.375,4.788,3.638c4.558,1.686,6.702,4.061,6.702,7.697c0,4.328-3.332,8.006-10.417,8.006
	c-2.949,0-5.86-0.766-7.315-1.57l1.188-4.826c1.57,0.805,3.982,1.609,6.473,1.609c2.681,0,4.098-1.111,4.098-2.797
	C60.647,59.582,59.422,58.662,56.319,57.551z M82.354,35.771H17.648V3.923H63.07v20.063c0,1.084,0.881,1.961,1.963,1.961h17.32
	V35.771z"/>
</svg>
