<?xml version="1.0" encoding="utf-8"?>
<!-- Generator: Adobe Illustrator 16.0.0, SVG Export Plug-In . SVG Version: 6.00 Build 0)  -->
<!DOCTYPE svg PUBLIC "-//W3C//DTD SVG 1.1//EN" "http://www.w3.org/Graphics/SVG/1.1/DTD/svg11.dtd">
<svg version="1.1" id="Capa_1" xmlns="http://www.w3.org/2000/svg" xmlns:xlink="http://www.w3.org/1999/xlink" x="0px" y="0px"
	 width="100px" height="100px" viewBox="300 100 100 100" style="enable-background:new 300 100 100 100;" xml:space="preserve">
<style type="text/css">
<![CDATA[
	.st0{fill:#030104;}
]]>
</style>
<g>
	<path class="st0" d="M391.4,100h-82.807c-4.739,0-8.593,3.854-8.593,8.6v82.808c0,4.738,3.854,8.593,8.593,8.593h82.801
		c4.745,0,8.605-3.854,8.605-8.593V108.6C400.006,103.854,396.146,100,391.4,100z M355.966,131.479h-20.708v12.315h19.352v9.918
		h-19.352v21.681h-12.24v-53.907h32.955L355.966,131.479L355.966,131.479z M380.271,178.878c-13.785,0-18.618-7.608-18.618-16.948
		v-40.443h13.339v40.933c0,1.996,3.283,3.113,5.279,3.113V178.878z"/>
</g>
</svg>
