<?xml version="1.0" encoding="utf-8"?>
<!-- Generator: Adobe Illustrator 16.0.0, SVG Export Plug-In . SVG Version: 6.00 Build 0)  -->
<!DOCTYPE svg PUBLIC "-//W3C//DTD SVG 1.1//EN" "http://www.w3.org/Graphics/SVG/1.1/DTD/svg11.dtd">
<svg version="1.1" id="Capa_1" xmlns="http://www.w3.org/2000/svg" xmlns:xlink="http://www.w3.org/1999/xlink" x="0px" y="0px"
	 width="100px" height="100px" viewBox="225.4 225.4 100 100" style="enable-background:new 225.4 225.4 100 100;"
	 xml:space="preserve">
<g>
	<path d="M314.076,261.17h-2.401v-11.586c0-0.072-0.011-0.145-0.021-0.218c-0.004-0.46-0.15-0.912-0.466-1.27l-19.279-22.025
		c-0.007-0.005-0.013-0.007-0.016-0.014c-0.115-0.128-0.249-0.235-0.392-0.328c-0.041-0.028-0.084-0.052-0.128-0.076
		c-0.122-0.067-0.252-0.122-0.387-0.163c-0.036-0.01-0.068-0.024-0.105-0.034c-0.145-0.035-0.296-0.056-0.449-0.056h-47.385
		c-2.164,0-3.921,1.76-3.921,3.921v31.847h-2.401c-3.095,0-5.605,2.509-5.605,5.605v29.147c0,3.094,2.51,5.604,5.605,5.604h2.401
		v19.953c0,2.162,1.758,3.922,3.921,3.922h64.706c2.162,0,3.922-1.76,3.922-3.922v-19.953h2.4c3.095,0,5.604-2.51,5.604-5.604
		v-29.146C319.681,263.679,317.171,261.17,314.076,261.17z M243.048,229.323h45.423v20.064c0,1.083,0.88,1.961,1.962,1.961h17.321
		v9.823h-64.706V229.323z M273.257,283.168c-4.865-1.694-8.037-4.387-8.037-8.643c0-4.998,4.169-8.821,11.079-8.821
		c3.301,0,5.733,0.695,7.472,1.478l-1.477,5.344c-1.174-0.567-3.258-1.393-6.128-1.393c-2.866,0-4.257,1.305-4.257,2.825
		c0,1.869,1.652,2.694,5.431,4.129c5.171,1.91,7.603,4.603,7.603,8.731c0,4.909-3.777,9.08-11.816,9.08
		c-3.345,0-6.646-0.872-8.297-1.783l1.347-5.473c1.781,0.912,4.518,1.822,7.343,1.822c3.041,0,4.646-1.257,4.646-3.169
		C278.165,285.471,276.775,284.43,273.257,283.168z M238.759,281.258c0-9.994,7.126-15.554,15.988-15.554
		c3.431,0,6.038,0.695,7.211,1.304l-1.347,5.256c-1.348-0.563-3.214-1.084-5.561-1.084c-5.257,0-9.34,3.171-9.34,9.686
		c0,5.865,3.476,9.559,9.384,9.559c1.998,0,4.213-0.433,5.518-0.957l0.998,5.171c-1.216,0.608-3.953,1.26-7.516,1.26
		C243.973,295.897,238.759,289.597,238.759,281.258z M307.754,320.418h-64.706v-18.893h64.706V320.418L307.754,320.418z
		 M296.589,295.897c-3.345,0-6.646-0.872-8.298-1.782l1.349-5.473c1.778,0.912,4.517,1.822,7.34,1.822
		c3.042,0,4.649-1.258,4.649-3.168c0-1.824-1.39-2.867-4.908-4.129c-4.865-1.694-8.039-4.387-8.039-8.643
		c0-4.998,4.173-8.821,11.08-8.821c3.302,0,5.734,0.695,7.473,1.478l-1.478,5.344c-1.172-0.567-3.257-1.393-6.126-1.393
		c-2.867,0-4.257,1.305-4.257,2.825c0,1.869,1.651,2.694,5.431,4.129c5.17,1.91,7.603,4.603,7.603,8.731
		C308.406,291.727,304.626,295.897,296.589,295.897z"/>
</g>
</svg>
