<?xml version="1.0" encoding="utf-8"?>
<!-- Generator: Adobe Illustrator 16.0.0, SVG Export Plug-In . SVG Version: 6.00 Build 0)  -->
<!DOCTYPE svg PUBLIC "-//W3C//DTD SVG 1.1//EN" "http://www.w3.org/Graphics/SVG/1.1/DTD/svg11.dtd">
<svg version="1.1" id="Capa_1" xmlns="http://www.w3.org/2000/svg" xmlns:xlink="http://www.w3.org/1999/xlink" x="0px" y="0px"
	 width="100px" height="100px" viewBox="146.093 146.093 100 100" style="enable-background:new 146.093 146.093 100 100;"
	 xml:space="preserve">
<g>
	<g>
		<g>
			<path d="M240.084,150.67h-87.982c-3.313,0-6.009,2.696-6.009,6.01v78.826c0,3.313,2.695,6.011,6.009,6.011h87.982
				c3.313,0,6.009-2.695,6.009-6.011V156.68C246.093,153.366,243.398,150.67,240.084,150.67z M221.965,160.761
				c0-1.226,0.993-2.219,2.219-2.219h2.219c1.227,0,2.22,0.994,2.22,2.219v2.515c0,1.225-0.993,2.219-2.22,2.219h-2.219
				c-1.226,0-2.219-0.994-2.219-2.219V160.761z M211.647,160.761c0-1.226,0.994-2.219,2.22-2.219h2.219
				c1.226,0,2.22,0.994,2.22,2.219v2.515c0,1.225-0.994,2.219-2.22,2.219h-2.219c-1.226,0-2.22-0.994-2.22-2.219V160.761z
				 M238.881,234.304h-85.577v-62.143h85.577V234.304L238.881,234.304z M238.94,163.276c0,1.225-0.993,2.219-2.219,2.219h-2.219
				c-1.228,0-2.22-0.994-2.22-2.219v-2.515c0-1.226,0.993-2.219,2.22-2.219h2.219c1.226,0,2.219,0.994,2.219,2.219V163.276z"/>
			<path d="M167.558,205.576l16.085,7.479c0.416,0.192,0.858,0.289,1.316,0.289c0.596,0,1.177-0.169,1.682-0.49
				c0.905-0.578,1.445-1.563,1.445-2.635v-0.082c0-1.212-0.71-2.324-1.81-2.834l-10.061-4.676l10.061-4.675
				c1.1-0.511,1.81-1.623,1.81-2.834v-0.081c0-1.074-0.54-2.059-1.445-2.635c-0.5-0.319-1.083-0.488-1.684-0.488
				c-0.454,0-0.909,0.1-1.315,0.289l-16.084,7.48c-1.098,0.51-1.808,1.623-1.808,2.834v0.224
				C165.75,203.95,166.459,205.063,167.558,205.576z"/>
			<path d="M188.23,220.812c0.586,0.804,1.53,1.282,2.524,1.282h0.08c1.365,0,2.561-0.872,2.976-2.171l10.596-32.832
				c0.306-0.948,0.137-1.994-0.45-2.798c-0.587-0.803-1.53-1.283-2.524-1.283h-0.08c-1.365,0-2.563,0.873-2.979,2.171
				l-10.598,32.833C187.474,218.965,187.644,220.01,188.23,220.812z"/>
			<path d="M204.099,195.12c0,1.209,0.709,2.322,1.81,2.836l10.061,4.673l-10.061,4.675c-1.101,0.512-1.81,1.623-1.81,2.834v0.082
				c0,1.072,0.539,2.059,1.444,2.637c0.504,0.32,1.085,0.49,1.682,0.49c0.458,0,0.9-0.098,1.318-0.291l16.085-7.479
				c1.098-0.513,1.808-1.625,1.808-2.834v-0.224c0-1.211-0.71-2.324-1.809-2.836l-16.085-7.479
				c-0.405-0.188-0.859-0.288-1.313-0.288c-0.601,0-1.184,0.168-1.684,0.487c-0.906,0.577-1.446,1.563-1.446,2.636V195.12
				L204.099,195.12L204.099,195.12z"/>
		</g>
	</g>
</g>
</svg>
