<?xml version="1.0" encoding="utf-8"?>
<!-- Generator: Adobe Illustrator 16.0.0, SVG Export Plug-In . SVG Version: 6.00 Build 0)  -->
<!DOCTYPE svg PUBLIC "-//W3C//DTD SVG 1.1//EN" "http://www.w3.org/Graphics/SVG/1.1/DTD/svg11.dtd">
<svg version="1.1" id="Capa_1" xmlns="http://www.w3.org/2000/svg" xmlns:xlink="http://www.w3.org/1999/xlink" x="0px" y="0px"
	 width="100px" height="100px" viewBox="300 100 100 100" style="enable-background:new 300 100 100 100;" xml:space="preserve">
<style type="text/css">
<![CDATA[
	.st0{fill:#030104;}
]]>
</style>
<g>
	<g>
		<path class="st0" d="M333.917,128.52c-2.53,0-4.247,0.246-5.14,0.498v16.263c1.064,0.24,2.364,0.32,4.162,0.32
			c6.623,0,10.71-3.349,10.71-8.992C343.643,131.548,340.128,128.52,333.917,128.52z"/>
		<path class="st0" d="M393.881,100.012h-87.756c-3.383,0-6.125,2.736-6.125,6.108v87.749c0,3.378,2.742,6.119,6.125,6.119h87.756
			c3.377,0,6.119-2.741,6.119-6.119v-87.744C400,102.748,397.258,100.012,393.881,100.012z M350.913,149.368
			c-4.242,4.006-10.544,5.804-17.889,5.804c-1.643,0-3.108-0.08-4.253-0.246v19.704h-12.348v-54.359
			c3.841-0.646,9.233-1.14,16.841-1.14c7.676,0,13.161,1.466,16.83,4.414c3.532,2.782,5.896,7.361,5.896,12.754
			S354.188,146.254,350.913,149.368z M369.523,175.442c-5.244,0-9.897-1.134-12.926-2.776l2.204-8.907
			c2.289,1.379,7.035,3.017,10.722,3.017c3.749,0,5.307-1.306,5.307-3.354c0-2.038-1.226-3.017-5.879-4.574
			c-8.255-2.775-11.449-7.275-11.369-12.015c0-7.431,6.377-13.086,16.269-13.086c4.66,0,8.827,1.07,11.277,2.289l-2.204,8.587
			c-1.797-0.984-5.227-2.284-8.667-2.284c-3.017,0-4.728,1.226-4.728,3.269c0,1.878,1.539,2.856,6.445,4.58
			c7.602,2.609,10.796,6.457,10.871,12.33C386.846,169.964,380.949,175.442,369.523,175.442z"/>
	</g>
</g>
</svg>
