<?xml version="1.0" encoding="utf-8"?>
<!-- Generator: Adobe Illustrator 16.0.0, SVG Export Plug-In . SVG Version: 6.00 Build 0)  -->
<!DOCTYPE svg PUBLIC "-//W3C//DTD SVG 1.1//EN" "http://www.w3.org/Graphics/SVG/1.1/DTD/svg11.dtd">
<svg version="1.1" id="Capa_1" xmlns="http://www.w3.org/2000/svg" xmlns:xlink="http://www.w3.org/1999/xlink" x="0px" y="0px"
	 width="100px" height="100px" viewBox="0 0 100 100" style="enable-background:new 0 0 100 100;" xml:space="preserve">
<g>
	<path d="M58.836,57.713c0,0.349,0.035,0.662,0.104,0.941c0.349,1.429,1.568,2.509,3.102,2.509c2.266,0,3.659-1.742,3.659-4.81
		c0-2.648-1.185-4.739-3.659-4.739c-1.429,0-2.753,1.08-3.102,2.613c-0.069,0.313-0.104,0.628-0.104,0.976V57.713z"/>
	<path d="M24.305,48.512c0-2.161-1.464-3.241-3.903-3.276c-1.29,0-2.021,0.104-2.405,0.174v6.482h2.091
		C22.736,51.893,24.305,50.568,24.305,48.512z"/>
	<path d="M88.676,35.77h-2.4V24.184c0-0.072-0.012-0.145-0.021-0.218c-0.004-0.46-0.15-0.912-0.467-1.271L66.51,0.67
		c-0.008-0.004-0.014-0.006-0.018-0.014c-0.115-0.127-0.248-0.234-0.391-0.328c-0.041-0.027-0.084-0.052-0.129-0.076
		c-0.121-0.066-0.252-0.121-0.387-0.162c-0.035-0.01-0.068-0.024-0.105-0.034C65.336,0.021,65.186,0,65.031,0H17.647
		c-2.164,0-3.921,1.76-3.921,3.92v31.848h-2.401c-3.095,0-5.604,2.51-5.604,5.605V70.52c0,3.094,2.51,5.604,5.604,5.604h2.401
		v19.953c0,2.162,1.758,3.923,3.921,3.923h64.707c2.162,0,3.922-1.761,3.922-3.923V76.123h2.4c3.094,0,5.604-2.51,5.604-5.604
		V41.373C94.281,38.279,91.771,35.77,88.676,35.77z M17.648,3.923H63.07v20.063c0,1.084,0.881,1.961,1.963,1.961h17.32v9.823H17.648
		V3.923z M58.905,49.941c1.011-1.464,2.788-2.405,5.158-2.405c4.078,0,7.075,3.381,7.04,8.608c0,6.134-3.903,9.201-7.807,9.201
		c-1.986,0-3.903-0.732-5.123-2.754h-0.069l-0.21,2.37h-4.495c0.069-1.115,0.139-3.172,0.139-5.088V40.218h5.298v9.724H58.905z
		 M41.134,61.059c1.464,0,2.3-1.011,2.649-1.847c0.139-0.314,0.174-0.732,0.174-1.15V47.92h5.333v11.57
		c0,2.23,0.07,4.043,0.139,5.472h-4.6l-0.244-2.404H44.48c-0.662,1.045-2.265,2.788-5.332,2.788c-3.451,0-5.995-2.161-5.995-7.424
		V47.92h5.332v9.166C38.485,59.56,39.287,61.059,41.134,61.059z M12.734,64.962V41.786c1.708-0.279,4.252-0.488,7.075-0.488
		c3.485,0,5.925,0.523,7.598,1.847c1.394,1.115,2.161,2.753,2.161,4.914c0,2.998-2.126,5.053-4.147,5.786v0.104
		c1.638,0.662,2.544,2.23,3.137,4.391c0.732,2.649,1.464,5.716,1.917,6.622h-5.437c-0.383-0.662-0.941-2.579-1.638-5.472
		c-0.627-2.928-1.638-3.729-3.798-3.764h-1.604v9.235H12.734z M82.354,95.018H17.648V76.125h64.706V95.018z M86.086,59.142
		c-2.439,6.762-4.077,9.479-5.994,11.188c-1.848,1.603-3.799,2.161-5.123,2.335l-1.115-4.496c0.662-0.104,1.498-0.418,2.3-0.906
		c0.802-0.418,1.673-1.254,2.195-2.126c0.175-0.243,0.279-0.522,0.279-0.767c0-0.174-0.035-0.453-0.244-0.871L72.146,47.92h5.89
		l2.544,8.364c0.279,1.011,0.628,2.265,0.837,3.171h0.104c0.244-0.906,0.522-2.195,0.767-3.171l2.091-8.364h5.682L86.086,59.142z"/>
</g>
</svg>
